<?xml version="1.0" encoding="UTF-8" standalone="no"?>
<svg
   xmlns:dc="http://purl.org/dc/elements/1.1/"
   xmlns:cc="http://creativecommons.org/ns#"
   xmlns:rdf="http://www.w3.org/1999/02/22-rdf-syntax-ns#"
   xmlns:svg="http://www.w3.org/2000/svg"
   xmlns="http://www.w3.org/2000/svg"
   viewBox="0 0 2836 2384"
   height="2384"
   width="2836"
   xml:space="preserve"
   id="svg2"
   version="1.1"><metadata
     id="metadata8"><rdf:RDF><cc:Work
         rdf:about=""><dc:format>image/svg+xml</dc:format><dc:type
           rdf:resource="http://purl.org/dc/dcmitype/StillImage" /></cc:Work></rdf:RDF></metadata><defs
     id="defs6"><clipPath
       id="clipPath26"
       clipPathUnits="userSpaceOnUse"><path
         id="path24"
         d="M 0,1788 H 2127 V 0 H 0 Z" /></clipPath><clipPath
       id="clipPath66"
       clipPathUnits="userSpaceOnUse"><path
         id="path64"
         d="m 417.349,405.844 h 115.32 V 220.187 h -115.32 z" /></clipPath><clipPath
       id="clipPath90"
       clipPathUnits="userSpaceOnUse"><path
         id="path88"
         d="m 1048.18,994.174 h 231.44 V 805.681 h -231.44 z" /></clipPath><clipPath
       id="clipPath110"
       clipPathUnits="userSpaceOnUse"><path
         id="path108"
         d="M 323.682,1298.27 H 1063 V 297.588 H 323.682 Z" /></clipPath><clipPath
       id="clipPath138"
       clipPathUnits="userSpaceOnUse"><path
         id="path136"
         d="M 541.733,1061.36 H 712.398 V 883.819 H 541.733 Z" /></clipPath><clipPath
       id="clipPath166"
       clipPathUnits="userSpaceOnUse"><path
         id="path164"
         d="M 848.144,1082.55 H 998.539 V 926.102 H 848.144 Z" /></clipPath></defs><g
     transform="matrix(1.3333333,0,0,-1.3333333,0,2384)"
     id="g10"><g
       transform="translate(1537.8947,329.534)"
       id="g12"><path
         id="path14"
         style="fill:#d1a765;fill-opacity:1;fill-rule:nonzero;stroke:none"
         d="m 0,0 34.223,23.052 25.534,182.108 48.586,-424.152 16.136,34.578 V 205.16 l -99.744,8.327 z" /></g><g
       transform="translate(1754.5811,1615.8209)"
       id="g16"><path
         id="path18"
         style="fill:#d1a765;fill-opacity:1;fill-rule:nonzero;stroke:none"
         d="M 0,0 -34.578,11.526 -48.409,-41.493 0,-50.714 Z" /></g><g
       id="g20"><g
         clip-path="url(#clipPath26)"
         id="g22"><g
           transform="translate(1414.7937,571.7535)"
           id="g28"><path
             id="path30"
             style="fill:#e5be7a;fill-opacity:1;fill-rule:nonzero;stroke:none"
             d="m 0,0 -162.741,-332.121 62.24,-36.885 165.973,331.947 h 57.629 l -43.798,-193.635 43.798,-11.526 38.659,179.804 7.266,-378.048 c 0,0 55.503,-27.663 62.418,-20.747 6.916,6.915 -17.289,433.373 -17.289,433.373 z" /></g><g
           transform="translate(1288.5812,1597.7063)"
           id="g32"><path
             id="path34"
             style="fill:#f1f0f0;fill-opacity:1;fill-rule:nonzero;stroke:none"
             d="m 0,0 h 707.688 l -112.953,-1117.013 -735.351,142.92 z" /></g><g
           transform="translate(1353.4808,218.8857)"
           id="g36"><path
             id="path38"
             style="fill:#d1a765;fill-opacity:1;fill-rule:nonzero;stroke:none"
             d="m 0,0 -39.188,-16.139 165.973,331.948 h 39.186 z" /></g><g
           transform="translate(1706.1724,1703.4175)"
           id="g40"><path
             id="path42"
             style="fill:#d1a765;fill-opacity:1;fill-rule:nonzero;stroke:none"
             d="M 0,0 -20.747,20.747 -43.798,-102.58 h 23.051 z" /></g><g
           transform="translate(2047.3381,1581.2433)"
           id="g44"><path
             id="path46"
             style="fill:#e5e5e5;fill-opacity:1;fill-rule:nonzero;stroke:none"
             d="m 0,0 -51.069,16.463 -112.953,-1117.014 -735.351,142.921 46.459,-40.51 728.435,-140.616 z" /></g><g
           transform="translate(1549.4205,1627.3468)"
           id="g48"><path
             id="path50"
             style="fill:#e5be7a;fill-opacity:1;fill-rule:nonzero;stroke:none"
             d="M 0,0 -11.526,-53.019 H 156.752 L 170.583,0 Z" /></g><g
           transform="translate(1628.9491,1724.1641)"
           id="g52"><path
             id="path54"
             style="fill:#e5be7a;fill-opacity:1;fill-rule:nonzero;stroke:none"
             d="M 0,0 -21.899,-123.327 H 33.425 L 56.477,0 Z" /></g><g
           transform="translate(417.5535,397.6884)"
           id="g56"><path
             id="path58"
             style="fill:#d44342;fill-opacity:1;fill-rule:nonzero;stroke:none"
             d="m 0,0 c 0,0 -2.503,-134.766 10.01,-158.724 12.512,-23.959 35.035,-26.092 57.558,0 22.522,26.091 47.547,126.191 47.547,126.191 0,0 -57.557,62.563 -115.115,32.533" /></g><g
           id="g60"><g
             id="g62" /><g
             id="g74"><g
               style="opacity:0.57000703"
               id="g72"
               clip-path="url(#clipPath66)"><g
                 id="g70"
                 transform="translate(417.5535,397.6884)"><path
                   id="path68"
                   style="fill:#c63838;fill-opacity:1;fill-rule:nonzero;stroke:none"
                   d="m 0,0 c 0,0 -2.503,-134.766 10.01,-158.724 12.512,-23.959 35.035,-26.092 57.558,0 22.522,26.091 47.547,126.191 47.547,126.191 0,0 -57.557,62.563 -115.115,32.533" /></g></g></g></g><g
           transform="translate(848.1442,365.1559)"
           id="g76"><path
             id="path78"
             style="fill:#d44342;fill-opacity:1;fill-rule:nonzero;stroke:none"
             d="m 0,0 c 0,0 25.332,-97.598 51.375,-115.115 26.042,-17.518 53.432,7.507 52.249,47.547 -1.182,40.041 -21.747,97.598 -21.747,97.598 z" /></g><g
           transform="translate(1075.7114,905.6962)"
           id="g80"><path
             id="path82"
             style="fill:#d44342;fill-opacity:1;fill-rule:nonzero;stroke:none"
             d="m 0,0 c 0,0 65.065,3.745 90.09,11.882 25.025,8.138 71.802,85.716 102.217,75.706 30.416,-10.01 -5.005,-99.455 -37.152,-132.633 -32.147,-33.178 -83.637,-51.24 -120.647,-54.399 -37.01,-3.159 -62.035,7.814 -62.035,7.814" /></g><g
           id="g84"><g
             id="g86" /><g
             id="g98"><g
               style="opacity:0.44000202"
               id="g96"
               clip-path="url(#clipPath90)"><g
                 id="g94"
                 transform="translate(1075.7114,905.6962)"><path
                   id="path92"
                   style="fill:#c63838;fill-opacity:1;fill-rule:nonzero;stroke:none"
                   d="m 0,0 c 0,0 65.065,3.745 90.09,11.882 25.025,8.138 71.802,85.716 102.217,75.706 30.416,-10.01 -5.005,-99.455 -37.152,-132.633 -32.147,-33.178 -83.637,-51.24 -120.647,-54.399 -37.01,-3.159 -62.035,7.814 -62.035,7.814" /></g></g></g></g><g
           transform="translate(1115.75,687.9786)"
           id="g100"><path
             id="path102"
             style="fill:#d44342;fill-opacity:1;fill-rule:nonzero;stroke:none"
             d="m 0,0 c 0,-288.858 -169.521,-390.39 -396.034,-390.39 -226.513,0 -396.034,101.532 -396.034,390.39 0,288.858 89.312,615.872 396.034,615.872 C -91.663,615.872 0,288.858 0,0" /></g><g
           id="g104"><g
             id="g106" /><g
             id="g118"><g
               style="opacity:0.57000703"
               id="g116"
               clip-path="url(#clipPath110)"><g
                 id="g114"
                 transform="translate(529.7318,941.56)"><path
                   id="path112"
                   style="fill:#c63838;fill-opacity:1;fill-rule:nonzero;stroke:none"
                   d="m 0,0 c -13.134,144.261 35.94,249.361 126.548,356.709 -255.76,-46.318 -332.598,-342.423 -332.598,-610.29 0,-288.858 169.521,-390.391 396.034,-390.391 150.764,0 276.2,45.078 343.289,160.335 C 253.882,-467.68 24.331,-267.253 0,0" /></g></g></g></g><g
           transform="translate(736.6225,976.124)"
           id="g120"><path
             id="path122"
             style="fill:#ffffff;fill-opacity:1;fill-rule:nonzero;stroke:none"
             d="m 0,0 c 0,-56.32 -45.657,-101.977 -101.977,-101.977 -56.32,0 -101.977,45.657 -101.977,101.977 0,56.32 45.657,101.977 101.977,101.977 C -45.657,101.977 0,56.32 0,0" /></g><g
           transform="translate(694.1016,1001.4286)"
           id="g124"><path
             id="path126"
             style="fill:#0c0808;fill-opacity:1;fill-rule:nonzero;stroke:none"
             d="M 0,0 C -3.322,-19.207 -21.585,-32.085 -40.792,-28.763 -60,-25.441 -72.877,-7.178 -69.556,12.029 -66.234,31.236 -47.97,44.114 -28.763,40.792 -9.556,37.471 3.322,19.207 0,0" /></g><g
           transform="translate(665.4132,1013.3348)"
           id="g128"><path
             id="path130"
             style="fill:#ffffff;fill-opacity:1;fill-rule:nonzero;stroke:none"
             d="m 0,0 c -1.19,-6.882 -7.733,-11.495 -14.615,-10.305 -6.881,1.19 -11.495,7.733 -10.305,14.615 1.19,6.881 7.733,11.495 14.615,10.305 C -3.424,13.425 1.19,6.881 0,0" /></g><g
           id="g132"><g
             id="g134" /><g
             id="g146"><g
               style="opacity:0.19999701"
               id="g144"
               clip-path="url(#clipPath138)"><g
                 id="g142"
                 transform="translate(670.8081,914.3534)"><path
                   id="path140"
                   style="fill:#c63838;fill-opacity:1;fill-rule:nonzero;stroke:none"
                   d="m 0,0 c -51.74,0 -93.684,41.944 -93.684,93.684 0,19.824 6.196,38.18 16.702,53.319 -30.845,-15.331 -52.094,-47.071 -52.094,-83.853 0,-51.74 41.944,-93.684 93.684,-93.684 31.916,0 60.066,15.99 76.982,40.365 C 29.046,3.596 14.958,0 0,0" /></g></g></g></g><g
           transform="translate(1019.8861,1007.4432)"
           id="g148"><path
             id="path150"
             style="fill:#ffffff;fill-opacity:1;fill-rule:nonzero;stroke:none"
             d="m 0,0 c 0,-49.631 -40.234,-89.865 -89.865,-89.865 -49.631,0 -89.864,40.234 -89.864,89.865 0,49.631 40.233,89.865 89.864,89.865 C -40.234,89.865 0,49.631 0,0" /></g><g
           transform="translate(982.4157,1029.7423)"
           id="g152"><path
             id="path154"
             style="fill:#0c0808;fill-opacity:1;fill-rule:nonzero;stroke:none"
             d="m 0,0 c -2.927,-16.926 -19.021,-28.274 -35.947,-25.347 -16.926,2.927 -28.274,19.021 -25.347,35.947 2.927,16.926 19.021,28.275 35.947,25.347 C -8.421,33.02 2.927,16.926 0,0" /></g><g
           transform="translate(957.1347,1040.2343)"
           id="g156"><path
             id="path158"
             style="fill:#ffffff;fill-opacity:1;fill-rule:nonzero;stroke:none"
             d="m 0,0 c -1.049,-6.064 -6.815,-10.13 -12.879,-9.081 -6.064,1.049 -10.13,6.815 -9.081,12.879 1.049,6.064 6.815,10.13 12.879,9.081 C -3.017,11.83 1.049,6.064 0,0" /></g><g
           id="g160"><g
             id="g162" /><g
             id="g174"><g
               style="opacity:0.19999701"
               id="g172"
               clip-path="url(#clipPath166)"><g
                 id="g170"
                 transform="translate(961.8889,953.0094)"><path
                   id="path168"
                   style="fill:#c63838;fill-opacity:1;fill-rule:nonzero;stroke:none"
                   d="m 0,0 c -45.595,0 -82.557,36.962 -82.557,82.557 0,17.469 5.46,33.644 14.719,46.986 -27.181,-13.51 -45.907,-41.481 -45.907,-73.894 0,-45.595 36.962,-82.556 82.557,-82.556 28.125,0 52.932,14.091 67.838,35.57 C 25.596,3.169 13.182,0 0,0" /></g></g></g></g><g
           transform="translate(962.1929,811.1885)"
           id="g176"><path
             id="path178"
             style="fill:#071b28;fill-opacity:1;fill-rule:nonzero;stroke:none"
             d="m 0,0 c 0,-76.706 -62.183,-138.889 -138.889,-138.889 -76.706,0 -138.889,62.183 -138.889,138.889 0,76.706 62.183,0 138.889,0 C -62.183,0 0,76.706 0,0" /></g><g
           transform="translate(899.5189,705.0033)"
           id="g180"><path
             id="path182"
             style="fill:#d44342;fill-opacity:1;fill-rule:nonzero;stroke:none"
             d="m 0,0 c -22.602,30.46 -58.826,50.208 -99.67,50.208 -29.221,0 -56.062,-10.13 -77.26,-27.036 22.601,-30.461 58.826,-50.208 99.669,-50.208 29.222,0 56.063,10.13 77.261,27.036" /></g><g
           transform="translate(251.0142,589.5543)"
           id="g184"><path
             id="path186"
             style="fill:#1f8299;fill-opacity:1;fill-rule:nonzero;stroke:none"
             d="M 0,0 C -8.268,-20.51 -26.575,-32.458 -40.889,-26.687 L 86.185,-77.916 h 0.001 c 14.313,-5.771 32.62,6.177 40.888,26.687 8.269,20.51 3.367,41.814 -10.946,47.584 -0.001,0 -0.001,10e-4 -0.001,10e-4 L -10.947,47.584 C 3.367,41.814 8.268,20.51 0,0" /></g><g
           transform="translate(406.1519,566.6066)"
           id="g188"><path
             id="path190"
             style="fill:#fff9c5;fill-opacity:1;fill-rule:nonzero;stroke:none"
             d="m 0,0 c 0,0 -0.001,0 -0.001,0 l -13.481,5.435 -105.372,42.48 -13.481,5.435 c 0,0 -0.001,0 -0.001,0 -13.128,5.293 -29.918,-5.666 -37.501,-24.476 -7.583,-18.811 -3.088,-38.35 10.04,-43.643 0,0 0,0 0,0 l 13.482,-5.435 105.372,-42.48 13.481,-5.434 c 0,0 0,-0.001 0,-0.001 13.128,-5.292 29.918,5.666 37.502,24.477 C 17.623,-24.832 13.128,-5.292 0,0" /></g><g
           transform="translate(326.2532,559.2223)"
           id="g192"><path
             id="path194"
             style="fill:#39a7c4;fill-opacity:1;fill-rule:nonzero;stroke:none"
             d="M 0,0 C 8.268,20.51 26.575,32.458 40.889,26.687 L -86.185,77.916 c 0,0 0,0 -0.001,0 -14.313,5.771 -32.62,-6.177 -40.888,-26.687 -8.269,-20.51 -3.367,-41.814 10.946,-47.584 0.001,-10e-4 0.001,-10e-4 0.001,-10e-4 L 10.947,-47.584 C -3.367,-41.814 -8.268,-20.51 0,0" /></g><g
           transform="translate(219.2944,602.3419)"
           id="g196"><path
             id="path198"
             style="fill:#071b28;fill-opacity:1;fill-rule:nonzero;stroke:none"
             d="m 0,0 c 8.268,20.51 26.575,32.458 40.889,26.687 l -20.115,8.109 c 0,10e-4 -0.001,10e-4 -0.001,10e-4 -14.314,5.77 -32.62,-6.178 -40.888,-26.688 -8.269,-20.509 -3.368,-41.813 10.946,-47.584 0,0 0.001,0 0.001,0 l 20.115,-8.109 C -3.367,-41.814 -8.268,-20.51 0,0" /></g><g
           transform="translate(367.1386,774.9412)"
           id="g200"><path
             id="path202"
             style="fill:#d44342;fill-opacity:1;fill-rule:nonzero;stroke:none"
             d="m 0,0 c -10.641,-3.29 -27.325,-10.469 -44.919,-24.085 -29.376,-22.734 -79.344,-66.235 -80.225,-143.539 -0.526,-46.195 18.164,-107.28 49.145,-99.187 30.98,8.094 28.184,98.64 44.79,119.053 16.607,20.413 69.231,58.86 69.231,58.86 0,0 22.403,24.387 15.942,55.158 C 47.503,-2.969 32.514,10.054 0,0" /></g><g
           transform="translate(1416.8722,1403.7449)"
           id="g204"><path
             id="path206"
             style="fill:#d44342;fill-opacity:1;fill-rule:nonzero;stroke:none"
             d="M 0,0 C -24.589,-6.147 -70.692,-95.28 -70.692,-95.28 L 0,-118.335 Z" /></g><g
           transform="translate(1533.2843,974.4395)"
           id="g208"><path
             id="path210"
             style="fill:#11a4ce;fill-opacity:1;fill-rule:nonzero;stroke:none"
             d="M 0,0 73.766,-61.471 0,-113.722 -43.03,-36.883 Z" /></g><g
           transform="translate(1270.4945,1105.6091)"
           id="g212"><path
             id="path214"
             style="fill:#11a4ce;fill-opacity:1;fill-rule:nonzero;stroke:none"
             d="m 0,0 42.974,-105.892 -73.766,-52.251 -43.03,76.839 z" /></g><g
           transform="translate(1859.4635,1088.929)"
           id="g216"><path
             id="path218"
             style="fill:#f9ed80;fill-opacity:1;fill-rule:nonzero;stroke:none"
             d="m 0,0 -138.474,163.408 -125.74,-119.449 133.428,-25.475 30.394,-80.405 z" /></g></g></g></g></svg>