<svg xmlns="http://www.w3.org/2000/svg" width="724.01" height="211.99"><path fill-rule="evenodd" fill="currentColor" d="M445.18 144.5l-.14-.15h.14v.14zM368.6 60.14h.14l-.14.15h-.15l.15-.2zm-1 9v-.3c.08-.08.13-.08.13 0l-.14.3zm0-.87l.27.44h-.43c0-.2.05-.3.15-.4zm3.17-10.02h-.14v-.14h.43c-.1 0-.14.1-.14.1 0 .1-.05.1-.15.1zm3.1 5.87l.23-.2-.14.3-.1-.1zm-.64.23c.2-.1.3-.2.36-.3 0-.07.1-.05.2.07-.1.1-.3.17-.4.23h-.3zm2.46 2.18v-.15l.5-.3.1.06c-.3.43-.5.56-.7.38zm.7-.44l.1.1-.2-.1V66zm4.5 3.6c0 .1-.1.2-.3.4h-.3V70c.1-.1.1-.23.1-.42 0-.2.1-.3.4-.3-.1 0-.1.1.1.3l-.2.13zm3.3-1.5l.1-.2-.2.1zm-.8.4c-.4.1-.7.2-1.1.4-.2.2-.4.1-.6-.2-.1-.2-.1-.4 0-.6.1-.2.2-.3.4-.3.2-.1.4-.2.6-.2.1 0 .3-.2.5-.5.3-.1.5 0 .6.1l.1-.1c0-.1.1-.1.2-.1v.1c-.1 0-.2 0-.2.1.1.1.1.3.1.5-.3.2-.5.3-.8.4zm.5 2.1v-.2c0-.2 0-.4.1-.5h.3c-.1.1-.1.2 0 .3 0 .2-.2.3-.5.3zm-4.5 9.8h-.2c0-.2.1-.4.3-.6h.3s.1 0 .1.1c-.1.1-.2.1-.3.2-.1 0-.2.1-.3.2zm.6-.3v-.1.1zM345.8 110c-.3-.3-.5-.5-.5-.62s.1-.5.3-1.1c.3.3.3.9.1 1.77zm-1.8 9c0 .2-.05.33-.14.42h-.16c.1-.1.18-.25.18-.44h.13zm-.14-3.5c0-.2.13-.3.42-.3.1 0 .1.06.1.16-.2.77-.32 1.4-.42 1.9l-.12.13c-.3-.5-.3-1.1 0-1.9zm.56-3.63c.1-.1.4-.26.86-.45l.3-.3c0 .3-.03.6-.08.9-.06.3-.08.56-.08.85.2.4.05.68-.44.87-.1 0-.15.08-.2.23-.05.15-.17.28-.37.37 0 .2-.1.3-.2.3s-.2-.06-.3-.16c.1-.2.2-.36.2-.5l.3-.5c.3-.4.4-.73.2-1-.1-.3-.1-.5 0-.6zm1.73-4.66H346c-.1-.5-.12-1.1-.07-1.5 0-.4.22-.9.6-1.4.3-.4.5-.7.6-1 .1-.3.2-.6.3-1v.2h.1c-.1.8-.22 1.6-.4 2.4-.2.8-.57 1.6-1.06 2.4zm9.17-12.2l-.46-.2h1c-.3.2-.45.3-.55.3zm27.92-.5h-.18v-.1l.14.2zm-.47.5c0-.2.04-.3.14-.4h.1v.3c0 .1-.1.1-.3.1zm87.6-66.3v-.2h.13v.2h-.16zm71.65-17c-.1.1-.35.2-.74.4-.37.2-.74.4-1.07.7l-.9.7c-1.1.9-2.3 1.3-3.4 1.3-.7 0-1.4.3-2 .8-.3.3-.7.5-1.1.7-.4.2-.7.3-1.1.5-.7.2-1.1.4-1.3.6-.4.2-.9.3-1.5.3-.3 0-.5 0-.8.1-.3 0-.6.1-1 .2l-.9.3c-.3.1-.6.1-1-.1-.3 0-.5.1-.6.2-.3.3-.6.5-.9.5h-.8c-.5 0-.9 0-1.3.1-.4 0-.8.1-1.3.3-.1.1-.2.2-.4.2-.7-.1-1.3 0-2 .1-.6.2-1.3.4-1.9.5h-1.1c-.4 0-.8.1-1.3.3-.2.1-.4.1-.5.1-.2-.1-.4-.1-.5-.1-.6 0-1 0-1.2.1-.8.3-1.5.4-2.1.4-.6 0-1.2-.1-1.8-.2-.7 0-1.2.1-1.6.3-.1.1-.3.2-.6.2-.4-.1-.6 0-.7.2-.1.3-.3.5-.5.7-1.1.2-2.3.4-3.4.5-1.1.2-2.2.2-3.4.2-1 0-1.6.5-1.6 1.5h.5c-.1.2-.1.4-.1.5 0 .2 0 .3-.1.4-.5.3-.8.7-1.1 1.1-.2.4-.4.8-.6 1.3 0 .2-.1.4-.2.7-.1.3-.3.6-.5.7-.5.5-.7 1.1-.7 1.8-.1.2-.2.3-.1.5 0 .1 0 .3-.1.5-.2.6-.4 1.2-.5 1.7-.2.6-.5 1.2-.8 1.8l-.3.7c.1.4 0 .7-.2 1-.3.3-.5.6-.7 1-.2.4-.3.6-.3.7.3.4.3.7 0 1.1-.2.3-.4.7-.5 1.1-.4 1.4-1 3-2 4.8-.3.5-.5 1-.7 1.5l-.6 1.5c-.2.4-.3.8-.4 1.1-.1.3-.2.7-.4 1.1 0 .1-.2.2-.7.4.2-.3.3-.5.3-.8 0-.2.1-.4.2-.6l.3-.8c.1-.3.1-.6.1-.9 0-.2 0-.4-.1-.6v-.7c-.1.2-.2.4-.3.5-.1.1-.2.2-.3.4-.1.1-.1.2-.2.3.1.1.2.2.2.4l-.3.6c-.1.3-.3.5-.6.8l-.1.2c-.2.4-.5.8-.6 1.2-.1.4-.3.8-.5 1.2-.1.2-.1.4-.2.7 0 .3-.1.5-.3.7-.7.5-.9 1.1-.7 1.9 0 .2.1.4.1.5.1.1.1.2.1.4.2.1.4.1.5-.1.1-.2.2-.3.4-.4l.4.5c.2-.3.3-.5.4-.6.3-.3.6-.4.9-.2.3.1.4.3.2.7-.9 1.1-1.5 2.2-1.8 3.3-.1.2-.2.5-.2.7l-.3.7c-.2.7-.4 1.3-.6 1.9-.3.8-.6 1.5-.9 2.2-.3.7-.6 1.4-1 2.1 0 .4-.2.7-.6.8 0-.2 0-.3.1-.4h-.2c-.1.1-.1.3-.1.4l-2.1.1-.1.2h-.5l-.1-.1V68l-1.2.1c-.4 0-.5.2-.5.48-.2.5-.4 1-.5 1.53-.2.5-.4 1-.5 1.5.4.1.7 0 .8-.3.2-.3.3-.4.5-.4h.3c-.1.2-.1.4-.1.5 0 .1-.1.3-.2.5l-.8 1.1c-.3.3-.5.7-.7 1.2 0 .2-.1.3-.3.3-.7.3-1.1.7-1.2 1.1L471 77c0 .3.05.5.1.5.3.2.47.4.47.7v.8c-.1.7-.3 1.3-.6 1.9l-.9 1.7c-.1.2-.34.3-.7.3-.3.2-.5.1-.5-.3 0-.5.07-.8.17-.9.1-.2.2-.3.3-.4.1-.1.2-.2.3-.4l-.4-.43c-.1-.1 0-.35.2-.7.4-1 .6-1.7.7-2.2.2-.4.1-.64-.3-.74l-.5 1.1c-.1.33-.3.7-.5 1.1-.4.84-.6 1.6-.7 2.3-.2.4-.33.7-.42.93-.1.2-.4.4-.9.6-.3.2-.4.4-.4.7.1 1.3-.2 2.7-.74 4.2.2.2.3.2.4.1.1-.2.2-.2.4-.2h.7c.3.8.2 1.8-.3 2.9 0 .2-.1.4-.3.5-.5.5-.8 1-1 1.6-.2.6-.5 1.2-.86 1.7-.1.2-.2.33-.3.43-.1.1-.2.2-.3.4h-.3c-.4-.4-.4-.8.1-1 .1-.1.18-.2.18-.3l.2-.2h-.4c-.3.2-.4.4-.4.5v.5c-.1.3-.14.5-.2.8-.03.3-.2.6-.4.9-.7 1.3-1.2 2.6-1.3 3.9h-.3l-.23.1c-.2 0-.37 0-.46-.1-.1-.1-.3 0-.5.2-.2.4-.2.7 0 .8h.5c-.1 1.3-.5 2.7-1.2 4.4-.2.4-.3.8-.5 1.1-.1.3-.4.6-.6.9-.4.4-.7.8-.7 1.4s-.1 1.2-.3 1.7l-.6 1.8-.6 1.7-.6 1.8c.2.5.3 1 .1 1.6-.1.6-.3 1.1-.4 1.6 0 .3-.1.7-.3 1.3 0 .3-.1.5-.3.7-.5.5-.7.9-.8 1.4 0 .4-.2.9-.5 1.4 0 .1.1.2.2.3.3 0 .4-.1.4-.2l.6-1.1.7-1.3c.1.2.3.4.5.6.4.5.3 1-.3 1.6-.4.7-.4 1.3-.1 1.9-.3.4-.5.8-.6 1.1-.1.4-.2.7-.4 1.1-.1.5-.2 1-.2 1.4l-.2 1.4.6.6c.3.3.3.5.3.7 0 .3 0 .5.2.3.2-.1.4-.1.6 0 .1.5-.1 1-.4 1.3-.1.2-.2.4-.3.5-.2.1-.3.3-.5.5-.1.2-.2.3-.3.4-.1.1-.1.2-.1.4-.5 1.1-1 2.1-1.7 2.9-.6.9-1.3 1.7-2.1 2.5-.4.5-.8 1.1-1.1 1.9 0 .1-.1.3-.3.5v-.5c.1-.1.2-.2.2-.4-.1-.2-.2-.3-.4-.2l-.3.3c-.1.1-.1.2-.1.3 0 .1 0 .2-.1.3-.2.1-.4.1-.5.1-.2 0-.3.1-.4.2l-1.6 1.1c-.6.3-.9.8-.9 1.4.4-.2.9-.4 1.4-.7l.4-.1v-.1c.4-.1.7-.2 1.1-.2 0 .5-.1.8-.4.9-.5.2-.9.5-1.2.8-.3.4-.7.6-1.2.8l-.4.5c-.6.6-1 1.1-1.3 1.4-.4-.4-.6-.6-.6-.7-.1-.2-.1-.3-.1-.5.1-.1.1-.3.1-.5-.3-.2-.5-.2-.7 0-.3.3-.6.5-.9.6 0 0 .1.1.1.2-.2.2-.3.3-.3.2 0 0-.1-.1-.3-.1h-.5l-.1.1c-.1.3-.3.4-.5.3-.1-.1-.1-.2 0-.3h-.2v.4c.3.3.4.6.4.9.2.2.4.3.5.4.1 0 .3.1.5.2.1-.2.2-.4.2-.6.2-.3.4-.4.6-.3l.4.2.4.2c-.6.7-1 1-1.3 1.1-.2 0-.7 0-1.3-.2-.4-.2-.6-.2-.7-.2-.1.1-.4.3-.8.8 0 .2-.1.4-.3.5-.7.9-1.1.9-1.4 0-.2-1-.4-1.8-.6-2.5h-.4c-.6.2-1 .3-1.1.4v1s.1 1 .5 1.3c.3.3.6.7.9 1 .1.2.2.3.4.4.1.1.2.2.3.4s.1.4-.1.6c-.1.1-.3.1-.6.1-.6-.4-.9-.8-1-1.1-.2-.3-.4-.5-.6-.6-.2-.1-.4-.2-.6-.4-.2.2-.2.3-.1.4.1.1.1.1.1.2-.2.4-.4.6-.7.6-.2-.1-.3-.2-.3-.4 0-.1-.2-.1-.5 0-.7.6-1 1.2-.9 1.6v.2c-.3-.1-.6-.2-.8-.2-.2-.1-.3-.3-.1-.7 0-.3-.1-.4-.4-.4H428c.4.6.6.9.7 1 .1-.1.2-.2.4-.2.1-.1.2 0 .2.2l-1.3 1.7h-.5c-.1-.1-.15-.1-.15-.2 0 0 0-.1-.1-.2l-.4-.9c-.1-.1-.2-.2-.3-.2-.1 0-.1.1-.2.2s-.1.2-.1.3c0 .3.1.8.2 1.3-.2-.3-.32-.5-.5-.7-.1-.2-.3-.3-.4-.5-.3.2-.4.3-.4.4.1.1.1.2 0 .4 0 .2-.1.5-.3.9h-.2c0-.4-.02-.7-.1-.9 0-.5-.3-.7-.77-.7-.1 0-.2 0-.3.2-.1.1-.25.2-.4.3-.3.3-.36.6-.16.9-.2.6-.1.9.3 1 0 .1.1.3.3.4l-.2.3c0 .2-.1.3-.3.3-.4 0-.6-.1-.7-.2-.2-.2-.4-.2-.7-.1-.2.1-.4.2-.6.2-.1-.2-.2-.3-.3-.4-.1-.1-.2-.2-.3-.4-.3-.2-.5-.5-.5-1-.1.2-.2.3-.2.4 0 .1-.06.2-.1.4l.3-1.4c-.2-.5-.5-.9-.78-1.3-.3-.4-.5-.8-.7-1.3-.2-.2-.2-.4 0-.6.5-.5.5-.8.15-1-.2-.1-.2-.2-.1-.4.1-.1.2-.3.2-.5h-.7c-.2-.1-.4-.3-.6-.7 0-.2.1-.4.1-.6.1-.3 0-.5-.2-.7-.1-.1-.2-.2-.4-.2l-.1.3c0 .8 0 1.5.1 2.1 0 .6.2 1.2.5 1.8h.1c-.2.2-.4.3-.6.4-.2.1-.4.3-.6.4.1-.2.1-.4.1-.8 0-.2-.1-.3-.3-.3l-.1.3v.2c-.1.1-.1.1-.1.2-.5-.1-.6-.4-.4-1 .1-.4 0-.7-.3-1-.2-.2-.3-.5-.4-1-.2-.1-.2-.2-.2-.3h.1l-.1-.7c0-.1.1-.2.2-.3.1-.1.1-.2.1-.4.4-1 .4-1.7-.3-2.1.1.2.1.5.1.9l-.4.5-.3-.1c0-1-.1-1.9-.3-2.8-.2-.9-.2-1.9 0-2.9l.4 1.7c.3-.2.6-.3.6-.4 0 0 0-.2-.1-.4v-.6c-.1-.3-.1-.5 0-.8.7-.2 1-.5 1-.9-.1-.2-.1-.5-.1-.9h-1.3c-.6.6-.8 1.2-.7 1.9-.1.1-.2.3-.2.5-.2-.2-.3-.4-.3-.6 0-.2 0-.4-.1-.6 0-.6.3-1 .9-1.2.1 0 .2-.1.3-.3.1-.2.1-.3 0-.3-.2-.2-.3-.5-.3-.8s.1-.6.2-.8c-.2-.3-.5-.4-.9-.4s-.6-.2-.5-.7c.7-.2 1.1-.4 1.2-.5l1-.7c.1-.8 0-1.8-.3-3-.2.2-.3.3-.3.4 0 .1-.1.2-.2.3-.2.3-.4.4-.6.5-.2.1-.4.1-.5-.1-.6-.8-.8-1.6-.7-2.6 0-.1 0-.2.1-.3.6-.3.9-.7.8-1.1 0-.4 0-.8.2-1.3 0-.2.1-.4.2-.5.2 0 .4 0 .5-.1.2 0 .2.1.2.4-.1.2-.1.4 0 .5 0 .1.1.2.1.4h.1c.3 0 .4-.1.4-.3 0-.2 0-.4.1-.5v-.5l-.4-.9c-.1-.1-.4-.2-.8-.2-.2.6-.3.9-.3 1-.3-.7-.3-1.5 0-2.3.1-.1.2-.3.2-.5h-.6c-.1 0-.2.1-.3.2-.2-.2-.3-.3-.3-.4.2-.8.5-1.3.7-1.6.7-.9.9-1.8.6-2.7-.1-.2-.1-.4-.1-.7s-.1-.5-.2-.8c-.3.4-.4.8-.4 1.4.1.2.1.3 0 .4 0 .1-.1.3-.1.4l-.3.2c-.2 0-.2-.1-.1-.2-.2-.1-.2-.2 0-.4.2-.7.3-1.3.2-1.9-.1-.6 0-1.2.1-1.8 0-1.7 0-3.5-.1-5.2-.1-1.8 0-3.5.2-5.3-.1-.2-.3-.2-.5-.2-.2.1-.3-.1-.2-.3 0-.3 0-.6-.1-.9 0-.3.1-.5.5-.7 0-.3 0-.6.1-.9.1-.3 0-.5-.1-.7-.2-.5-.3-1-.3-1.6 0-.6-.1-1.2-.3-1.7-.2.1-.4.2-.6.4l-.4.2c.1 0 .1-.1.1-.1h-.2c-.2 0-.3 0-.3.1v.2l-1.3.8c-.5.2-.6 0-.3-.4-.4.2-.6.4-.7.8-.1.3-.2.6-.5.9l-.9.4c-.7.1-1 .4-1 1-.3.3-.4.4-.3.4-.5.2-.8.4-1 .8-.2.3-.3.6-.4.9-.3.8-.5 1.5-.7 2.2-.2.6-.4 1.4-.6 2.1-.2.6-.4 1.2-.5 1.8-.2.6-.4 1.1-.7 1.7-.2.2-.4.5-.6 1.1-.2.9-.5 1.7-.7 2.6l-.9 2.6-.9 3.9c0 .5-.1.9-.4 1.3-.2.3-.4.6-.4.8-.1.3-.2.6-.4.9v.8c-.4 1-.4 1.9-.1 2.9.1.5-.1.9-.5 1.3-.2.2-.3.4-.4.7l-.2.8c0 .6-.3.9-.9 1-.6.2-1.1.5-1.3.8v1.2c-.1.2-.2.4-.4.6-.2.2-.3.5-.3.8 0 .5-.3 1-1 1.5l-.6.6-.6.5c-.1.2-.1.4-.1.6 0 .2-.1.4-.2.6 0 .3-.2.5-.4.5s-.3-.1-.3-.3c0-.6 0-1 .1-1.3.1-.3.1-.4-.1-.4-.1 0-.3-.1-.5-.3-.6.6-1 1-1.2 1.3v.9c0 .3-.1.7-.3 1-.4.2-.9.4-1.4.5-.5.1-.9.2-1.4.4-.2 0-.3.1-.3.3-.2.2-.1.3.2.3.3.2.5.3.5.2.2.2.1.4-.1.7-.2.1-.5.2-.8.3-.3.1-.6.1-.8.1-.2 0-.4.1-.5.2-.1.1-.2.3-.4.4.1.2.2.4.3.5.1.1.2.3.3.5-.2.2-.4.3-.5.2-.1 0-.3 0-.5.1-.1.2-.2.3-.2.4 0 .1 0 .3-.1.5-.3 0-.5-.1-.7-.2l-.5-.5c-.2-.3-.3-.5-.5-.5-.1-.1-.5 0-1.2.1 0-.2 0-.4-.1-.5 0-.1 0-.3.1-.5h-.7v-.4c-.1-.1-.1-.2-.1-.4-.1-.2-.1-.4-.1-.5.1-.2.1-.3.1-.5-.6.7-1.1 1.2-1.4 1.6.1.3.2.6.2 1s.2.7.5.9l.1.1v.1c-.2.2-.4.3-.5.3h-.8c-.1-.6-.2-1.2-.2-1.8 0-.6 0-1.2.1-1.8-.1-.2-.1-.4 0-.7l.3-.7c.7-.9.7-1.4.1-1.7-.2 0-.3-.1-.3-.3-.1-.4-.1-.8.1-1.2.1-.5.1-.9-.2-1.3-.2-.3-.3-.6-.2-1 .1-.4.2-.8.4-1.2.1-.7.1-1.5 0-2.5-.4.5-.6.9-.6 1.3s-.1.8-.3 1.2c-.2.4-.3.8-.4 1.1-.1.3-.3.7-.6 1.1-.1 0-.1-.2-.1-.6.4-1.2.7-2.3 1.1-3.5l.9-3.5.6-1.7.6-1.7c.2-.6.3-1 .3-1.3-.1-.5-.1-.9.1-1.3.2-.3.4-.7.6-1.1l.8-1.1.8-1.1c.9-1.6 1.6-3.1 2-4.3.3-1 .6-2.1 1.1-3.2.3-.6.5-1.2.8-1.7-.8.7-1.6 1.5-2.2 2.3-.2.2-.4.3-.6.3-.2 0-.4 0-.6.1-.1.2-.1.3-.1.4 0 .1 0 .3-.1.4-.6 1.1-1.3 1.9-2.2 2.5-.9.7-1.8 1.3-2.7 2-.9.6-1.8 1.3-2.6 2.1-.3.3-.7.6-1.3 1l-3.9 3c-.4.3-.8.3-1.3.1-.2.6-.4.9-.5 1.1l-.9.8-1.7 1.3-1.6 1.3c-.1.1-.2.2-.4.3l-.5.4c-.4.8-1 1.1-1.7.9h-.4l-1.3 1.3c-.4.2-.8.3-1.1.3-.4.1-.7.2-1 .4-.7.6-1.3.9-1.7 1-.2-.2-.2-.4-.1-.7.2-.3.3-.5.4-.8 0-.1 0-.2-.1-.2-.1-.1-.1-.1-.1-.2l-.1.1c-.1 0-.1.1-.1.2-.3.5-.7.8-1.1.9-.2.1-.4.3-.5.7v.4c0 .6-.3.9-.9.9-.7 0-1.3-.2-1.7-.5-.4.4-.6.7-.7.8-.3.5-.7.8-1 .8-.6.1-1.2.6-1.9 1.5l-.6.6c-.2 0-.3-.1-.4-.2-.7-.5-1.3-.4-1.9.3-.4.4-.9.7-1.5.7-.2 0-.4.1-.7.3-.3.2-.5.1-.7-.2-.3.1-.6.2-1 .2-.4.1-.7.2-1 .4-.3.2-.6.4-.7.6l-.6.6c-.3.2-.5.3-.5.5l-.3.5-.4 1.3c0 .2-.1.3-.3.3-.1 0-.3-.1-.5-.3-.1 0-.1-.1-.1-.3v-.3c-.2 0-.3 0-.2.1 0 .1 0 .2-.1.3 0 .3-.1.4-.4.4h-.2c-.1-.1-.1-.1-.2-.1.1-.2.2-.3.3-.4.1-.1.2-.2.1-.4-.2-.4-.4-.5-.7-.3-.5.2-.9.6-1.4 1.3-.6 0-1.2 0-1.8-.1-.7-.1-1.4 0-2.1.4.2.2.4.3.6.3.2 0 .4.1.6.2l.6.2c.2 0 .5 0 .8-.1s.7 0 1 .2l.6.7c-.5.5-1 .6-1.3.4-.5-.2-1-.3-1.6-.3-.6 0-1.2 0-1.9.1-.2-.2-.3-.4-.4-.7 0-.2-.2-.5-.3-.7-.2-.1-.3-.3-.4-.5-.1-.3-.2-.5-.4-.7l-.3-.3c-.6-.1-1.1-.3-1.6-.5s-.9-.5-1.4-.7h-.5c.1.4.2.6.5.7.3.1.4.3.4.6s-.1.4-.4.4c-.9-.2-1.6-.4-2-.6-.3-.1-.4-.5-.4-1-.1-.6-.4-1.1-1-1.5.5-.7.6-1.2.4-1.5l-.4-1.3c-.1-.4 0-.8.2-1.3-.2-.4-.3-.8-.2-1.2.1-.4 0-.9-.2-1.4v-1c0-.3 0-.6-.1-.9 0-.4.2-.7.6-1 .1-.1.2-.2.2-.4 0-.1.1-.2.2-.3.1-.5.1-1 .1-1.5 0-.6.1-1.1.2-1.5.2-2.3.5-4.3 1-6.1.2-.5.3-1 .3-1.6 0-.5.1-1 .3-1.5.2-.6.3-1.2.5-1.7.1-.6.3-1.2.5-1.8 0-.2 0-.4.1-.6.1-.2.2-.4.2-.6-.1-.5 0-1 .1-1.6.2-.6.3-1.1.5-1.7.3-.8.6-1.6.8-2.4l.7-2.4.3-1.1.3-1.1c.1-.2.2-.3.2-.4 0-.1 0-.3.1-.4l2.6-9.2c.1-.3.1-.7-.1-1.1-.2-.2-.3-.4-.2-.6 0-.2-.2-.4-.5-.5v.1s.1-.1.1-.2c.1-.5.1-.7 0-.7s-.4.1-.8.3h-.5c0-.1.1-.2.2-.3.1-.1.3-.2.7-.4.7-.5 1.1-1 1.1-1.7-.1-.2-.1-.5-.1-.9-.2-.2-.3-.4-.4-.6.7 0 1.4-.3 1.9-.9.5-.8.3-1.5-.4-2l.3-.2-.1-.1c-.1 0-.1 0-.1-.1l.3-.1v.3l.5-.3c.6-.2 1-.3 1.4-.4-.2-.3-.4-.3-.6-.3-.3.1-.5.2-.7.2-.2 0-.4.1-.7.1-.3.1-.5.1-.7.1-.2-.2-.1-.4.3-.6l1.3-.8c.4-.3.9-.5 1.5-.7-.2-.3-.6-.4-1-.2.1-.1.1-.1.1-.2.2-.4.2-.7.1-.8 0 .1-.2 0-.7-.3.4-.3.8-.4 1.1-.4.4.1.7 0 1.1-.2.4-.5.7-.9 1-1.4.2-.4.6-.9 1-1.3.3-.3.3-.6.1-.8-.2-.5.1-1.2.8-2 .2-.2.3-.4.5-.7.1-.3.3-.6.5-.8.2-.3.4-.6.7-.8.3-.3.7-.5 1.3-.6-.2-.5-.3-1-.1-1.4.1-.5.3-.9.5-1.4.4-.6.7-1.2 1-1.8l.9-1.7c.1-.2.1-.4.1-.5 0-.1.1-.2.2-.4.3-.8.3-1.3-.1-1.7-.1-.1-.2-.2-.2-.3-.1-.1-.2-.2-.4-.3 0-.1-.2-.3-.7-.6s-.8-.5-.8-.6c-.3-.2-.8-.1-1.5.2-.1.1-.3.1-.7.1h-2c.1.2.2.3.4.4.2 0 .2.1 0 .3-.4.4-.7.6-.9.5-.3-.2-.6-.3-1-.3h-1c-.1 0-.2 0-.2-.1 0-.3.1-.4.3-.4.4-.2.7-.5.8-.9.1-.2.2-.3.3-.4.1-.1.3-.2.5-.4.7-.9.7-1.5.1-1.7l-.6-.7c-.2-.3-.4-.4-.7-.5-.6-.1-.7-.5-.2-1.3.2 0 .3.1.5.3.1.2.4.2.8 0 .1-.1.1-.2.2-.3h-.1c-.5.2-.8.1-.8-.3s.2-.6.6-.6v-1h.3c.1-.4.3-.8.7-1.1.4-.3.9-.4 1.4-.2.1 0 .2 0 .2.1s.1.1.2.1c0 .1 0 .1.2 0 .1-.1.2-.2.2-.3 0-.8 0-1.4.1-1.7.2-.2.5-.2.8 0 .3.3.8.3 1.4 0 0-.2-.1-.3-.2-.4-.1 0-.2-.1-.2-.2-.4-.2-.5-.5-.4-.7.1-.2.3-.2.6-.3 0-.1 0-.1.1-.1s.1-.1.1-.2c0 .1-.1.2-.1.2s-.1.1-.1.2v-.2c0 .1-.1.2-.1.3h.2c.4 0 .7-.3 1-.7l.5-.5c.1-.1.2-.3.3-.5.1-.4.2-.6.5-.5.2 0 .4 0 .6-.1V47c0-.2 0-.3.1-.3.9-.5 1.4-1.1 1.7-1.9.1-.4.3-.6.6-.7.3-.1.6-.2 1-.4l-.4-.5c-.3-.1-.2-.3.1-.7.3-.5.5-.7.7-.5l.4.4c0 .1.2.2.4.4.3-.2.8-.3 1.2-.3.4 0 .9-.2 1.4-.4h.4c.8.2 1.7.1 2.5-.2.8-.3 1.6-.6 2.5-.8.3 0 .5-.1.7-.3.3-.3.8-.4 1.5-.4.4 0 .7-.3.9-.8.1-.5.2-.9.5-1.3.2-.4.4-.8.6-1.3.8.3 1.3.4 1.5.4.2 0 .7-.2 1.5-.6.2.5.3.8.5.9.1.2.4.3.8.5.4.3 1 .2 1.6-.3 0-.2-.1-.3-.3-.5-.2-.1-.2-.3-.1-.6.1-.2.1-.4-.1-.5-.2-.2-.3-.3-.4-.5h1.3c.2.2.4.5.6.9l.4.4c.1 0 .2.1.3.2-.2.2-.3.3-.3.5 0 .1-.1.3-.3.5 0 .1-.1.2-.3.4 0 .1.1.2.2.4s.3.3.5.3.3-.1.3-.3l-.3-.2c0-.1 0-.2.1-.2 0-.1.1-.2.1-.4.2.2.2.3.1.4v.3l.1-.3c.4 0 .6.24.4.7-.2.4-.4.64-.5.74-.2.1-.4.1-.5.1-.2 0-.3.1-.5.2l-.3.3.3.1c.3-.3.6-.4.9-.3.3.1.7-.03 1-.3.1-.1.3-.2.6-.2.2 0 .3 0 .4.1.1 0 .2.08.4.08.1 0 .3.2.5.4-.1.2-.1.5-.1.8.2.2.4.3.7.3.2 0 .4-.1.5-.3.2-.2.3-.4.4-.5l.3-.4c.4.2.6.1.7-.2h-.3c.1-.1.1-.2.1-.3l-.5.3c.1-.1.1-.3.1-.5.1 0 .2-.1.3-.2h1.1c.5-.2.8-.5 1-.8.2-.3.5-.5.9-.5 0 .4.2.5.6.3.5-.2 1-.4 1.4-.5l1.4-.3c.2 0 .4-.1.7-.3.2-.2.5-.4.9-.6.9.2 1.7.1 2.5-.3h.2s.1.1.2.1c0 .2-.1.4-.2.5-.4.2-.4.3-.1.3h.4l.3-.3c.2-.4.5-.5.7-.5.3 0 .5.27.5.7 1.6-.3 3.1-.7 4.5-1.3.7-.4 1.2-.9 1.6-1.4 0-.1.2-.2.4-.4 0-.1.1-.1.3-.1.3 0 .3.1.2.3 0 .2 0 .4-.1.46.4.4.9.4 1.3.1.3-.2.5-.3.7-.4.2-.1.4-.1.7.1.1.1.2.1.5 0l.6-.3.4.4.4.4c.3.4.7.3 1.2-.2 0 .3-.1.4-.3.4-.4.2-.5.4-.5.6 0 .2-.1.4-.2.6l.5-.23c.2 0 .4-.1.7-.2.4-.1.6.1.7.5.2.7.7.9 1.5.6.4-.2.8-.3 1.1-.4.4-.1.7-.3 1.1-.5.3-.1.6-.2 1.1-.2.1 0 .2.1.3.2 0 .3-.1.4-.3.4-.5.3-.9.7-1 1.3-.3.9-.9 1.6-2 2.2 0-.2 0-.3.1-.4v-.4c-.5.1-.8.2-.9.3-.1.1-.3.4-.5 1 .4-.2.7-.3 1-.4-.2.2-.3.4-.3.5l-.2.5c-.3.5-.7.8-1.3.8v-1l-.3.3c-.3.5-.7.8-1.3.8-.7 0-1.2.16-1.6.45-.5.3-.9.4-1.2.3v-1c-.1-.1-.2-.2-.4-.2 0 .2-.1.3-.2.4.2.3.1.5-.3.7-.5.2-.8.45-.8.74l-.3 1c1.1.5 1.8.8 2.1.8.3 0 1-.1 2-.4 0 .2-.1.34-.4.44-.2.1-.4.2-.4.4.7 0 1.4-.1 1.9-.3.4-.2.8-.3 1.1-.3h1.4c-.3.3-.5.5-.7.6l-4.4 1.9c-.2.1-.5.1-.8.2-.4 0-.7.1-1 .2-.4.1-.8.1-1.1.2-.4 0-.8.1-1.2.3-.3.1-.6.2-.9.2-.4.1-.7.3-1 .7-.4-.1-.8-.1-1 0-.3.1-.6.2-.9.2-1.4.2-2.8.4-4.2.8-.2.1-.4.2-.5.2-.2.1-.3.15-.4.25-.1 0-.1.1-.1.3-.2.13-.2.23.1.23.4 0 .6-.1.7-.2.2-.1.4-.2.5-.3 0-.1.1-.2.2-.3l1.3.5c-.4.6-.7 1-1 1.3-.3 0-.6-.1-.8-.2-.2-.1-.6-.04-1.1.2-.4.2-.7.3-1.1.2-.3 0-.7.1-1.2.4-.3.2-.6.3-.9.3h-.9c-.7 0-1.2.3-1.6.9-.4.2-.6.34-.7.44-.1.3-.2.5-.3.6-.1.1-.2.1-.2 0-.2-.3-.5-.4-.8-.4-.3 0-.7.1-.9.2-.9.2-1.5.6-1.9 1.14l-.8.3c-.2.6-.7.97-1.5 1.17-.5.1-.9.2-1.3.3-.4.1-.8.3-1.3.4 0 .1-.1.4-.3.8-.4.6-.8.7-1.1.3l-1.4 1.9c-.4.6-.5 1.2-.3 1.9.2.3.4.5.4.8-.4.4-.7.6-.8.7l-1.1.2c-.1.1-.2.3-.2.5 0 .1 0 .2-.1.2-.1.1-.1.2-.1.3.1 0 .2 0 .2.1 0 0 .1.1.2.1h1c.3 0 .7 0 1.2-.2.1 0 .3-.1.7-.3.4-.5.9-.8 1.6-.7.2.1.4.1.6 0s.5-.2.8-.3c-.2.1-.4.3-.6.5l-.5.5c-.1.2-.3.3-.5.4-.3.2-.6.3-.9.4-.3 0-.5.1-.7.2l-2.6.9c-.4.2-.7.5-1 .8l.4.5c.4.2.7.1 1-.2.5-.5.9-.7 1.1-.6.2.1.5 0 1-.3.2-.2.4-.3.7-.3.2 0 .3.1.5.3.1.2 0 .4-.1.6-.4.2-.6.3-.7.4-.2.2-.4.4-.5.6-.2.2-.2.3-.1.3h.9c.2-.1.4-.2.7-.2.3-.1.5-.2.7-.4.5-.4 1-.6 1.3-.6.3 0 .5-.1.8-.2h-.3l-.1-.1.1-.1h.4v.1c.8-.2 1.7-.6 2.5-1.3.1-.1.3-.2.4-.2l.2.1.1-.1h-.3l.2-.1c.1 0 .1 0 .2-.1s.1-.1.2-.1c.1-.1.2-.2.3-.4.4 0 .7-.1.9-.3.2.4.5.8.7 1 .4 0 .7 0 .9-.1.3-.1.5-.1.7 0 0-.1 0-.3.1-.5l.5-.4 1.8-.9c.7-.4 1.3-.6 2-.7.2.3.2.6-.1.9l-.6.8v-1c-.2-.1-.4-.2-.7-.2-.3 0-.5.2-.7.5l-.3.3c-.2-.2-.4-.2-.7 0-.3.2-.5.4-.7.6l-.2.2h-.1c.1.2.1.5-.1.9-.1.1-.4.5-.7 1 .4-.1.8-.2 1-.3.2-.1.7-.4 1.5-1-.2 0-.3-.1-.2-.3.1-.3.3-.5.7-.7.2-.1.4-.2.5-.4l-.1.3c.2.1.5.1.8-.1s.6-.2.8.1c-.4.2-.7.4-.9.5-.3.1-.6.3-1 .5l-.6.3c-.1.4-.2.9-.4 1.4.3 0 .5-.1.6-.3.1-.2.2-.3.4-.4.3 0 .5.1.5.3.1.2.2.4.4.6-.3.1-.5.2-.6.3.2.2.3.4.1.7-.2.1-.4.2-.4.3-.1.1-.1.2-.2.2-.5.2-.8.4-.8.6-.1.2-.1.5-.1.8.3-.2.5-.4.8-.5.2-.1.5-.2.8-.4.2-.2.4-.3.7-.4.3 0 .5-.1.7-.2.2-.1.5-.2.7-.3.3-.1.5-.2.7-.3h.3c-.1.2-.1.5-.1.7 0 .3-.1.5-.3.7-.2.2-.4.3-.6.2-.3 0-.5 0-.7.1l-.7.4c-.3.2-.6.3-1 .4v.5c0 .3-.1.5-.2.5-.6.2-.7.4-.1.6.5.2 1 .2 1.5.1l1.5-.3h.5c-.2.5-.5.8-.9.8-.5 0-.8.3-1 .7.4 0 .6 0 .7-.1l5-1.9h.4l-.2.2c0 .1 0 .1-.1.2s-.2.2-.3.2l-.3.2c-.2.2-.5.4-.8.5-.2 0-.5.2-.7.4-.4.2-.7.3-1 .4-.9.7-1.8 1.1-2.9 1.3-.7.2-1.1.5-1.2 1 .2.2.4.2.7.1.2-.1.4-.1.6.1h.1c.2-.5.4-.8.7-.8.2-.1.5-.1.8-.1.4 0 .7-.2.9-.6.2-.2.4-.2.7-.1.2.1.2.2.1.4-.1.1-.2.3-.2.5.3.1.6.1.9 0 .3-.1.6-.2 1-.4s1-.4 2-.8c.1-.1.3-.1.7-.1h.1c0 .1 0 .2-.1.3-.2.2-.3.3-.4.3-1 .4-2 .8-2.9 1.2-.9.4-1.8.9-2.8 1.6-.2.2-.3.3-.4.3-.4-.2-.8-.1-1 .2-.2.3-.6.5-.9.7-.4.2-.5.4-.5.5.1.1.1.3.1.5v.1l-1.3 1.3c.2.5.6.7 1.3.5l.9-.3-.3-.1c.3-.2.5-.2.6-.1.5-.2.9-.5 1.3-.8.3-.1.6-.2 1-.2.4-.1.7-.1 1-.2.1.1 0 .3-.3.6-1.7 1.2-3.2 1.8-4.7 1.9-.4 0-.7.1-1 .2-.3.1-.6.2-1 .3h-.5c-.2-.1-.5-.1-.7.1-.2.2-.5.3-.7.3-.3 0-.6.1-.8.3-.3.2-.5.3-.7.4l-.6.3c-.7 0-1.3 0-1.6.1-.5.1-1 .5-1.3 1.1-.2.2-.3.4-.3.5 0 .1-.2.3-.4.5-.2-.3-.3-.5-.3-.5 0-.1.3-.4.8-.9h-.3c-.5 0-.8.1-.9.4 0 .2-.1.5-.3.9 0 .2-.1.4-.1.5-.1.1-.1.2-.1.4h-.6c-.2 0-.4 0-.5-.1-.2 0-.4 0-.5.2-.2.2-.7.4-1.5.6-.3.1-.6.2-.8.2l-1.1.2c-.5.1-.9.3-1.2.5-.4.2-.7.4-1.1.6-.4.3-.6.8-.5 1.3l-.1.2c.1.1.3.1.5.2v.3l-.3-.2c-.2.2-.4.4-.6.5l-.2.1-.2.3c-.5.6-1 .9-1.6.9-.3 0-.5 0-.7.2l-.5.5c-.2-.2-.3-.4-.2-.6l.3-.5c.1-.2.2-.4.3-.7.1-.3.2-.6.4-1-.4.4-.6.6-.6.7-.2.5-.5.8-.9 1-.4.2-.8.4-1.3.6-.1.1-.2.1-.3.1-.1 0-.2.1-.4.2-.7.3-1.1.8-1.4 1.3-.1.2-.2.4-.2.7s0 .5-.1.7c-.2.6-.4 1.2-.5 1.8l-.2 1.5c-.2.5-.4.8-.5 1-.1.2-.4.5-.9 1 0 .1-.1.2-.1.2-.1 0-.1.1-.1.2-.4.6-.7 1-1 1.3 0-.1 0-.2-.1-.2v-.3l.3-.5c.2-.2 0-.3-.3-.4 0-.4.1-1 .3-1.8l.5-1.3.4.5c.4-.7.7-1.3 1-2 .2-.7.4-1.3.5-2 .1-.6-.1-.7-.6-.4-.1.1-.2.1-.3.2-.1 0-.2.1-.3.2-.1-.6-.3-1-.5-1.3l-.5.8-.6.6c-.3.3-.2.6.2.8l-.4.4c-.6.5-.8 1-.8 1.5s-.2.9-.6 1.3c-.5.6-.5 1.2-.2 1.9.2.1.5.1.7 0 .2-.1.5-.1.7.1-.5.5-.9.8-1.1.8l-1 .2.3.7.3.7c0 .2 0 .4-.1.7-.1.3-.2.5-.3.7-.2.5-.3 1-.3 1.3l-.3 1.3c-.2.5-.3 1-.3 1.4 0 .4-.2.9-.6 1.3 0 .2 0 .4-.1.5-.2 1.5-.4 2.9-.5 4.4l-.6 4.4h.8c.2.4.3.8.2 1.3 0 .3 0 .5.2.6l.1-.2h.4v.1l-.1.2h-.3c.1.1.3.2.6.3.4-.2.9-.4 1.4-.7.5-.3 1-.4 1.5-.4l.6-.3c.8-.6 1.4-.9 1.9-1.1l.8-.5c.3-.1.6-.3.9-.5.1-.1.3-.2.7-.4.2-.5.5-.8.9-1.1.4-.2.8-.4 1.3-.6.1-.1.2-.2.3-.2.1-.1.2-.1.3-.2 1.2-1 2.4-1.9 3.6-2.9l3.6-2.8c.8-.6 1.3-1 1.6-1.3.6-.6 1.1-.7 1.6-.4l.5-.4c.4-1 1.1-1.6 2.1-1.9.8-.3 1.5-.6 2.3-1 .7-.4 1.4-.9 2-1.6.4-.2.6-.3.7-.4.4-.2.7-.4 1.1-.6.3-.2.6-.5.8-.9.4-.4.7-.6.9-.6.2 0 .4-.2.6-.6.1-.4.5-.9 1.3-1.3.3-.1.6-.1.8-.2.3 0 .5-.2.7-.5.2-.2.4-.3.6-.2.2.1.4-.1.5-.4.1-.2.4-.5.8-.9.2 0 .3 0 .4.1s.2 0 .4-.1l1.1-1.1c.4-.3.8-.7 1.3-1.1.1-.2.1-.4.1-.7 0-.3.2-.5.7-.7 0 .1.1.3.3.4.2-.1.5-.2.7-.2.3-.1.6-.1.8-.1-.1.2-.2.4-.3.5-.1.1-.2.2-.3.4.5.2.5.5.1.9s-.5.7-.3 1c.9-.3 1.3-.8 1.3-1.6l.4-.4c.1 0 .2.1.3.1.1.1.2.1.4 0l.5-.5c.2-.1.3-.2.5-.2-.1.4-.1.6-.1.7l.8-.3c0 .4 0 .7.1.9.3-.2.5-.2.5 0s.1.4.3.5c0 .2.1.2.5 0h.1l.3-.6c.4-1 .5-1.6.3-2-.1-.2 0-.5.2-.9 0-.2 0-.4.1-.5 0-.2 0-.3-.1-.5-.2-.3-.2-.6-.1-.9.2-.3.3-.6.5-.9.2-.2.4-.3.5-.4l.5-.2c.3-.4.4-.7.2-1 0-.2-.1-.3-.2-.4-.1 0-.2-.1-.1-.3 0-.4.1-.9.3-1.7.2-.6.4-1.1.4-1.6.2.4.3.7.2 1-.1.3-.2.5-.3.7-.1.2-.1.4-.1.5 0 .1 0 .3-.1.5 0 .2.1.3.3.3l.2-.1c0-.5.1-1 .4-1.5.3-.5.4-1.1.4-1.5 0-.2.1-.4.34-.7.2-.3.3-.5.2-.8 0-.4.2-.9.6-1.5.2-.4.3-.7.4-1.1.1-.3.1-.7.1-1.2 0-.4.2-.9.7-1.3.1-.2.2-.4.3-.5.1-.1.2-.3.3-.5-.2-.5-.2-1-.1-1.5.16-.5.3-1 .5-1.4.2-.6.3-1 .4-1.1.4-.7.3-1.1-.3-1.4-.4-.2-.3-.4.3-.6 0-.3.1-.7.2-1.3.3-.5.4-.8.3-.9-.2-.5 0-1.2.4-2 .2-.4.3-.7.2-1v-1c-.2-.2-.4-.2-.6-.1-.3 0-.5 0-.6-.1-.1 0-.1-.1-.1-.4.1-.2.2-.5.2-1 .1-.2.1-.4.1-.5-.1-.2-.1-.3-.1-.5.1-.1.2-.2.3-.2.1 0 .2 0 .4-.1.1-.1.2-.2.2-.3l.3-.3c0-.2-.1-.2-.2-.2-.1.1-.3.1-.4 0 0-.3.1-.6.4-.8.4-.5.8-.9 1.3-1.3s.8-.8 1.1-1.3l.6-.6.6-.6c.4-.3.6-.6.6-1 .1-.6.5-1.2 1.2-1.9.4-.3.5-.7.3-1-.3-.3-.3-.6-.2-.9l1.2-4.1 1.1-4.2.4-.9c0-.8.4-1.6 1.1-2.3.1 0 .3-.2.5-.7.2-.4.5-.5.9-.5l.4-.4.4-.9c.3-.5.7-.6 1.2-.4.3.2.6.4.8.5.3.1.4.4.5.7 0 .2.1.3.3.3.3 0 .4-.1.4-.3l.1-.2c.04 0 .06-.1.06-.3.4.1.5.3.4.6s-.1.5.2.6c.4-.9.7-1.7.8-2.6.1-.8.1-1.7 0-2.6.3.2.5.3.6.3l.4.2c.3.2.5.4.5.5.1.1.1.4.1.8.3-.1.5-.2.5-.4l.2-.5c.3-.3.5-.4.6-.4.5 0 .9-.2 1.3-.5.3-.2.7-.4 1.2-.4.6 0 1-.4 1-1.1.1-.2.1-.3.1-.4-.1-.1-.1-.2-.1-.4s-.1-.4-.2-.7c-.1-.2-.07-.5.1-.9.2-.2.3-.4.3-.7s.1-.5.3-.8c.2-.3.3-.6.4-.9 0-.4.1-.7.3-1.1.6-.3 1-.3 1.4 0l.5.9h.3l.3-.3c.1-.3 0-.6-.1-1l-.4-.5-.5-.5.9-.6.8-.6c.2 1 .3 1.9.4 2.8.1 1 0 1.9-.2 3-.1.2-.1.4-.2.7 0 .2-.1.5-.3.7-1.1.8-1.3 1.7-.9 2.6.3.3.3.7.1 1.3-.2.5-.1.8.3.8.3.1.3.3.3.5-.1.2 0 .5.1.7h1c.1 0 .4.2.8.6.2-.2.5-.6.9-1.1.3-.6.6-.9.7-1 .9-.4 1.6-.7 2-.9.5-.2.9-.3 1.4-.4.4 0 .9-.2 1.3-.3-.8.4-1.3.7-1.6.9-.3.2-.6.4-.8.5l-.5.3c1-.1 2-.4 3.2-.8.8-.3 1.7-.6 2.6-.8.9-.2 1.9-.4 2.8-.5.3 0 .7-.1 1.3-.3.2.2.1.5-.3.9l-.1.1c.4.4.8.5 1.2.4l1.4-.3c.5 0 .8-.2.9-.6h-2c0-.2.1-.4.2-.4.2-.1.3-.2.4-.3.6-.2 1.1-.4 1.5-.5.5-.2.7 0 .7.4 0 .3.3.4.7.4.6-.2 1.1-.3 1.5-.2.4.1.8.2 1.3.3 1 .3 2 .2 3-.3.2.6.6.8 1.2.6.5-.1.8 0 1.1.2.2.3.4.5.6.8-.5-.1-.8-.1-.8-.1-.1.1-.2.3-.4.7v.4c.2.2.4.5.6.9.2-.4.3-.8.3-1.3.3-.2.5-.3.6-.2.1.1.3.2.5.3.3.3.7.4 1 .3.2.1.2.3.2.4h-.2s-.1.1-.2.1c-.5.2-.7.3-.7.4 0 0 .1.2.3.5.1.1.2.3.2.6-.2.4-.2.6-.1.8l.3.6.3.6.3.6c.1.3.1.8.1 1.3l.8-.3c.1 0 .1-.3.2-.6.1-.1.2-.2.2-.3.3 0 .5-.1.5-.3-.1-.7.3-1.4 1.1-2.1.5.2.7.5.6 1-.2.4-.3.8-.4 1.1-.1.3-.3.6-.6.9-.5.3-.8.6-.8 1-.2.4-.3.7-.4 1.1-.1.3-.3.7-.6 1.1-.2.2-.3.4-.2.6s0 .5-.1.7l.3.3c.5.1.6.3.4.7 0 .2-.1.4-.3.6-.9.6-1.2 1.2-.8 1.9.2.3.2.6.1 1l-.5 1.7c-.1.6-.3 1.1-.5 1.7l-.4 1.4c-.4.6-.6.9-.6 1.1v.8c-.1.4-.4.9-.8 1.7 0 .3-.1.7-.4 1-.4.5-.7.9-1 1.4-.3.5-.6 1-1 1.5-.4.3-.7.7-.9 1.1-.3.4-.6.7-1 1.1-.3.4-.5.7-.6.7-.5.1-.8.2-.8.4l-.2.7c-.2 1.1-.8 1.7-1.8 2-.4.2-.7.6-.9 1v.4c-.2 0-.4 0-.5-.1-.1-.1-.2 0-.4.3 0 .4-.2.6-.6.6.2.2.4.5.6.9l-1 1c-.2.4-.5.5-.8.3-.1 0-.1 0-.1.1s-.1.1-.2.1h-.3c0 .3-.1.6-.4.8-.3.2-.4.4-.3.7-.7.2-1 .5-1.1.8-.3.7-.7 1.3-1.2 1.8-.5.6-1 1.1-1.5 1.5l-2.1 1.7-2.2 2.2c-.4.4-.6.9-.6 1.5-.2 1-.4 2.1-.5 3-.2 1-.2 2-.2 2.9.1.2 0 .5-.2.9 0 .2-.1.4-.1.5-.1.2-.1.3-.1.5.1.5.2 1 .2 1.5.08.6.1 1.1.1 1.6 0 .9-.1 1.7-.2 2.2-.1.2-.1.4.1.7.1-.2.2-.3.3-.4.1-.1.2-.3.3-.5.2 1.2.1 2.1-.3 2.9-.2.4-.3.6-.2.7.2.3.4.6.3 1 0 .4 0 .8.1 1.2 0 .3-.02.6-.1.9 0 .3.18.5.5.7-.2.5-.2.9 0 1.3s.4.8.5 1.3c-.1.1-.2.28-.2.47-.2.3-.4.6-.7.8-.2.3-.2.6-.03 1 0-.3.1-.6.4-.8.3-.3.4-.6.3-1 .2.4.3.8.3 1.2 0 .4.1.9.3 1.3.1.5.1.9 0 1.3l-.2 1.3c0 1.9.1 3.8.4 5.5.2 1 .3 1.7.3 2.2.1.7.2 1.3.2 1.9v2c.2 1.3.4 2.6.5 3.9.2-.3.3-.6.3-.9l.3-1.1c.2-.4.3-.8.34-1.1 0-.3.2-.7.3-1.1v-.3c.4-.6.7-1.1.8-1.7 0-.6.1-1.2.2-1.8.4-.8.6-1.4.7-1.8.1-.2.2-.4.3-.7.1-.3.1-.5.1-.7 0-.8.2-1.6.5-2.4.3-.9.5-1.7.6-2.4.1-.6.3-1.2.68-1.7s.6-1.1.8-1.7c0-.1.2-.2.6-.4.1-.3.1-.4-.1-.4-.3 0-.4-.2-.2-.6 0-.2.1-.5.3-.9.3-.3.4-.7.3-1.1.1-.1.1-.2.1-.4.5-.8.8-1.5 1-2.2.2-.7.4-1.4.7-2.2l.5-1.2c.1-.3.4-.6.8-.9.3-.3.5-.6.6-.7.1-.5.2-.9.3-1.3.1-.4.2-.8.4-1.3v-1c-.2-.2-.2-.57 0-1l.42-2c.2-.5.2-1.06.1-1.5-.1-.1-.1-.2 0-.3.1-.1.2-.26.2-.46.2-.5.5-.9.7-1.3.3-.4.5-.8.7-1.3.2-.5.4-.9.4-1.3.1-.4.2-.9.4-1.3l.8-2.2c.2-.7.5-1.4.9-2.2.2-.5.4-.9.6-1.3.2-.4.3-.9.2-1.3 0-.2.1-.4.2-.5.1-.1.2-.2.3-.4.5-.8.9-1.5 1.1-2.3.2-.8.5-1.5.8-2.3.1-.1.2-.2.2-.4-.1-.8.1-1.6.7-2.5V67c0-.7.3-1.4.8-2.2.2-.3.24-.6.2-.9-.06-.3.1-.6.35-.9.2-.1.3-.3.3-.55 0-.5.2-.9.6-1.3.3-.3.4-.55.4-.75.4-1.07.8-2.1 1.3-3.06.5-1 .8-2 1-3.08h.3c.2-.44.3-.95.4-1.5.1-.5.3-1.02.7-1.5.1-.1.1-.24.1-.44.2-1.08.5-2.07 1.1-3 .5-.9.9-1.9 1.2-3 .1-.3.3-.74.7-1.3l.9-1.76c.2-.3.3-.6.4-.88.1-.3.2-.6.4-.9 0-.1.05-.2.1-.25.1-.03.1-.1.1-.2.2-.96.6-1.9 1.1-2.83.5-.9.9-1.9.9-2.88.3-.5.5-1 .5-1.4 0-.47.25-.9.7-1.4.1-.5.3-1 .6-1.57s.55-1.07.7-1.56c.2-.3.3-.6.3-.9 0-.3.1-.6.3-.9.2-.3.3-.6.3-.9-.02-.3-.1-.6-.1-.9.1-.1.1-.3-.1-.5-.5.2-.7.4-.8.4v.8c-.3.1-.6.2-.9.2-.33.1-.64.1-.93.2-.2.1-.4.1-.7.1-.3 0-.6.1-.9.3V25c-.5.02-.6.22-.4.5v.3c.1.05.1.2 0 .3s-.2.2-.3.2c-.5 0-1 .1-1.6.2-.6.2-1.1.26-1.6.26h-.3c.5-.5.9-.8 1.1-1 .2 0 .4 0 .5.08.1.08.2.1.4.1s.4-.2.6-.56c0-.38-.2-.43-.5-.14-.4.2-.6.4-.7.6-.2-.2-.5-.26-.9-.17-.3.1-.7.2-1 .2h-1c-.4 0-.7.2-1 .6-.7-.1-1.4.1-2.3.6-.8.5-1.5.7-2 .7-.6 0-1.1-.1-1.6-.3-.5-.1-.9-.1-1.3 0-.3.1-.6.12-1 .1-.4-.08-.7-.1-1-.1-.4 0-.6-.15-.6-.44-.2-.3-.4-.5-.6-.7-.2-.2-.3-.5-.2-.9 0-.1-.1-.2-.2-.2-.1-.1-.2-.1-.3-.2-.2.2-.3.3-.3.4-.1.1-.2.2-.4.3-.2.2-.4.3-.6.3-.5-.1-.9-.16-1.4-.16-.4 0-.8-.2-1.2-.47.4-.4.8-.6 1.3-.6.7 0 1.2-.3 1.6-.88h.1l-.2-.18c-.2.1-.5.2-.8.27-.3.1-.5.1-.7.2-.1-.2.1-.5.5-.9.2-.4.3-.7.2-.9V22c.1-.4-.1-.68-.6-.88l.4-.4c0-.1.1-.3.3-.5-.3-.3-.6-.4-.9-.2-.2-.1-.2-.2-.1-.3-.2-.25-.3-.55-.4-.84-.1-.3-.4-.4-.9-.3.6-1.05 1-1.7 1.3-1.9.3-.2.8-.3 1.6-.3-.3.2-.6.45-.8.7-.2.23-.5.45-.9.64.3.3.5.4.6.4.5-.2.9-.47 1.3-.76.4-.3.8-.6 1.3-.86-.3-.1-.6-.14-1-.14.2-.1.3-.2.3-.3 0-.1.1-.2.2-.3.5-.2 1-.38 1.6-.58.6-.3.6-.7.3-1.18l-.2-.16c.5-.2 1.1-.5 1.9-.9.2-.4.1-.6-.1-.6-.3 0-.4-.1-.4-.25v-.2c.2-.2.4-.4.7-.5.3-.2.5-.3.8-.4.9-.3 1.6-.4 2.3-.3.7.1 1.4 0 2.2-.3.4-.2.8-.3 1-.3.3.1.6.1.9 0 1.6-.5 3.1-.9 4.6-1.3s3-.6 4.6-.6c.2 0 .5-.1.8-.3.5-.4 1-.5 1.4-.5.5 0 .9 0 1.4-.2.5.3 1 .3 1.6.1.6-.2 1.2-.3 1.7-.4.8-.1 1.6-.3 2.3-.5.8-.2 1.6-.3 2.4-.4 1-.2 2.1-.3 3.2-.4l3.2-.3c.9 0 1.7-.1 2.1-.2.8-.2 1.5-.4 2.3-.5.8-.2 1.5-.1 2.3 0 .4.2 1 .2 1.7 0s1.4-.4 2-.5c.7-.1 1.3 0 1.9.2.4.1.8.1 1.2 0l1.2-.3c.6-.2.7 0 .6.5.2 0 .4 0 .6.1.2 0 .3 0 .5-.1h-1c.2-.5.6-.8 1.3-.8.4 0 .8 0 1.1-.1l1.1-.1c.7-.1 1.5-.2 2.4-.2.9-.1 1.8-.1 2.7-.2.1-.2.3-.4.4-.6.2-.2.3-.4.5-.6h3.6c.4 0 1-.1 1.8-.3.8-.1 1.5-.2 2.1-.3.7-.1 1.3-.3 2-.5.5-.2.7-.4.7-.7.1 0 .2 0 .2.1h.3l.3-.1h-.2c-.2 0-.4-.1-.6-.2l.6-.3c.6-.1 1.2-.2 1.8-.2.6-.1 1.2-.2 1.8-.4.5-.2.8-.2 1 0 .7.3 1.4.3 2.2.1h.9c.8-.2 1.3-.1 1.5.4 0 .2.1.3.3.3.8.4 1 1.2.4 2.5-.1.1-.2.5-.2 1.1h1.3c.2-.2.3-.3.4-.5.1-.1.2-.2.4-.3.5-.2.8-.2.8 0-.1.5 0 .7.3.8l.9.3c.2.3.3.6.2.9-.1.4.1.6.6.8-.9.4-1.8.8-2.9 1l.9.5c.9.9 1.9.8 3.1-.1.4-.4.6-.4.8 0 .1.5.4.8 1 .8.4 0 .7.1.9.3.2.1.5.2.8.2.4.1.7.3.7.8 0 .4-.3.8-.7 1.1zM414.3 144h-.14c-.38.5-.53.9-.43 1.18l.3.9c.37-.9.47-1.55.28-2.03zm-36.9-9.85h-.27c0 .08.02.16.07.2.08.05.1.13.1.22h.15v-.46zm.86-3.8c0 .1-.03.18-.07.23-.1.1-.1.16-.1.26v.43c0-.1 0-.2.1-.24v-.64zm.58 11.77v.43c0-.2.04-.33.14-.43 0-.2.03-.34.13-.44-.2.2-.3.38-.3.48zm2.9 1.9c-.1 0-.18 0-.22.06-.06.1-.18.1-.37.1h-.6c-.37.5-.47.86-.28 1.1l.58.65.3-.3.43-.42c.3-.3.3-.6.12-1.1zm.57 1.73l-.1.14-.1.1h-.1l-.1.1c-.1.1-.2.2-.2.3.1.2.4.3.9.1-.1-.2-.1-.5-.1-.9zm-47.6-2.33l-.4.44c0 .1 0 .14.1.2.1.04.1.1.1.2.2-.1.4-.2.6-.4 0-.1-.1-.26-.2-.46zM400.9 39.8l-.14-.3c-.2 0-.3.1-.3.3h.43zm-3.9.43h.43l.16-.3-.2-.12h-.4l-.2.3.1.2zm0-.8l.43.23c0-.1.06-.17.16-.22.1-.03.1-.1.1-.2v-.22c0-.05.1-.17.1-.36l-.3.14-.5.23c-.2.04-.3.1-.5.2.2.1.3.18.4.2zm-3.05.1h1.3v1.6l.3-.3c.47-.5.7-.9.64-1.24-.1-.4-.2-.7-.4-1-.1-.2-.4-.3-1-.4-.5-.1-1 0-1.2.2-.2 0-.3.1-.3.3-.2.5 0 .7.5.7zm-.73-2.05c0 .1.05.15.15.15.2 0 .4-.07.6-.22.2-.1.26-.2.16-.3l-.42-.3v.2c-.2.1-.4.3-.5.5l.2.2zm-4.27 10.67c-.06.05-.1.13-.1.22l.1-.23zm-5 .66c.1-.1.24-.3.43-.7l-.13-.1c-.1.1-.2.2-.4.2l-.36.3c-.2.2-.3.4-.4.7l.8-.2zm-2.9-9.4c.3-.2.54-.4.73-.7l-.13-.3c-.3.1-.67.3-1 .5 0 .5.1.7.4.6zm-.86 12.4l.1-.1h-.2l-.2.2h.1zm-1.8-12.5h.8l.1-.3h-.4c-.1 0-.2 0-.3.1 0 .1-.1.1-.2.1v.2zm-3.4 2.5h.1c.6-.2 1.1-.3 1.5-.2l.1-.1c0-.1.1-.2.3-.4h-1.8c-.3 0-.5.2-.5.4s0 .4.1.5zm-6.7 0h-.2v.2h.1v-.1zM369 58l.58-.3c.2-.18.06-.28-.42-.28-.5 0-.87.2-1.16.57h1zm-3-15.8V42l-.15.15h.14zm-1.17-.57c.1-.1.15-.23.15-.43h-.15c0 .2-.04.34-.14.44h.1zm14.2 28c-.06 0-.1 0-.15.03-.08 0-.13.06-.2.1.12-.04.23-.1.33-.17zM377 78.2h.14V78H377v.15zm-.15-5.3c.3.04.58-.27.87-.95-.3.1-.63.27-1 .46-.2.1-.35.2-.45.2-.1 0-.24.2-.43.5.38-.1.72-.1 1 0zm-4.05-5.16l.14-.43c-.1.1-.14.3-.14.5zm.72 1.75c-.1 0-.24.1-.43.3l-.2.2c.1.4.2.5.5.5.2-.1.5-.1.9-.2-.2-.6-.5-.9-.9-.9zm.73 3.6c-.4.2-.73.3-1.02.4v.3c.1 0 .15 0 .15.1s.04 0 .14 0c.2-.1.4-.3.58-.5l-.14-.3.3-.2zm-1.9 10.6c.4.1.78-.1 1.17-.5.2-.2.4-.4.58-.5.18-.1.28-.3.3-.6-.24 0-.45 0-.66.2-.34.3-.7.4-1.1.4-.28 0-.42.1-.42.4 0 .2.05.3.14.3zm-.7-2.9l.42-.2h-.43v.1zm.42-6.9h-.14c-.68-.2-1.06.1-1.16.8.48-.2.92-.5 1.3-.9zm-3.18-1.2c.1-.2.2-.4.2-.6-.2-.2-.4-.3-.6-.3-.4.2-.7.3-.8.4-.2.1-.3.2-.2.3 0 .1 0 .2-.1.3l.1-.2-.2.3c.3.1.8 0 1.3-.3zm-1.8.3h.3l.1-.2h-.5v.2zm-6.1-1.9c.2.2.3.3.5.3s.4.1.6.3l.4-.1V71c0-.2-.1-.3-.3-.3-.4 0-.9.1-1.5.3l.1.16zM347.4 47c.23.06.54-.06.93-.35l.58-.3c.7 0 1.3-.33 1.6-1 0-.1.1-.18.3-.23.2-.04.4-.07.6-.07.6 0 1-.1 1.2-.3l.2-.13.2-.15c-.2-.2-.3-.34-.3-.43h-.3c-.4.3-.7.46-1.1.5-.3.05-.6.18-.9.37-.4.4-.8.6-1.1.6-.3 0-.6.1-1 .3-.2.1-.4.2-.6.4-.2.2-.4.3-.8.5h-.3c.5.2.9.4 1.1.4zm-.6 51.1c-.04-.33 0-.7.08-1.08-.38.68-.6 1.12-.65 1.3-.05.2-.07.54-.07 1.03.48-.5.7-.9.65-1.24zm-2.1 7.63c.1-.2.16-.36.16-.5 0-.1.03-.23.08-.35-.33.03-.4.3-.23.85zm12.32 25.4h-.15v.15h.44l-.2-.14zm4.5-.87c-1.08 0-1.9.5-2.48 1.46h.3c.2 0 .3.05.36.14.04.1.12.05.2-.14.2-.1.4-.24.6-.44.1-.1.2-.17.35-.22.15-.04.27-.12.36-.2.3-.3.4-.5.3-.6zm6.72-6.16l-.5.2v.3c.38 0 .7-.24 1-.72-.2.1-.36.17-.5.22zm3.83-3.13l-.14.3h.3c.08-.1.18-.17.28-.22.1-.05.2-.12.3-.22-.3-.3-.5-.24-.7.14zm4.2-4.35c-.2 0-.3.1-.3.3-.18.1-.28.23-.28.43v.14c.2 0 .3-.1.5-.3v-.2l.1-.2c0-.2-.1-.3-.2-.3zm3.33-4.8c-.3-.18-.53-.1-.72.3h.3v.3c.18.2.37.1.57-.3 0-.2-.05-.3-.15-.3zm7.24-6.96c.1-.1.15-.24.15-.43l-.2.43zm1.74-2.6c0 .18.12.33.36.42.24.1.12.34-.36.73v1.1c-.3.8-.5 1.5-.65 2.3-.15.7-.6 1.4-1.38 2-.77.5-1.4 1.2-1.88 2.1 0 .3-.05.6-.15.7 0 .3-.1.5-.28.5-.5 0-.87.2-1.16.5-.3.3-.63.5-1.02.6-.48.4-.9.7-1.23 1.1l-1.08 1.1v.3c.1.2.33.4.72.6.48-.1.82-.4 1-.8.1-.3.35-.5.74-.6 1-.2 1.4-.7 1.2-1.4 0-.5.3-.7.9-.7l.2-.4c.7-.5 1.3-1 1.9-1.5l.7-.5.4-.8 1.5-3.2c.4-.7.7-1.5.9-2.3.2-.7.2-1.4 0-2.2l-1 1zm.72-2.92c0 .2-.05.34-.14.44h.14l.24-.1c.03-.28.1-.58.2-.9l-.44.56zm.72 40.07c0 .1-.04.2-.14.2s-.05.1.14.2v-.3zm10.14-23.8H400v.2h.16v-.1zm1.16-54l-.15-.1c-.3 0-.53.2-.72.6 0 .1.1.3.3.5v-.1l.28-.1h-.15c.2-.2.4-.3.58-.4-.1 0-.14 0-.14-.1zm.43 5.1c0-.4-.05-.6-.14-.6-.1 0-.2.1-.2.2-.2.2-.2.4 0 .5.1.1.3.2.5.2v-.1zm7.38 34c.1 0 .25-.1.44-.4-.3.2-.44.4-.44.5zm1.3-24.1c0 .1-.1.3-.28.5v.5h.3l.13-.1c0-.2.05-.3.15-.4l-.3-.3zm43.88-40.2c-.2-.2-.2-.3-.2-.4-.2.3-.1.5.3.5zm-3-.4l-.1.2h.5l.2-.1h-.4zm.9 1.8v-.1c0-.1-.1-.2-.3-.4 0 .1 0 .2-.1.3 0 .1.1.3.3.5l.2-.1zM450.9 60c.18 0 .28-.04.28-.14.2-.2.3-.34.3-.44 0-.1.1-.24.2-.43l.3-.3h-.45c-.37.4-.6.6-.7.8 0 .2.05.3.14.4zm-1.6-22.93h.43c.1-.1.1-.24 0-.44-.1.1-.24.15-.43.15v.3zm-.56-1.74l-.02-.15-.3.15h.32zM447.7 64.8h.13v-.44h-.15v.44zm-26.16 90c.1-.27 0-.38-.2-.3-.3.1-.5.06-.5-.14.2-.48.3-.75.3-.8 0-.05-.1-.17-.3-.36-.1.3-.15.56-.2.8-.03.24-.1.5-.2.8h1.07zm-6.6-8v.16c.1.2.1.4.1.65s.18.5.47.7c.3-.6.3-1-.1-1.3 0-.1-.1-.1-.4-.1zm-2.26-30.1c.16.43.23.94.23 1.52.4-.78.5-1.38.4-1.82l-.3-1.18c-.3.6-.4 1.08-.2 1.47zM411.3 77l.15.28v.14l.44-.43v-.2c-.2 0-.4 0-.6.1zm1.45-3.5h-.43c-.48.2-.58.5-.3.88h.16c.1-.2.28-.44.57-.73v-.15zm10.72-46h-.15c0 .18-.05.33-.14.42l.3-.3v-.13zm1.04 25.15l-.9.4c-.4.18-.5.38-.1.57.4.4.8.43 1.2.14.1 0 .3-.1.5-.3-.2-.17-.3-.45-.5-.8zm3.1-2.65h-.3c-.1 0-.1 0-.2.1-.1.3-.2.6-.2.9 0 .3-.2.5-.5.7-.1.1-.2.32-.4.7.2.1.4.18.6.2l.5.2c.2-.55.4-.87.5-.96.4-.6.5-1.2.3-1.9zm3.4-15.4h-.4.2c.1.06.2.1.3.1.1 0 .2-.05.3-.15h-.3zm4.2.1c-.3 0-.4.13-.4.42.2.2.4.3.5.3.8-.2 1.3-.5 1.6-.96-.3-.17-.9-.1-1.5.23zm2.8 16.1v.2l.3-.16h-.3zm.9-16.48c0 .05.1.08.2.08s.3-.1.5-.3c.1 0 .2 0 .2-.06.1-.05.1-.08.2-.08h-.4v.13h-.5s-.1 0-.1.1 0 0-.1 0h.2zm-6.6 30.5c.1-.16.2-.28.3-.38.6-.4 1-.83 1.3-1.3.3-.5.7-.98 1.2-1.46.7-.87 1.1-1.74 1.3-2.6.1-.9.5-1.8 1.2-2.77l.9-1.3c.2-.3.2-.5 0-.6-.2-.1-.2-.3-.1-.5 0-.1 0-.2.1-.2s.1-.1.1-.2c0-.4-.1-.9-.3-1.3-.1-.4-.5-.6-1.2-.6-.6.1-1.1-.1-1.3-.4.2-.2.4-.3.5-.3l.5-.2c.1-.1.2-.1.2-.2l.2-.2c-.1 0-.1 0-.2-.1h-.2c-.7.4-1.4.3-1.8-.3l.3-.7c.3 0 .5-.2.7-.5.1-.3-.1-.4-.7-.4-.6.2-.9.6-.9 1 0 .3-.1.7-.3 1.1-.1.1-.2.1-.3.1-.1 0-.2.1-.3.2 0-.1 0-.1-.1-.2-.1 0-.1-.1-.1-.2l.4-.9h-.5c0 .1 0 .2-.1.3s-.1.1-.1.2c-.1.5-.6 1-1.5 1.3-.4.3-.9.3-1.3-.1-.1-.1-.3-.1-.5-.1l-.5.8-.6.7c0 .3.1.5.2.6h.7c.4 0 .5.2.4.4-.9.2-1.8.5-2.7.8-.9.3-1.9.6-2.8.9l-.9.3c-.3.1-.6.1-.9-.1-.2-.1-.4 0-.6.1-.2.2-.3.3-.3.5.1.5-.1 1-.6 1.5-.6.4-.9.7-1.1.9l-.4 1.3c-.1.3-.2.7-.2 1.3-.2.2-.3.3-.3.4l-.4.9c-.2 1.3-.6 2.5-1 3.3-.3.5-.4 1-.3 1.3.2.5.1 1-.3 1.5.2.4.1.8-.2 1.1-.3.3-.4.7-.4 1.1-.1.5-.3.9-.5 1.4-.2.5-.5.9-.8 1.4-.2.3-.3.7-.3 1.2 0 .3-.1.6-.2 1l-.4 1c-.3.2-.4.3-.3.4 0 .1.1.3.1.5l-.3 1c-.1.4-.1.7-.1 1.1l-.6 2c-.2.7-.5 1.3-.6 2l-.4 1.3c-.1.5-.1.8 0 .9.1.1.3.3.8.6.4-.2.7-.4 1-.7.3-.3.7-.6 1.1-.8l1.1-.8 1-.7c1.2-.5 2.2-1.4 2.7-2.6l.9-1.1c.3-.3.7-.6 1.2-.7.4-.2.8-.6 1.2-1.2.4-.6.7-1 1-1.2 1.3-1.3 2.5-2.6 3.7-3.8l3.7-3.7c.9-.8 1.4-1.7 1.7-2.4.1-.2.2-.4.2-.5zm8.7 81.93v-.3c-.1-.1-.1-.2-.1-.3l-.1-.1-.4.1c-.1.38-.2.66-.1.85.1.04.1.05.2.05.2 0 .4-.1.6-.3zm-3.8-10c0 .1.1.2.1.3.1-.15.1-.25 0-.3zm2.6-10.46v.4h.2c0-.1 0-.2.1-.2.1-.1.1-.1.1-.2h-.2zm4.8 19.9l.3-.3c0-.2-.1-.3-.3-.3l-.3.1c0 .1.1.2.3.4zm2.2-5.1c-.2.2-.1.3.3.3l.2-.2c0-.6.2-1.2.5-1.8v-.4l.2-.6c-.7 1.1-1 1.9-1 2.6zM454 16.2h-.17v.15h.17v-.14zm23.05 49c-.1.1-.17.24-.17.44h.13c0-.2.1-.34.2-.44h-.1zm4.46-6.97c0 .1 0 .2-.1.3.1.1.3.14.5.14v-.5h-.3zm6-14.8c-.1.1-.2.24-.2.43 0-.1.1-.25.3-.44h-.1zM492 29.5c-.1.2-.2.4-.2.5-.1.2-.2.4-.4.6-.5.42-.8 1-1 1.7-.3.3-.3.4.1.4.1 0 .24-.2.43-.58.2-.2.37-.24.5-.2.1.04.17.05.26.03.2-.64.4-1.06.4-1.25 0-.2 0-.54-.2-1.12zm2-5.2v-.1l-.5 1c-.2.3-.3.6-.5.82.33.2.62.34.82.43.58-.8.6-1.5.15-2.2zm-83.7 76.5l.44-.3-.47.3zm-36.7-59.6l.06-.08-.06.2v-.16zm-.6 25.5h.16l-.1.04-.06-.06zm83.53-32.1l-.12.06v-.04h.2zm-63.4 0c-.6.2-1.03.26-1.32.17.2-.4.4-.6.7-.67l.8-.26c.1 0 .2.1.2.3 0 .1 0 .15-.1.2-.1.04-.1.12-.1.2zm-5.7 2.55c-.05-.06-.1-.13-.1-.2 0-.2.1-.3.3-.3l.28.16c-.1.1-.2.2-.3.2l-.1.2zm-.1.1l.1-.04s0 .1.04.1h-.1zm-16.94 3.2v-.1l-.5-.2c-.1-.07-.3-.2-.5-.4l1.4-.7c-.2.3-.3.53-.4.8-.1.22-.1.44-.2.63zM322.8 76h.46v.15h-.43V76zm-79.14 47h.14l-.1.15V123zm3.18-11.82c0-.05.05-.12.15-.22 0 .2 0 .34-.1.43l-.1.4c-.1.1-.2.2-.2.4h-.2v-.5c0-.1.1-.3.1-.5.1-.1.1-.2.1-.2zm66.38-51.25l.36-1.1c.3.5.3 1.03 0 1.6 0 .17-.1.28-.3.37-.1-.44-.1-.73-.1-.87zm-.07.95c.06-.02.1-.05.13-.08v.08h-.2zm3.76 1h.3v.3h-.4c0-.2 0-.3.1-.3zm1.4-20.46h.5l-.1.15-.4.3c0-.2.1-.35.2-.45zm3.4 35.28l.3 1.2.2-.2c.1.28.1.53.1.78.3.82.3 1.73 0 2.72l-.3 1.16c-.1.4-.1.87-.1 1.45.2-.3.4-.6.5-.8.1-.2.3-.4.5-.7 0 1-.1 1.9-.4 2.8-.7 1.3-.9 2.4-.4 3.4.1.1.1.4-.1.9-.1.3-.3.8-.7 1.3-.8 1.4-1.3 2.7-1.3 4v.3l.3-.3v.5h.1l-.5.4c-.1.4-.1.8-.3 1.2l-.1-.1h-.2c0 .1-.1.2-.3.4 0 .2.1.3.3.3l.1.1c-.3.7-.6 1.4-1.1 2.2l-2.9 4.7-2.9 4.8c-.2.2-.3.4-.3.5 0 .1 0 .2-.1.4v.1l.3.3c-.2.1-.4.2-.6.4v-.2l-.3.8c-.1.4-.5.8-.9 1.2-.1.1-.1.2-.1.2 0 .1-.1.1-.2.2-.2.9-.6 1.7-1.2 2.4s-1.3 1.4-1.9 2.1l.1-.1v.1l-1.1 1.8c-.4.6-.8 1.2-1.2 1.9-.2-.2-.3-.3-.3-.4 0-.1 0-.1-.1-.2-.5.4-.8 1-1 1.6-.1.5-.4 1-.9 1.5l-.9.9c-.3.3-.6.6-1 .9-.4.4-.7.6-1 .6-.2 0-.3.1-.3.3-.3.5-.7.9-1.2 1.3-.4.4-.9.8-1.3 1.3-.2.1-.3.2-.3.3-.1.1-.2.2-.4.3-.7.3-1.2.7-1.7 1.2l-1.4 1.4-1.2 1.2c-.4.4-.8.7-1.3.9-.4.2-.7.6-1 1.1-.2.2-.3.4-.3.7s0 .5-.1.8l-1.8 1.5c-.6.5-1.3 1-1.9 1.5-.4.2-.6.2-.6 0-.2-.2-.2-.4 0-.6h.1c-.3-.1-.5-.1-.8.2l-.3.6-.3.7c-.1.4-.4.8-.6 1l-.2.1c-.1.1-.2.2-.3.2l.1-.1c-.3.2-.6.3-.8.3-.5 0-.7-.2-.6-.5 0-.1 0-.2.1-.3l.1-.2c.2.1.3 0 .4-.1s.1-.3.2-.4c-.3 0-.5.2-.7.6-.2.1-.4.3-.6.5-.7.4-.9.8-.6 1.3.2.3.2.5 0 .7-.6.4-.9.5-1.1.3h-.4c0 .1-.1.2-.3.4.2.5.3.9.2 1.2 0 .1.1.2.1.2h.2c-.4.2-.6.3-.7.3h-.2c-.3.1-.7.3-1.1.4l-1.1.3c-.4.1-.7.1-1.1 0-.7-.1-1.2 0-1.5.4 0 .1-.2.2-.6.2-1.3.4-2.7.8-4 1.1-1.3.4-2.6.7-3.9 1.1-.8.2-1.5.4-2.3.7-.7.2-1.5.5-2.3.7-.3.1-.5.1-.8 0-.2 0-.5 0-.9.1l-.9.3c-.3.1-.6.2-.9.2-.9-.1-1.8-.2-2.7-.4-.9-.2-1.7-.6-2.2-1.4l-.5-.5-.5-.5c-.2-.2-.4-.2-.6 0-.2.2-.3.4-.3.6-.1.2-.1.3-.1.4 0 .1 0 .2-.1.4l-.3.1h-.4c-.2-.2-.3-.3-.2-.4-.1-.2-.1-.6.1-1.2 0-.4-.1-.6-.3-.6l-.5.3c-.1.1-.1.2-.1.2 0 .1-.1.2-.3.4l-.3-.3c-.3-.9-.9-1.2-1.9-.9h-.6v-.4c.3-.5.3-.7 0-.7-.1 0-.2.2-.4.7v.4l-.3.2h-.3c0-.5-.1-.8-.3-1-.1-.2-.2-.3-.3-.4-.2 0-.3-.1-.5-.3-.3.1-.5.3-.6.6-.2-.1-.4-.1-.6-.2-.3 0-.4-.2-.3-.5.2-.3.1-.5-.3-.7-.5-.2-.7-.6-.7-1.1 0-.2 0-.4-.1-.5l.1-.1h-.1c0-.2-.1-.3-.1-.4h-1l.6-2c.1 0 .2 0 .3-.1l.2-.2v.7c-.3.3-.2.5.2.5 0-.2 0-.3.1-.3s.1-.1.1-.2c0-.3 0-.5-.1-.6v-.2c.1-.2.2-.4.1-.5-.1-.1-.2-.3-.3-.5v.1c-.3-.2-.5-.2-.8-.1.3-.1.4-.3.4-.7.1-.2.2-.5.2-.9.1-.2.2-.3.3-.4.1 0 .2-.2.4-.4 0-.2.1-.3.2-.5-.5.2-.9.4-1 .6.2-.8.3-1.5.4-2.3.1-.7.4-1.5 1-2.3.3.1.3.3.2.5-.2.1-.1.3.1.5.2 0 .4-.2.7-.7.4-1 .7-1.9.9-2.8.2-.9.5-1.9.9-2.9.2-.4.3-.8.4-1.1.1-.3.2-.7.4-1.1l.5-1.3c.2-.4.2-.8 0-1.3-.1-.4-.2-.7-.1-1.1-.1-.1-.2-.1-.2-.3 0-.1.1-.3.3-.4h.1l.3-.7c.4-.6.6-1.1.7-1.6l-.3.3c0-.5 0-.9.1-1.1 0-.2.2-.6.5-1.4v.2l.1.5c.5-.2.7-.6.7-1.1-.1-.7 0-1.3.2-2 .3-.6.5-1.3.7-2 .2-.3.4-.5.7-.7.4-.1.7-.4.9-1 .1-.2.1-.3 0-.5-.1-.1 0-.2.2-.3.5-.3.7-.6.7-.9-.1-.3 0-.7.1-1.1 0-.8.2-1.5.6-2.2.4-.6.6-1.2.8-2 0-.3 0-.5-.1-.5-.4-.2-.5-.4-.3-.6.2-.2.2-.4.2-.6-.5-.4-1-.7-1.6-1-.2-.1-.5-.1-.7-.1l-1.1.8-1.8 1.7c0 .2.1.4.4.4.3.1.1.4-.3.8v1c-.3.8-.5 1.5-.7 2.2-.2.7-.6 1.4-1.4 2-.8.4-1.4 1.1-1.9 2 0 .3-.1.5-.2.7 0 .3-.1.4-.3.4-.5 0-.8.1-1.1.4-.3.3-.7.5-1.1.6-.4.4-.9.7-1.2 1.1l-1.1 1.1v.3c.1.2.4.4.8.6.5-.1.8-.4 1-.8.1-.3.3-.5.7-.6 1-.2 1.4-.7 1.2-1.5 0-.5.3-.7.9-.7l.2-.4c.7-.4 1.3-1 1.9-1.5l1.7-1.5c.3-.2.6-.4.8-.6.2-.2.5-.4.8-.6h.3c-.1.2-.1.5-.1.7 0 .3 0 .5-.1.7h.9c-.1.1-.1.2-.1.2 0 .1-.1.2-.2.3-.2.2-.5.4-.7.6-.3.3-.6.5-.8.8-.6.7-1.3 1.3-2.1 1.8-1.6 1.1-2.8 2.2-3.8 3.5-.2.2-.4.3-.6.3-.2 0-.4.1-.5.2-.1.2-.1.3-.1.4 0 .1-.1.2-.2.4-.6 1.1-1.3 1.9-2.2 2.5-.9.7-1.8 1.3-2.7 2-.9.7-1.8 1.4-2.5 2.1-.3.3-.7.7-1.3 1l-3.9 3.1c-.4.3-.8.4-1.3.2-.2.6-.4 1-.5 1.1l-1 .8-1.7 1.3c-.5.4-1.1.8-1.6 1.3-.1.1-.2.2-.4.3-.1.1-.3.2-.5.4-.4.7-1 1-1.7.8h-.4l-1.5 1c-.4.2-.7.3-1.1.4-.3.1-.6.2-.9.4-.8.6-1.3 1-1.7 1.1-.2-.2-.2-.5-.1-.8l.3-.9c0-.1 0-.2-.1-.3v-.2l-.1.2c-.1 0-.1.1-.1.2-.3.5-.6.8-1.1.9-.2.1-.4.4-.6.8v.5c0 .6-.3.9-.9.9-.8 0-1.3-.2-1.7-.6-.4.4-.7.7-.8.9-.3.5-.6.8-1 .9-.6.1-1.2.6-1.9 1.4l-.5.6c-.2 0-.3-.1-.4-.2-.7-.5-1.3-.4-1.9.3-.4.5-.9.7-1.5.7-.2 0-.4.1-.6.3-.2.2-.4.1-.6-.1l-.9.3c-.3.1-.7.2-.9.4-.3.2-.5.4-.7.6l-.6.6c-.3.2-.4.4-.5.5l-.2.5-.4 1.3c0 .2-.1.3-.3.3-.1 0-.2-.1-.4-.3-.1 0-.2-.1-.2-.3v-.2c-.2 0-.3.1-.2.2.1.1.1.2 0 .3 0 .3-.2.5-.5.5h-.2c-.1 0-.1-.1-.2-.1.1-.2.2-.3.3-.4.1-.1.2-.3.1-.4-.2-.4-.4-.5-.7-.3-.5.2-1 .6-1.5 1.3-.6 0-1.2 0-1.8-.1-.7-.1-1.4 0-2.1.4.2.2.4.4.6.4.2.1.4.1.6.2.2.1.4.2.6.2.2.1.5.1.8 0 .4-.1.7-.1 1 .2l.6.6c-.5.5-.9.6-1.3.4-.5-.2-1-.3-1.6-.3-.6 0-1.2.1-1.9.2-.2-.2-.3-.4-.4-.6s-.2-.5-.3-.7c-.2-.1-.4-.2-.5-.5-.1-.2-.2-.4-.4-.6l-.3-.3c-.6-.1-1.1-.2-1.6-.5l-1.4-.6h-.6c.1.4.3.6.6.7.3.1.4.3.4.6s-.2.5-.5.5c-.9-.1-1.6-.3-2-.5-.3-.1-.4-.4-.4-1-.1-.6-.5-1.1-1-1.4.4-.7.6-1.2.4-1.5l-.3-1.1c-.1-.4-.1-.8.1-1.3-.2-.4-.3-.8-.2-1.2 0-.5 0-.9-.2-1.4v-.9c0-.4-.1-.7-.2-1 0-.4.2-.8.6-1 .1-.1.2-.2.3-.4.1-.2.1-.3.2-.4.1-.5.2-1 .2-1.5s.1-1.1.2-1.5c.2-2.3.5-4.3 1-6.1.2-.5.3-1 .3-1.6.1-.5.2-1 .4-1.5s.4-1.1.5-1.7c.2-.6.3-1.1.5-1.7 0-.2.1-.4.2-.6.1-.2.1-.4.1-.6-.1-.5 0-1 .1-1.6.2-.6.3-1.2.5-1.7l.8-2.4.7-2.4.3-1.1.3-1.1c.1-.2.2-.4.2-.5 0-.1 0-.3.1-.4l2.6-9.2c.1-.3.1-.6-.1-1-.2-.2-.3-.4-.2-.6 0-.2-.1-.4-.5-.5v-1c0-.1 0-.2.1-.2s0 0 0-.1c.1-.5.1-.7 0-.7s-.4.1-.9.3h-.6c0-.1.1-.2.2-.3.1-.1.3-.2.7-.4.8-.5 1.1-1.1 1.1-1.8-.1-.2-.1-.5-.1-.8-.2-.2-.4-.4-.5-.6.8 0 1.4-.3 1.9-.9.5-.9.3-1.5-.5-2l.4-.2v-.1c-.1 0-.2 0-.2-.1l.3-.1v.2l.6-.3c.6-.2 1-.3 1.4-.4-.2-.3-.4-.3-.6-.3-.2.1-.4.2-.6.2-.2 0-.4.1-.7.1-.2.1-.4.1-.6.1-.2-.2-.1-.4.3-.6.5-.3.9-.6 1.3-.9.4-.3.9-.5 1.4-.7-.2-.3-.5-.3-1-.1 0-.1 0-.2.1-.2l.1-.2c.2-.4.3-.6.2-.7 0 .1-.3 0-.7-.3.3-.3.7-.4 1-.4.3.1.7 0 1.1-.2.3-.5.7-.9.9-1.4.2-.4.6-.9 1.1-1.4.3-.3.3-.5.1-.7-.2-.5 0-1.1.7-2 .2-.2.3-.4.5-.7.1-.3.3-.6.5-.8.2-.3.4-.5.7-.8.3-.3.7-.5 1.3-.6-.2-.5-.2-.9-.1-1.4.2-.4.3-.9.5-1.4.4-.6.7-1.1 1-1.7l.9-1.7c.1-.2.2-.3.2-.4 0-.1.1-.2.2-.4.3-.8.2-1.3-.1-1.7-.1-.1-.2-.2-.2-.3-.1-.1-.2-.2-.4-.3 0-.1-.3-.3-.8-.6s-.8-.5-.8-.6c-.3-.2-.8-.2-1.5.1-.1.1-.4.2-.7.2h-2c.1.2.2.3.4.4.2.1.2.2 0 .4-.4.4-.7.6-.9.5-.3-.2-.7-.3-1.1-.3h-2c-.1 0-.1-.1-.1-.2 0-.3.1-.4.3-.4.5-.2.8-.5.9-.9.1-.2.2-.3.3-.4l.5-.5c.7-.8.7-1.4.1-1.7l-.6-.6c-.2-.2-.5-.4-.8-.5-.6-.1-.7-.5-.2-1.3.2 0 .3.1.5.3.1.2.4.2.8 0 .1-.1.2-.2.2-.3h-.1c-.4.2-.7.1-.7-.3s.2-.6.6-.6v-1c.1 0 .2 0 .3.1.2-.4.4-.8.8-1.1.5-.3.9-.4 1.4-.2.1 0 .2 0 .2.1.1.1.2.1.3.1 0 .1.1.1.2 0s.2-.2.2-.3c0-.7.1-1.3.2-1.7.2-.2.5-.2.9 0 .3.3.8.3 1.4 0 0-.2-.1-.3-.2-.3-.1-.1-.2-.1-.2-.2-.4-.2-.5-.5-.4-.7.1-.1.3-.2.6-.3v-1s0-.1.1-.1.2-.1.2-.2c0 .1 0 .2-.1.2v.3-.2.3h.2c.4 0 .7-.2 1-.7.2-.2.4-.3.5-.4.1-.1.3-.2.4-.4.1-.4.3-.5.5-.5.3.1.5 0 .7 0l-.4-1.3c0-.2.1-.3.2-.3.9-.4 1.4-1.1 1.7-1.9.1-.3.3-.6.5-.7.3-.1.7-.2 1-.4l-.4-.4c-.3-.1-.2-.3.2-.7.3-.4.5-.6.7-.4l.5.4.5.5c.4-.2.8-.3 1.2-.3.5 0 .9-.1 1.4-.4h.4c.9.2 1.7.2 2.6-.1.8-.3 1.7-.5 2.6-.7.3 0 .5-.1.7-.3.3-.3.8-.4 1.5-.4.4 0 .7-.2.9-.7.1-.5.2-.9.5-1.3.2-.4.4-.8.6-1.3.8.3 1.3.5 1.5.5.3 0 .8-.2 1.6-.6.2.5.4.8.5 1 .2.1.4.3.8.5.5.3 1 .2 1.6-.3 0-.2-.1-.3-.2-.5-.1-.1-.1-.4-.1-.6.1-.2.1-.4 0-.5-.1-.2-.3-.4-.3-.6h1.3c.2.2.4.5.6.9l.4.4c.1.08.2.1.3.2-.2.2-.3.3-.3.5 0 .1-.2.3-.3.5 0 .1-.1.2-.3.4 0 .1.1.3.2.5s.2.3.4.3.3-.1.4-.27l.1-.1-.2-.26c0-.1.1-.2.1-.2 0-.1.1-.2.1-.4.2.2.3.4.2.5v.3l.1-.3c.5 0 .7.2.5.7-.2.4-.4.6-.4.7-.2.1-.4.1-.5.1-.2 0-.4 0-.5.1l-.3.3.3.1c.2-.3.6-.4.9-.4.3.1.7 0 1-.3.1-.1.3-.2.6-.2.2 0 .3 0 .4.1.1.1.2.1.4.1.1 0 .3.16.4.45-.1.2-.1.5-.1.8.2.2.4.3.7.3s.4-.1.5-.3l.4-.4.3-.4c.4.2.7.15.8-.14h-.3c.1-.1.2-.2.2-.3l-.6.3c0-.2.1-.3.1-.53.1 0 .2-.1.3-.2V41h1.2c.5-.2.8-.46 1-.8.2-.33.5-.5.9-.5 0 .4.2.5.5.3.5-.2 1-.35 1.4-.45l1.4-.3c.2 0 .4-.1.7-.3.3-.2.6-.4 1-.55.9.2 1.7.1 2.5-.3.1 0 .2.02.2.1s0 .1.1.1c0 .2-.1.3-.2.4-.4.2-.4.3-.1.3h.4l.3-.3c.2-.4.5-.6.7-.6.3 0 .5.24.5.7 1.5-.3 3-.74 4.5-1.3.7-.4 1.2-.9 1.6-1.46 0-.1.1-.24.4-.44 0-.1.1-.1.3-.1.3 0 .3.1.1.3 0 .16 0 .3-.1.4.5.4.9.43 1.3.14l.7-.47c.2-.1.5-.1.7.1.1.1.3.1.5 0l.7-.3c.2.2.3.35.4.44.1.1.2.3.4.5.1.2.2.2.4.3.1-.3.3-.5.4-.7.4-.4.6-.7.6-.9.3-.7.7-1.3 1.3-1.9.1-.2.4-.5.7-.9.2-.4.3-.7.4-.7.5-.2.9-.5 1.2-.8.3-.4.7-.7 1.1-.9l.8-.3.9-.6c-.3.4-.6.7-.8.9l-.7.7.4.2.4.2-.4 1.8c-.3 0-.6.1-.8.2.1 0 0 .2-.3.5.3.2.6.3.9.2.3 0 .6.1.8.4.2.2.4.2.5.1.2-.2.4-.3.6-.5 0-.4.1-.6.3-.7.3-.1.4-.2.5-.4.1 0 .1-.1.1-.2l-.1.1c-.2-.3-.1-.8.4-1.5l.1.2c.4.6.7 1 1 1.3.1.2.4.3.8.3.3-.1.6-.4.8-.8l.8.6c.3-.2.6-.4 1-.4.4-.1.7-.2 1-.4-.1-.6 0-.9.4-1 .5-.2.9-.4 1.4-.5l1.5-.3c.5 0 .8.1.9.2.1.2.5.2 1 0 .7-.1 1.4-.4 2.1-1 .1-.2.2-.3.4-.4l.5-.4c.2.1.4.1.6.1.7-.5 1.2-.8 1.4-.9l.2-.3h-.2c.1-.1.1-.2.1-.4.1 0 .2 0 .3-.1v.5l.7-.9c.2-.1.4-.2.6-.4l2.1-1.3c.4-.2.8-.4 1.1-.7.3-.2.6-.5 1-.7.5 0 .9.1 1.2.2l1 .5c.3.2.5.2.8 0 .3-.3.4-.5.4-.6 0-.2 0-.3-.1-.3-.2-.1-.4-.2-.8-.2-.2-.3 0-.4.5-.4.1 0 .2.1.2.1s.1.1.2.1c.6.1 1-.2 1.1-.9 0-.5.2-.9.6-1.2.2 0 .4 0 .5-.1.5-1 1.2-1.7 2.2-2.1l.4-.7.4-.4c0-.1.2-.2.4-.4.1-.3.3-.5.8-.5.4 0 .5.3.3.7-.1.4-.2.8-.1 1.1 0 .3 0 .6-.1 1 0 .7.3 1 1 1 .1 0 .2 0 .2.1s.1.1.2.1c-.1.3-.2.5-.5.5-.2.1-.4.2-.6.4-.4.4-.5.7-.3.9.2.8 0 1.5-.6 2.2-.2.2-.2.4-.2.7 0 .2 0 .4-.2.6-.2.3-.2.5-.1.6.2.1.2.3.1.5 0 .4.1.6.3.7.2.1.3.2.3.2 0 .1 0 .2.1.2.2.2.3.3.3.4.5-.1.9-.2 1.2-.2l1.1-.2c0 .2-.1.4-.2.5.1.2.4.3.7.2.4-.2.6 0 .6.5 0 .2.2.3.5.3s.6.1.9.1c.8 0 1.3-.2 1.6-.6.3.2.6.5.8.9.2.2.4.3.5.3.1 0 .3.2.5.4l.6-.6h.3c0 .9.5 1.5 1.6 1.8.2.1.6.3 1.1.5.1.1.3.2.7.4l.3.3 1.6.4.1-.1V33h.2c.1-.2.2-.4.3-.5-.1-.1-.2-.2-.3-.2-.1 0-.2 0-.3-.1-.1-.3-.2-.5-.2-.64 0-.1 0-.2-.1-.3 0-.2.1-.3.4-.3h.7l-.2-.05c.3-.1.6-.2.7-.2s.3.2.5.5c-.1 0-.2 0-.3.1-.2-.1-.4-.2-.6-.2 0 .3.1.5.3.6l.1-.1h.4c.2 0 .3.1.3.4v.1l-.2.2v.1c.1.1.1.2.1.3 0 .2 0 .2.1.2.4.2.6.5.7.7.2.7.6 1.1 1.3 1.2.5.2.6.6.3 1.2-.3.1-.7.2-1 .4-.1-.2-.1-.5-.1-1-.4.6-.5 1.5-.3 2.4l.6-.2.5-.2c0 .2.1.3.1.4.1.1.1.3.1.5.1-.1.2-.1.2-.1l.2-.1c0-.2 0-.4.1-.5 0-.1.1-.3.1-.5.1-.1.2-.1.3-.1.1 0 .2-.1.3-.2l.5 1.3c.2.2.4.2.6.1.1-.1.3 0 .4.2 0 .2 0 .4.1.4.1.1.2.3.3.5.2-.2.4-.4.4-.7 0-.3.2-.5.7-.7h.4c0 .5-.2 1-.5 1.5-.4.5-.6 1-.7 1.5.2.1.4.1.6.1-.2.5-.3 1-.4 1.6-.1.6-.1 1.1-.1 1.6 0 .3-.1.7-.3 1.3-.2.7-.5 1.3-.8 1.9-.4.6-.4 1.2-.1 1.7l-.2.3c-.3.5-.5.9-.6 1.3L317 52c-.1.2-.1.3.1.2.2 0 .3.1.3.3-.4.8-.7 1.5-1 2.2-.3.7-.64 1.4-1.1 2-.3.3-.3.6-.1.9.1.3-.1.6-.4.8-.5.2-.9.6-1.1 1.3l-.6 1.7c-.2.5-.3 1.1-.4 1.7 0 .3.1.5.3.6.3-.2.4-.4.4-.5v-.5c.2-.4.3-.6.5-.6l.4 1.7v-.1h.3c.1 0 .2-.1.3-.1h.7c.3.3.2.6-.3.8-.2.1-.3.3-.3.5 0 .1-.1.3-.3.5h-.6c-.2-.2-.3-.4-.5-.5l-.5-.5-.4-.4c-.4 0-.6.1-.6.3v.4c.5.2 1 .5 1.5.8l1.4 1c.2.2.4.4.7.5.3.2.5.3.7.5.1.1.4.2.8.2-.2-.2-.3-.4-.3-.6 0-.2-.1-.4-.2-.6.77.1 1.16.4 1.16 1l-.7.7c.2.4.3.7.5 1.1.1.4.4.7.8 1 .5.2.6.5.4.9-.1.4-.1.6.2.6.2 0 .4.1.5.3 0 .6 0 1 .1 1.2.1.3.3.5.6.6.4-.7.7-1.3.9-1.6l-1-1.3c-.2-.5-.5-.8-1-.7-.2 0-.3-.1-.3-.3-.1-.3-.1-.7-.1-1.4.3-.1.5 0 .5.1.1.2.2.3.4.4.2.1.3.2.4.3l.4.2c.13 0 .2.1.2.3 0 .8.2 1.5.6 2.2.4.7.6 1.4.7 2.2.3.2.5.5.5.9l.2 1.1h.2l.1-.2c0-.8.1-1.4.2-1.8-.2-.4-.2-.7.1-1l.4.9c0 1 0 1.7.1 2.2 0 .3-.2.5-.6.5-.3.2-.4.4-.4.7zm-79.2 62.2v-.22l-.4.15v.3c-.1.1-.1.2-.1.28 0 .1 0 .2.1.3.1.1.1.1.1.2l.2-.3.4-.4v-.2zm-50.6 4.57l-.4.44c0 .1 0 .2.1.3.1.1.1.1.1.2.2-.1.4-.2.6-.4 0-.1-.1-.2-.3-.4zm93.9-5.95c.9-.48 1.8-1.1 2.8-1.88h-.7c-.4.3-.9.6-1.2.94l-1 1.06c.1-.02.2-.05.3-.12zm-3.2 2.98c0 .03 0 .04.1.06 0-.1-.1-.13-.3-.13.1 0 .2.02.2.07zm-20.8-13.14c.1-.1.2-.17.3-.22.1-.04.2-.12.3-.2.2-.2.4-.3.5-.3.5.2.5.38 0 .58-.2.2-.3.4-.3.65v.65c.4.1.7.3.8.58.1.3.4.54.7.73.7.3 1.4.4 2.2.36.8-.1 1.6-.1 2.4 0-.2-.4-.4-.6-.7-.7l-.9-.3-.4.4c-.1.1-.2 0-.4-.3s-.4-.4-.8-.3c-.4.1-.6-.1-.6-.5.3-.7.2-1.3-.2-1.8-.2-.1-.3-.3-.3-.4 0-.2-.1-.3-.1-.4h-1.4c-.3 0-.6.3-.9 1l.3.1zm2.7-3.34c-.5.4-.6.83-.1 1.3l1.3 1.03 1.2 1-.1-.13c.5-.2.6-.4.4-.58-.8-.97-1.6-1.84-2.6-2.62zm2.4.44v-.3c-.2 0-.2.1 0 .3zm-2-1.16h-.4v.22c0 .05-.1.12-.1.2l.6-.42zM253 148.7c.2.4.6.44 1.2.15h.2c-.2-.2-.3-.34-.3-.44-.05 0-.2-.2-.4-.4 0-.2-.1-.2-.4-.1-.45.2-.5.5-.1.9zm-6.5-48.92c.3-.1.7-.24 1-.44l.2-.1.3-.48h-1l-.4.58c0 .2 0 .34-.1.44h.14zm1.6-2.18l-.1-.1c0 .07-.1.16-.1.25l-.2.27c.2-.1.4-.22.5-.42zm-3.9 6.83l-.1.43c.1-.1.2-.24.2-.43zm-7.8 7.7v.28c.2.2.4.1.6-.2 0-.2 0-.3-.1-.3-.3-.2-.5-.1-.7.3h.3zm-3.5 5.36c.2 0 .4-.1.6-.3v-.2l.2-.2c0-.2 0-.3-.1-.3-.2 0-.3.1-.3.3-.2.1-.3.2-.3.4v.1zm-3.4 3.7c.1-.1.2-.2.3-.2.1-.1.2-.1.3-.2-.3-.3-.5-.3-.7.1l-.2.3h.3zm-4.5 3.3c.4 0 .78-.3 1.08-.8l-.5.2-.5.2v.3zm-8.4 7.1c.2 0 .38 0 .4.1.07.1.1 0 .2-.2.2-.1.4-.3.6-.5.1-.1.2-.2.38-.3.14 0 .26-.1.36-.2.3-.3.4-.5.3-.6-1.1 0-1.9.5-2.5 1.5h.3zm-2.4-.5h.44l-.3-.2h-.2v.1zM202 105.5c.1-.2.15-.4.15-.5 0-.1.05-.3.1-.4-.3 0-.4.3-.2.8zm1.5-7.4c-.05.2-.1.5-.1 1 .5-.5.7-.9.68-1.3-.04-.4 0-.7.08-1.1-.34.7-.6 1.1-.6 1.3zm6.3-54.3h-.3c-.4.3-.74.4-1.1.5-.32 0-.63.2-.92.3-.5.4-.86.6-1.15.6-.3 0-.6.1-1 .2-.2.1-.4.23-.6.4-.2.12-.5.3-.9.5h-.3c.5.2.9.3 1.1.34.27.04.58-.08.97-.37l.55-.3c.7 0 1.2-.35 1.6-1 0-.1.1-.2.3-.25.2 0 .4-.06.58-.06.6 0 .97-.1 1.17-.3l.15-.16.12-.2c-.2-.2-.3-.3-.3-.4zm8.4 27l.14.1c.2.2.4.3.58.3.2 0 .4.13.6.32l.47-.15V71c0-.2-.1-.3-.3-.3-.4 0-.9.1-1.5.3zm3.9-29.9c0 .2-.04.3-.14.4h.17c.1-.1.1-.3.1-.5h-.2zm1.16.8l-.12.1h.1zm2.5-.3h-.1v.1h.12v-.2zm.7 15.7c-.44 0-.8.2-1.1.5h1l.6-.3c.2-.2.05-.3-.4-.3zm6.26-16.6c-.3 0-.5.1-.5.4 0 .2.04.3.13.4h.17c.6-.3 1.1-.4 1.5-.3l.13-.1c0-.1.1-.26.3-.46h-1.76zm3.6-1.9c-.1 0-.2 0-.3.1h-.3v.2h.84l.17-.3h-.5zm1.1 12.6l-.1.1h.14l.2-.16h-.1zm1.4-13.2c-.3.1-.6.3-1 .5 0 .5.18.7.47.6.3-.2.5-.46.7-.7l-.2-.3zm2.6 9.6c-.1.1-.2.2-.3.2l-.37.3c-.2.2-.3.4-.4.7l.8-.28c.1-.1.26-.35.45-.74l-.2-.1zm.6 3.1c0-.1-.1-.2-.1-.37l-.9.2-.5.24c-.12.07-.24.1-.34.2-.1 0-.2.1-.2.3-.2.2-.12.3.17.3.4 0 .6-.03.7-.13.2-.1.36-.2.46-.3l.3-.3.5.14v-.3zm9.1-13.7l-.43-.3v.12c-.2.1-.4.27-.6.46l.1.2c0 .1.1.1.2.1.2 0 .3-.05.5-.2.2-.12.2-.24.1-.34zm1.74 1.6c-.1-.2-.4-.3-.9-.4-.53-.04-.94.03-1.23.2-.2 0-.3.1-.3.3-.2.5 0 .74.6.74h1.3v.14h.2c.3 0 .6 0 .8-.2 0-.24-.1-.5-.3-.8zm-.6 1.8v.4l.1.14.2-.2c.3-.28.5-.53.6-.76l-.2.1c-.2.2-.4.3-.65.3zm1.8-.67l-.07.13c0-.05.1-.1.1-.13h-.1zm.3 18.24c.2.3.47.2.8-.1-.25-.2-.52-.2-.8.1zm10.06-26.4l-.15.1h.17v-.2zm7.82 13.9c-.6.2-1.2.3-1.78.3-.58 0-1.2.1-1.88.3 0 .7-.5 1.2-1.45 1.6-.2.1-.5 0-1-.3-.2.2-.3.3-.3.4 0 .1-.1.3-.3.5-.3.3-.7.6-1 .8-.2.2-.3.3-.5.3-.1.1-.3.2-.3.4-.2.3-.4.4-.7.4-.3 0-.5 0-.7.1-.3 0-.5.1-.7.3-.3.27-.2.5.2.7l.4.43-.15.3c-.3-.1-.6 0-.9.33-.3.35-.55.4-.85.1l-.4.13v.55c.1.2.2.3.35.4.16.1.3.2.5.4-.2.2-.6.5-1.14.9-.4-.2-.6-.3-.7-.4-.62-.6-1.4-.4-2.1.6-.1.2-.2.4-.3.5 0 0 0 .1.1.1-.2.2-.4.3-.6.4h-.1l-.16.1c0 .5-.04.9-.1 1.3s-.1.9-.2 1.3H255c-.5.1-.57.3-.3.6.2.2.3.4.3.5 0 .2-.1.5-.3.9-.56.8-.85 1.1-.85.9-.1-.1 0-.4.2-1.1-.3-.3-.63-.5-1.1-.6l-1.34-.5c-.1-.1-.4-.1-.9.1 0-.1.1-.1.1-.2.1 0 .1-.1.1-.2-.3-.2-.6-.3-.9-.4-.4-.1-.7-.2-1-.4-.3-.1-.5-.2-.8-.3-.2-.1-.5-.1-.8-.1-.8-.1-1.5-.2-2.2-.5-.6-.2-1.3-.4-2-.6-.2-.1-.4-.2-.6-.4l.6-.8.6-.8c.2-.3.1-.5-.2-.5s-.4-.1-.3-.4c.1-.3 0-.5-.2-.6s-.4-.3-.5-.5c-.2.2-.3.4-.5.6-.3 0-.5 0-.8-.2-.2-.1-.6 0-1.1.3-.4.2-.8.3-1.1.2-.3 0-.8.1-1.2.4-.3.2-.6.3-.9.3h-1c-.7 0-1.2.3-1.6.9-.4.2-.6.3-.7.4-.1.3-.2.5-.3.6-.1.1-.1.1-.1 0-.2-.3-.4-.4-.8-.4-.3 0-.6.1-.9.2-.9.2-1.5.6-1.9 1.2l-.9.3c-.1.6-.6.9-1.4 1.1-.5.1-.9.2-1.2.3-.4.1-.8.2-1.2.4 0 .1-.1.3-.3.7-.3.6-.7.7-1.1.3l-1.5 1.7c-.4.6-.5 1.2-.2 1.9.2.3.3.5.3.7-.4.4-.6.6-.8.7-.1.1-.5.2-1.1.2-.1.1-.1.3-.1.5v.4c.1 0 .2 0 .2.1h1.3c.3 0 .7 0 1.2-.2.1 0 .3-.1.7-.3.4-.6.9-.8 1.6-.7.2.1.4.1.7 0 .2-.1.5-.2.8-.3-.2.1-.4.2-.6.4l-.5.5c-.1.1-.3.3-.5.4-.3.2-.6.3-.9.4l-.7.2-2.6.9c-.4.2-.7.4-1 .7l.5.4c.4.2.7.2 1-.1.5-.5.9-.7 1.2-.6.2.1.6 0 1-.3.2-.2.5-.3.8-.3.2 0 .4.1.6.3.1.2.1.4-.1.6-.4.2-.6.3-.7.4-.2.2-.3.4-.5.6-.1.2-.1.3 0 .3h.9c.2-.1.4-.2.7-.2.3 0 .6-.1.8-.3.6-.4 1-.6 1.3-.6.3 0 .6 0 .9-.1h-.3l-.2-.1.1-.1h.4v.3c.8-.2 1.6-.6 2.5-1.3.1-.1.2-.2.3-.2l.2.1.1-.1h-.2l.2-.1.1-.1c.1-.1.2-.1.2-.1.1-.1.2-.2.3-.4.4 0 .7-.1.9-.3.2.4.4.8.7 1.1.4 0 .7-.1.9-.2.3-.1.5-.2.7-.1 0-.1 0-.3.1-.5l.5-.4c.6-.3 1.2-.6 1.8-1 .7-.4 1.3-.6 2-.7.2.3.2.6 0 .9l-.6.9V66c-.2-.1-.4-.2-.6-.24-.3 0-.5.16-.7.5l-.3.3c-.2-.2-.5-.2-.7 0-.3.2-.6.4-.8.6-.1.1-.2.16-.3.16h-.1c.1.2.1.5-.1.9-.1.1-.3.4-.7 1 .5-.1.9-.2 1.1-.3.2-.1.7-.4 1.5-1-.2 0-.2-.1-.1-.3.1-.3.4-.5.7-.7.2-.1.4-.25.6-.44l-.1.3c.2.07.4 0 .8-.2.3-.2.6-.2.8.1-.4.2-.7.4-1 .48l-.9.46c-.2.1-.4.2-.6.2l-.4 1.4c.3 0 .5-.1.6-.3.1-.2.2-.3.4-.4.3 0 .5.1.5.3 0 .2.2.4.4.6-.3.1-.5.2-.6.3.2.1.3.4.1.7-.2.1-.3.2-.4.3 0 .1-.1.1-.2.1-.5.2-.8.4-.8.6-.1.2-.1.4-.1.7.3-.2.5-.37.8-.47.2-.1.5-.2.8-.4.2-.2.4-.3.7-.4.3 0 .5-.1.7-.2.2-.1.4-.2.7-.3.3-.1.6-.2.8-.3h.3c-.1.2-.2.4-.2.7 0 .2-.1.45-.3.6-.2.2-.4.3-.6.2-.2 0-.4 0-.6.1l-.7.4-1 .36v.4c0 .3-.1.4-.2.4-.7.2-.8.4-.2.6.5.2 1 .3 1.6.2l1.5-.3h.4c-.2.5-.5.8-.9.8-.4.1-.7.3-.9.7.4 0 .6 0 .7-.1l4.3-1.7h.4c-.1.1-.1.2-.1.3l-.1.2c-.1.1-.2.2-.3.2-.1.1-.2.1-.2.2-.3.2-.6.4-.8.5-.2 0-.5.2-.8.4-.4.2-.7.3-1 .4-.9.6-1.8 1.1-2.9 1.3-.7.2-1.1.5-1.1 1 .2.2.4.2.7.1.2-.2.4-.2.6 0h.1c.2-.5.4-.7.7-.8.2 0 .5-.1.8-.1.3 0 .6-.2.8-.6.2-.2.4-.2.7-.1.2.1.2.2 0 .4s-.3.3-.3.5c.3.1.6.1.9 0 .3-.1.6-.2 1-.4s1.1-.5 2-.9c.1-.1.4-.1.8-.1h.2c0 .1 0 .2-.1.3-.2.2-.3.3-.4.3-1 .4-2 .7-2.9 1.1-.9.3-1.9.9-2.8 1.6-.2.1-.3.2-.4.2-.5-.2-.8-.1-1.1.2-.2.3-.5.6-.9.8-.4.2-.6.4-.5.5l.1.4v.2l-1.3 1.3c.2.5.6.6 1.3.4l.9-.3c-.1 0-.2 0-.3-.1.3-.2.6-.2.7 0h.1c.4-.2.8-.5 1.2-.8.3-.1.6-.2.9-.2.4-.1.7-.1 1-.2.1.1 0 .3-.3.6-1.6 1.2-3.2 1.8-4.6 1.9-.4 0-.7 0-1 .1l-1 .3c-.2.1-.4.1-.6 0-.2-.1-.4-.1-.7.1-.2.2-.4.3-.7.3-.3 0-.5.1-.7.3-.3.2-.5.3-.7.4l-.6.3c-.8 0-1.3.1-1.6.1-.6.1-1 .5-1.3 1.2-.2.2-.3.4-.4.5 0 .1-.2.3-.3.5-.2-.3-.2-.5-.2-.6 0-.1.3-.4.7-.9h-.4c-.5 0-.7.1-.8.4 0 .2-.1.4-.3.8 0 .2 0 .3-.1.4v.4h-1.1c-.1-.1-.3 0-.5.2s-.7.4-1.4.6c-.3.1-.6.2-.9.2l-1.1.2c-.5.1-.9.3-1.2.5-.3.2-.7.4-1 .6-.4.3-.5.7-.4 1.3v.1c.2 0 .3.1.5.2v.2l-.3-.2c-.2.2-.3.4-.5.4h-.1s-.1.1-.1.2c-.5.6-1 .9-1.6.9-.3 0-.5.1-.6.2l-.5.5c-.2-.2-.3-.4-.2-.5l.3-.6.3-.6c.1-.2.2-.5.4-.9-.4.4-.5.7-.5.8-.2.4-.5.8-.9 1-.4.2-.8.4-1.3.5-.1.1-.2.1-.3.1-.1 0-.2.1-.4.2-.7.3-1.2.8-1.5 1.3-.1.2-.2.5-.2.7 0 .3 0 .5-.1.7-.2.6-.4 1.1-.5 1.7l-.5 1.7c-.2.5-.4.8-.5 1-.1.2-.4.5-.9 1 0 .1-.1.2-.1.2-.1.1-.1.1-.1.2-.4.6-.7 1-1 1.3 0-.1-.1-.1-.1-.2-.1 0-.1-.1-.1-.2l.3-.6c.1-.2 0-.3-.4-.4 0-.4.1-.9.2-1.7l.5-1.3.4.4c.4-.7.7-1.3 1-1.9.2-.6.4-1.3.5-2 .1-.6-.1-.7-.6-.4l-.3.3-.3.2c-.2-.6-.4-1-.6-1.3l-.6.8-.6.7c-.3.3-.2.5.1.7l-.4.5c-.6.5-.9.9-.9 1.4s-.2.9-.6 1.3c-.5.6-.5 1.2-.1 1.9.2.1.4.1.7 0s.5-.1.7.1c-.6.5-1 .7-1.2.8l-1 .2.3.7.2.6c0 .2 0 .4-.1.7-.1.3-.2.6-.3.7-.2.5-.3.9-.3 1.3s-.1.9-.2 1.3c-.2.5-.3 1-.3 1.3 0 .4-.2.9-.5 1.3 0 .2-.1.4-.2.5l-.6 4.4-.6 4.3h.9c.2.4.3.8.2 1.3 0 .3 0 .5.2.7l.1-.2h.4v.1l-.1.1h-.3l.6.3c.5-.2 1-.4 1.5-.7.5-.3 1-.4 1.4-.4l.6-.3c.8-.5 1.4-.9 1.9-1.1l.9-.5c.3-.1.6-.3.9-.5.1-.1.4-.2.8-.4.2-.4.5-.8.9-1.1.4-.2.9-.4 1.3-.6l.3-.2c.1-.1.2-.1.3-.2l3.6-2.8 3.7-2.9c.7-.6 1.3-1 1.5-1.3.6-.6 1.1-.7 1.6-.4l.4-.4c.4-1 1.1-1.6 2-1.9.8-.3 1.5-.7 2.2-1 .7-.4 1.4-.9 2-1.6.4-.2.7-.4.8-.5.4-.2.7-.4 1.1-.6.3-.3.6-.6.8-1 .4-.4.6-.6.8-.6.2 0 .4-.2.6-.6 0-.5.5-.9 1.3-1.3.2-.1.5-.2.8-.2.3 0 .5-.2.7-.5.2-.2.4-.3.6-.2.2 0 .4-.1.6-.4.1-.2.3-.5.7-.9h.3c0 .1.2.1.4 0l.7-.9c.3-.3.8-.7 1.2-1.1.1-.2.1-.5 0-.8 0-.3.2-.5.7-.7 0 .1.1.2.3.4.1-.1.4-.2.7-.2.3-.1.5-.1.7-.1-.1.2-.2.3-.3.4-.1.1-.2.2-.3.4.5.2.5.5.1.9s-.5.7-.3 1c.9-.3 1.3-.8 1.3-1.6l.4-.4c.1 0 .2 0 .2.1h.3c0-.1.1-.2.1-.2l1.1-1c.1-.1.2-.4.2-.7.1-.5.4-.9 1-1.1.6-.2 1.1-.4 1.4-.6.7-.4 1.2-.8 1.6-1.4.4-.5.7-.8.9-1 .3-.3.5-.5.5-.6.1-.5.2-.7.5-.8.2 0 .5-.1.8-.2.2-.9.7-1.5 1.6-1.9.2-.2.4-.4.5-.7 0-.3.1-.5.3-.8.6-.2 1.1-.4 1.4-.6.5-.2.8-.4.8-.7.4-1.2 1.2-1.9 2.5-2.2.5-.1.8-.5 1-1.2-.3.1-.6.3-1 .4.2-.5.3-1 .3-1.3.2 0 .4.1.5.2.4.2.6.2.6 0 0-.3 0-.5-.1-.6-.2-.3-.5-.2-.9.4-.1-.7.1-1.2.6-1.7.1-.1.3-.1.6-.1l.5.3c.7-.5 1-1.1 1.1-1.7.2-.9-.1-1.4-.7-1.6.2-.2.3-.4.3-.5 0-.1.1-.2.3-.3.3-.3.4-.8.4-1.4.1-.6.3-1.3.6-1.9.3-.7.7-1.4 1.2-2.1.4.4.4.8.2 1.2-.3.4-.4.9-.4 1.4.4-.2.6-.6.6-1 .3-1 .8-1.8 1.5-2.6.5-.8.7-1.5.7-2.3l.3-1.1c.1-.3.2-.7.3-1.1-.2.1-.5.2-.8.2.2-.4.3-.8.3-1.1.1-.4.2-.8.4-1.3.1.5.2.7.3.7 0 .1 0 .2.1.2h.2c.3-.4.5-.7.4-1-.1-.4 0-1.2.4-2.1l.6-2.2c.2-.7.4-1.4.6-2.2.2-.6.1-.9-.3-1 0 0-.1-.1 0-.2.1-.2.1-.3.2-.4.2-.2.4-.3.5-.3.2-.1.3-.2.5-.4 0-.3.1-.7.3-1.1.2-.4 0-.7-.3-.9.2-.2.2-.5.1-.8-.1-.4.2-.6.8-.8v-1c0-.1.1-.1.1-.2 0-.2-.1-.3-.4-.3zm-48.1 27.3v.2h.3l.15-.2h-.5zm.45.1c.3.1.8 0 1.3-.3.2-.1.3-.3.3-.5-.2-.2-.4-.3-.6-.3-.4.2-.7.3-.7.4-.2.1-.3.2-.3.3.1.1 0 .2 0 .2l.2-.1-.1.3zm4.4.9h-.2c-.7-.2-1.1.1-1.2.9.5-.2.9-.5 1.3-.9zm-.4 6.7v.1l.4-.2h-.5zm2.6-7.6c-.4.2-.7.3-1 .4v.3c.1 0 .1 0 .1.1s0 0 .1 0c.2-.1.4-.26.5-.46l-.2-.3.3-.1zm-.8-2.6l.9-.27c-.2-.54-.5-.83-.9-.83-.1 0-.3.1-.5.3l-.2.3c.1.4.2.56.5.5zm.3 11.93c-.4.3-.7.47-1.1.47-.3 0-.4.17-.4.46 0 .2 0 .3.1.3.4.1.8-.08 1.1-.47.2-.2.4-.3.5-.4.1-.1.2-.27.3-.53-.3 0-.5.06-.7.24zm-.8-15.2c-.1.1-.2.24-.2.43l.1-.48zm4.8 4.64c-.3.1-.7.27-1 .46-.2.1-.4.14-.5.14-.1 0-.2.1-.4.4.4-.1.7-.1 1-.1.3.07.6-.24.9-.92zm-.8 6.1v.2h.1-.1zm1.7-8.26c.1-.02.2-.1.3-.15-.1 0-.1 0-.2.03s-.2.1-.2.1zm47.9-5.8c-.1 0-.1.05-.2.1 0 .06-.1.08-.2.08-.4.3-.4.7-.1 1.1.2-.2.3-.36.4-.46.1-.1.2-.24.4-.44l-.1-.1zM297.8 41c0-.07 0-.1-.1-.2h-.1c0 .1-.02.2-.1.3.1.1.23.1.4.1l.1-.12c0-.05-.1-.1-.1-.1zm1.6-.1v.3h.2l.15-.3h-.3zm.2 8.56c-.9-.96-1.7-1.64-2.45-2.03-.3-.2-.4-.44-.3-.73.1-.4-.1-.7-.6-.9-.2-.1-.35-.02-.5.17-.14.2-.3.3-.5.3-.1-.6-.53-.97-1.3-1.16h-1.74c-.2.8-.2 1.4-.1 1.8 0 .3-.1.5-.4.6-.2.1-.3.1-.4-.1-.2-.4-.3-.4-.5 0-.2.5-.3 1-.5 1.3-.2.4-.5.8-.8 1.2v1.2c.1.4.1.8.1 1.3.1-.1.2-.1.3-.2.1 0 .2-.1.3-.2.1-.1.2-.2.2-.3 0-.1.1-.1.3-.1-.2.7-.5 1.3-.8 1.9-.3.6-.6 1.2-.8 1.9 0 .4-.2.7-.7.9-.2.1-.4.2-.5.1-.1 0-.2-.1-.4-.1l-.4.3-.1.2c-.2.1-.3.1-.5.3-.1.2-.2.4-.3.5-.1.1-.1.3-.1.5-.2.2-.2.3.1.3h.1l-.3 1.2c-.1.2-.2.5-.2.8 0 .1.1.1.2.1.2 0 .3 0 .4.1.1.2.2.4.3.5.1.2.1.4-.1.5-.2.2-.3.4-.3.5-.1.1-.2.3-.4.5-.4.6-.6 1.1-.6 1.6s.1 1 .3 1.5c.5-.2.9-.4 1.3-.6l1.2-.6c.2-.2.4-.4.7-.5.3-.1.6-.2.8-.2 1.1 0 1.9-.3 2.6-1 .2-.2.5-.4.9-.6.9-.2 1.6-.8 2-1.6l.8-.8c1.1-1.1 1.8-2.3 1.9-3.5 0-.6.4-1.2 1-1.6.3-.1.5-.3.6-.5.1-.2.3-.5.5-.8 0-.2 0-.3.1-.4.1-.1.1-.2.1-.4.4-.8.4-1.6 0-2.2zm1.75 41.4c-.2-.4-.35-.76-.45-1.1-.1-.34-.05-.75.15-1.24l-.5-1.3-.5-1.3c-.2-.6-.4-.97-.6-1.16-.7-.66-1.4-1.04-2.2-1.14-.2-.1-.4-.17-.64-.22-.2-.05-.4-.22-.6-.5-.4 0-.6-.2-.8-.52-.1-.34-.4-.46-.9-.36-.1.1-.1-.06-.1-.44.2-.2.3-.35.4-.5.1-.14.2-.3.4-.5-.2 0-.3 0-.3-.07 0 0-.1 0-.3.1-.7.7-1.7.9-2.7.7l-.4-.8c-.4.5-.7.8-.8.8-.1.1-.3.1-.7.2-.4.1-.9.4-1.4.9l-3 2.6c-.2.1-.3.2-.4.3-.1.1-.2.2-.4.3-.6.2-1.1.5-1.7.8l-1.5 1c-.5.3-1 .6-1.5 1s-1.1.7-1.6.9c-1.4.5-2.3 1.4-2.6 2.8v.2c-.1 0-.1.1-.1.2-.1.3-.2.6-.2.9 0 .3 0 .6-.1.9-.2.3-.4.6-.5.9-.2.3-.3.6-.4.9-.5 1.6-1 3.1-1.6 4.6-.6 1.5-1.2 3.1-1.7 4.6-.2.8-.4 1.6-.8 2.3-.3.8-.7 1.6-1.2 2.3-.3.3-.3.5-.1.6.2.3.2.6-.1 1-.4.8-.7 1.4-1 1.8h-.3v.2l.3-.1c.2.3.2.7 0 1-.2.3-.3.7-.4 1.1l-1.3 3c-.2.8-.2 1.3 0 1.6.1.3.1.7 0 1-.5.8-.3 1.4.4 1.6.5.3 1 .8 1.5 1.3.2.2.5.4.8.5.3.1.6.3.8.5.3.2.5.4.7.7.2.3.4.5.8.7.6.4 1.2.6 1.8.6.2 0 .6.1 1.1.2.8.5 1.8.5 2.9 0 .4-.2.8-.3 1-.4.3-.1.7-.2 1.1-.4 1.1-.7 2.3-1.4 3.4-2.2l3.2-2.4c1.1-.8 2-1.8 2.7-3.1.2-.3.6-.7 1.2-1.3l3.1-3.9c1.1-1.3 2-2.7 2.8-4.1.5-.6.9-1.2 1.3-1.8.4-.6.7-1.2 1.1-1.8.4-.4.6-.7.6-1 .2-.8.5-1.6 1-2.4.5-.8.8-1.6 1-2.4.1-.2.2-.4.2-.6 0-.2.1-.4.3-.6.4-.4.6-.7.6-1.1.1-.3.2-.7.4-1.1.1-.4.2-.7.1-1 0-.3 0-.6.1-1 0-.4.2-1.1.6-2 0-.6 0-1-.1-1.2zM321 74.1v-.17h-.45v.3h.44v-.15zm.42 6.36c-.1.1-.14.25-.14.44v.15h.14c.1-.1.15-.24.15-.43l-.15-.15zM267 113.02l-.02-.04h.15l-.12.03zm19.82-56.07v.14l-.15-.2c0 .1-.1.3-.28.7-.2.1-.4.2-.5.3v-.2c.1-.4.3-.8.6-1.3h.1c.1 0 .1.1.1.4zm-19.76-8.2c-.05-.05-.13-.08-.22-.08.2-.1.38-.24.58-.43l.3.3h.13l-.58.28c-.1 0-.17-.02-.2-.07zm-1.1 17.05c-.1-.37-.1-.64-.06-.8l.36-1.08.3-.14c0 .4-.06.72-.15 1.02-.1.3-.2.63-.4 1zm-3.9-14.65c.1-.1.15-.2.15-.3h.5l-.1.3h-.4zm-6.5 11.76c.08-.1.1-.3.06-.4-.05-.1-.03-.2.07-.4.2-.4.4-.6.5-.6h.8c.2 0 .3 0 .4.1.1.1.2.1.4.1-.5.6-.9 1-1.1 1.1-.3.2-.7.2-1.4.2zm.57 17.6l-.14.2.3-.3-.2.2zm-6.94-20.6c-.4.2-.6.1-.6-.3l.1-.1h.7c0 .3-.1.5-.3.5zm-8.3 11v-.1c0-.2 0-.3.1-.4h.3c-.1.1-.1.2 0 .3 0 .2-.2.3-.5.3zm.3-2.6l.1-.1-.2.2zm-.8.5c-.4.1-.7.3-1.1.5-.2.2-.4.2-.6-.1-.1-.2-.1-.3 0-.5s.2-.3.4-.3.4-.1.6-.1c.2 0 .3-.1.5-.4.3 0 .5 0 .6.2 0 0 .1 0 .1-.1 0 0 .1-.1.2-.1v.2c-.1 0-.2 0-.2.1 0 0-.1 0-.1.1s.1.3.1.5c-.3.2-.5.4-.8.5zm-7.8-2.2v-.1l.5-.3.1.1c-.3.5-.5.6-.7.4zm.7-.4l.1.2-.2-.1zm-2.6-1.9l.2-.2-.2.3-.1-.1zm-.7.2c.2-.1.3-.2.3-.3 0 0 .1 0 .2.1-.1.1-.3.2-.4.2h-.3zm-2.3-6.1c0 .1-.1.1-.2.1h-.2v-.1h.4c-.1 0-.2.1-.2.1zm-2.5 2.1l.2-.1h.1l-.2.2h-.2zm-.9 8l.3.5h-.5c0-.2 0-.3.1-.4zm.1.6l-.2.3V69c.1-.1.1-.1.1 0zm13.2.9c0 .1-.1.3-.3.5h-.3V70c.1-.1.1-.23.1-.42 0-.2.1-.3.4-.3-.1 0-.1.1.1.3l-.1.13zm-1.5 11h-.1c0-.2.1-.3.3-.5h.2c.1 0 .1.1.2.2-.1.1-.2.2-.3.2l-.3.2zm.6-.4zm2.9 14.6c0-.2 0-.3.1-.4h.1v.3c0 .1-.1.1-.3.1zm.3-.6l.1.2h-.1v-.1zm-27.8.7l-.5-.2h1c-.3.2-.5.3-.6.2zm-9.1 12.3h-.1c-.1-.5-.1-1.1-.1-1.5 0-.4.2-.9.6-1.3.3-.4.4-.7.5-1 .1-.3.2-.6.3-1v.2h.1c-.1.8-.2 1.6-.4 2.4-.2.8-.5 1.6-1 2.4zm-.9 2.3c0-.1.1-.5.3-1.1.3.3.3.9.1 1.8-.3-.3-.4-.5-.4-.6zm.3 1.7c0 .3 0 .6-.1.9v.9c.2.3.1.6-.4.8-.1 0-.1 0-.2.2 0 .1-.1.2-.3.3 0 .2-.1.3-.3.3-.1 0-.2 0-.3-.1.1-.2.2-.4.2-.5l.2-.5c.3-.4.3-.7.1-1-.1-.3-.1-.5 0-.6.1-.1.4-.3.9-.4l.3-.3zm-1.3 4.1c.1 0 .1.1.1.2-.2.8-.3 1.4-.4 1.9l-.2.2c-.3-.5-.3-1.1 0-1.9 0-.2.1-.3.4-.3zm-.3 3.8c0 .2-.1.4-.2.5h-.2c.1-.1.1-.2.1-.4h.1zm29-52.4c-.1 0-.1 0-.1.1h-.1.1zm8.5 73.5c-.2 0-.3-.1-.3-.3.1-.3.3-.6.5-.8v.1l-.3 1.1zm.4-.2v-.1.1zm80.2-43.3c-.2.3-.3.5-.4.5l.2-.6.1.2zM239 143.4v-.3h.07v.17c0 .1-.04.1-.06.2zm-.2 1.7l-.1.2h-.13c-.4-.4-.44-.7-.15-1.1.24-.2.4-.5.6-.8 0 .68 0 1.2-.1 1.5v.2zm-8.4-103.8l.06-.05-.05.2v-.16zm79.05-9.2h.3l.2.2c-.22.04-.4-.03-.5-.2zm.17-.6l.2.1.08.2-.28-.3zm.57-1.3l.2.07-.2.08v-.14zm10.1 9.72l-.5.25c.1-.4.3-.8.5-1.1l.5-1.3h.1c0 .56-.1.97-.2 1.2-.1.26-.3.57-.6.96zm-.6.3l.1-.05-.1.2v-.15zm-.6-8.13l.1-.2h.4l-.2.1h-.4zm-1 4.9c-.4-.4-.4-.8-.2-1.3 0 .2 0 .3.2.5l.3.6-.2.3c-.2 0-.3-.1-.3-.2zm0-1.5l-.2.2c0-.1-.1-.2-.1-.2h.1zm0-.5c0 .1.1.2.2.2l-.2.2-.1-.3zm-1-1.4h.3c.3.2.4.5.5.8 0 .3.1.5.1.7-.3-.2-.6-.7-1-1.3v-.1zm-1.8 0c-.1-.1-.2-.1-.2-.2l-.2-.2.3-.3c0 .1.1.3.2.5l-.2.1c-.1 0-.2 0-.2.1zm-2.7-2.6h.4v.2h-.5v-.1zm.1-.3c0 .1 0 .2-.1.2v.1h-.1l.1-.3zm-6.2-1.1h.3v.3h-.3v-.3zm-3.6-2.6c-.1 0-.1-.1 0-.2h.7l-.3.1h-.4zm-1.6.6l.1-.3h.4v.1l-.2.2h-.4zm-4.8-3.9l-.2.1c-.2.1-.4.2-.6.4 0-.2 0-.4.1-.5l.1-.2h.4zm-.4-1.6s.1-.1.2-.1.2.1.4.3h-.3c-.1 0-.2.1-.3.1l-.3-.3c.1 0 .1 0 .2-.1zM279 25.7h.4v.18h-.4v-.2zm-12.6 5.1c-.3-.2-.27-.44.12-.82.4.1.4.35 0 .74-.06.05-.1.1-.16.13zm-.1.1l.06-.06-.04.08zm0 0c-.1.1-.25.18-.36.24l.32-.22zm-.07-1.64c-.2-.1-.28-.2-.18-.3.1-.1.1-.2 0-.3l.3.13c0 .1-.05.2-.1.2-.05.1-.07.1-.07.2zm-2.9 2.9c.16-.2.26-.37.26-.47 0 .2 0 .4-.1.5h-.1zM250 34.54c-.57.2-1 .25-1.3.16.2-.4.4-.6.66-.6.24-.02.5-.1.8-.2.1 0 .14.1.14.3 0 .1-.05.17-.15.2-.1.06-.14.14-.14.23zm-5.7 2.54c-.03-.1-.1-.2-.1-.2 0-.2.1-.3.3-.3l.3.1c-.1.1-.2.13-.3.2-.06 0-.12.1-.2.1zm-.1 0c.05 0 .1-.05.1-.08.04.04.03.07.06.1h-.14zm-16.92 3.2v-.15l-.44-.2c-.1-.06-.24-.18-.43-.38l1.5-.73c-.2.3-.3.57-.3.8 0 .26-.1.48-.2.67zM52.26 65.2c0-.2.03-.32.08-.42.04-.1.07-.23.07-.43.2 0 .3.14.3.44-.1.1-.1.3-.1.5h-.3zM53 60c.18.5.13 1.12-.16 1.9v.28c-.3-.77-.24-1.5.15-2.17zm-2.76 12.05v-.14c.1-.1.14-.1.14-.2 0 .1-.02.2-.07.2v.2zm-24.1 29.7l.5-.23.3.15-.3.3c-.4.18-.73.33-1.02.42.1-.1.15-.3.15-.5h-.15c.2-.1.37-.2.5-.2zM51.46 91.5c.04 0 .07-.04.07-.14l.58-.14c.8 0 1 .3.6.87-.2 0-.4.2-.6.4-.4.3-.5.6-.3.8.1.1.2.1.2.2l.2.2c0 .2-.1.4-.3.6-.2.2-.4.3-.7.3s-.5-.1-.7-.3c0-.2.1-.6.3-1.2-.2-.1-.4-.2-.6-.2-.2 0-.4-.2-.5-.5 0-.4-.4-.7-1.1-.9-.2 0-.3-.2-.3-.6.1-.3.4-.4.8-.4h1.3c.1.5.3.9.8 1 0-.1 0-.2.1-.2.1-.1.1-.1.1-.2.2.1.2.1.1.2-.1 0-.2.1-.2.2h.6v-.2c0-.1 0-.2.1-.2zm140.2-51.24c0 1.36-.13 2.66-.42 3.92-.1.2-.12.4-.07.66.04.24.02.46-.08.65-.1.2-.2.6-.2.9-.1.3-.3.6-.6.9-.1.1-.2.2-.2.3 0 .1-.1.2-.2.4-.2.3-.2.5 0 .7.2.2.2.4.1.7-.4.6-.6 1-.5 1.3.1.3.1.6 0 .9l-.3.8-.5 1.5-.4 1.5c0 .2-.1.4-.1.6l-.3.6c-.2.3-.2.5 0 .7.2.3.2.6 0 .8-.1.3-.3.5-.5.8-.2.4-.4.7-.5 1.1l-.5 1.1c-.2.5-.2.8-.1 1 .2.5.1 1-.2 1.7-.8 2.1-1.6 4.2-2.3 6.3-.7 2.1-1.5 4.2-2.3 6.3-.2.6-.4 1.3-.5 1.9l-.5 1.9-.6 2c-.1.6-.5 1.3-.9 2-.2.2-.3.3-.3.5 0 .1-.1.3-.2.5-.2 1.1-.5 2.3-.9 3.4-.5 1.1-.9 2.2-1.4 3.2-.2.5-.4.9-.6 1.3-.2.4-.4.8-.6 1.3l-.2.3.1.8c.3-.4.6-.9 1-1.5.4.2.4.5 0 .8-.4.7-.5 1.3-.4 2 .3.4.2.8-.3 1.3-.2.2-.4.5-.6.8-.2.3-.5.4-.9.3-.4-.1-.6.1-.8.7l1.7.4c-.2.5-.4 1-.6 1.4-.3.5-.5.9-.7 1.4-.1.4-.3.7-.7.9-.3.2-.6.4-.8.7 0 .2.1.3.3.2.2-.1.4-.1.5.1-.4.8-.7 1.5-1 2.2-.2.7-.6 1.5-1.1 2.3-.2.2-.3.4-.3.6-.1.5-.2 1.1-.5 2-.2.9-.5 1.6-.8 2l-.4.4c-.1.1-.1.2 0 .3.2.4.2.9 0 1.4l-.6 1.5c0 .2-.2.3-.6.3-.7.1-1.2.4-1.4.8-.2.4-.3.6-.3.8l.2.1h.3v-.8h.2c0 .1.1.1.2.1.2-.1.4-.2.5-.2l.5-.3c.1.4 0 .8-.2 1.1-.2.3-.4.6-.5.9-.2.5-.4.7-.8.8-.3 0-.6.2-.8.5 0 .4.1.7.2.9 0 .4-.2.8-.6 1.1-.7.4-1.1 1-1.3 1.9-.2.7-.3 1.1-.3 1.3 0 .2.1.6.3 1.2-.2.2-.4.3-.6.4-.2.1-.4.2-.6.4.1.4.2.6.3.7 0 .1.3 0 .8-.2l-.9 1.7c-.3.5-.6 1-.8 1.5.5.7.5 1.6.1 2.4-.1.5 0 .9.3 1.4.4.4.4 1.1 0 2-.1-.1-.2-.2-.3-.2-.3-.3-.6-.3-.9 0-.7 1.1-1.6 1.6-2.6 1.4-.1.2-.2.3-.1.4 0 .1-.1.2-.2.3-.7.7-.8 1.2-.3 1.6-.1.4.1.6.7.6.5 0 .6.1.3.4 0 .2-.2.3-.5.3-.3.1-.7.1-1 .1h-.7c-.2.1-.5.1-.6.1-.2 0-.4 0-.6-.1l-.6-.3h-.4c-.2-.2-.2-.4 0-.7.2-.3.2-.5 0-.7-.2-.2-.3-.4-.4-.7-.1-.3-.1-.5-.2-.7 0-.2-.2-.3-.6-.3-.5 0-.7-.3-.7-1-.8.5-1.3.9-1.4 1.4-.2.4-.2.9-.1 1.4l.4.4c-.2.2-.4.3-.6.2-.2 0-.4 0-.6.2-.2.2-.4.3-.6.4-.1.1-.3.2-.5.4-.2-.1-.3-.2-.4-.2 0 0-.1-.1-.3-.2-.1.4-.2.9-.4 1.4h-.6c0-.2-.1-.3-.1-.5-.1-.1-.1-.3-.1-.5-.4-.2-.7-.1-1 .2-.3.3-.6.5-.9.7.1-.5.1-1.1.1-1.9-.3-.1-.5 0-.7.4 0 .2-.1.5-.3.9h-.6c-.2 0-.3-.2-.3-.5.3-.3.3-.5-.1-.5-.5 0-.7-.4-.7-1.1V139c-.2-.4-.2-.83 0-1.32.3-.7.4-1.3.3-1.9 0-.6 0-1.18.1-1.7.1-.2.1-.3 0-.4-.1-.1-.1-.2-.1-.4v-.7c.4-.5.6-.9.7-1.3.1-.4.1-.8.1-1.2 0-.4.2-.9.6-1.5.2-.38.4-.7.5-1.08l.3-1.1c.1-.6.2-1.2.5-1.7s.4-1.1.6-1.7c.3-.7.6-1.3.8-1.98.2-.67.5-1.3.6-2 .2-.8.2-1.3 0-1.6-.2-.4-.2-.8.1-1.2l.8-1.1c.2-.37.5-.7.7-1.1.2-.6.2-1.1.1-1.48.1-.3.1-.57.2-.86 0-.3.2-.6.3-.9v-.4c-.2-.4-.2-.7.1-1l.9-.9c0-.3-.1-.5-.1-.5-.5-.3-.5-.6.1-1 .5-.5.8-.9 1-1.3.3-.6.2-.9-.3-1-.4.57-.7 1-1 1.3l-.6.6c-.2.3-.3.5-.2.7.2.3.1.5-.2.7-.3.2-.5.4-.6.7l-.3.6c-.1.3-.1.5-.1.7-.3.4-.6.9-.8 1.7-.2.1-.3.1-.3 0s.1-.2.2-.3c-.2-.2-.3-.4-.3-.4l-.4.3c-.6.7-1.1 1.5-1.6 2.2-.6.7-1.1 1.4-1.5 2.2-.3.7-.7 1.3-1.2 1.9l-1.4 1.8-.6.8c-.2.2-.4.5-.6.8-.2.5-.5.9-.8 1.35l-1.1 1.4c-.6.7-1.1 1.45-1.6 2.3 0 .1-.1.17-.2.2-.1.07-.1.14-.1.24-.1.8-.5 1.6-1.1 2.3-.6.7-1.2 1.4-1.6 2.2-.2.4-.4.7-.8 1.1-.3.3-.6.7-.9 1l-.8 1.3c-.3.4-.6.7-1 1.1-.4.3-.6.7-.8 1.1-.3.4-.6.7-.9 1-.3.3-.5.6-.7 1.1-.3.4-.7.9-1.3 1.5l-1.3 1.3s-.8.82-1.1 1.3l-.8.73c-.3-.3-.4-.5-.3-.5-.3.1-.6.2-.9.2-.3.04-.7.26-1.2.64l-1.8 1.8c-.7.6-1.4 1.1-2.1 1.6-.6.4-1.2.7-1.7 1-.5.2-1 .3-1.5.1h-.6v1.3c-.1.1-.2.2-.4.3-.2.1-.3.2-.5.4-.2.1-.3.2-.3.3 0 .1-.1.1-.2.1-.5 0-.8.1-.9.3 0 .2 0 .3.1.4 0 .1.1.26.1.46.1.3-.1.7-.5 1-.6-.5-1.5-.7-2.6-.5-.5 0-.8-.2-.8-.6-.1-.57-.4-.8-1.1-.7-.8.2-1.3.6-1.6 1.3-.7-.9-1.8-1.56-3.2-2.04-.4.4-.6.7-.7.9-.2 0-.3 0-.3-.1-.2-.3-.3-.5-.5-.8-.1-.2-.2-.5-.2-.9 0-.2-.1-.4-.3-.6-.2-.2-.3-.4-.4-.6-.1-.2-.2-.35-.4-.5-.1-.14-.2-.3-.1-.5.1-.6 0-1-.3-1.3-.8-.4-1.1-1.05-1-2 0-.9-.2-1.7-.4-2.5-.2-.9-.2-1.74 0-2.6l.3-2.6v.1c0-.2.1-.34.2-.55l-.2.2c0-.7.1-1.5.1-2.2-.2-.3-.2-.5 0-.7.4-.5.5-1 .5-1.4-.1-.4-.1-.9-.1-1.4.2-.9.4-1.7.7-2.6.3-.9.5-1.7.7-2.6.1-.2.2-.2.3-.1.1.1.3.1.4 0 .2-.5.4-1 .5-1.5 0-.5.1-1 .2-1.5l-.3-.1c-.1 0-.2.1-.3.2v.5c0 .2-.1.3-.3.4-.1.1-.2.1-.4 0s-.2-.2-.2-.4c.2-.9.5-1.5.8-1.9.4-.4.6-.7.7-.9v-.5l-.2.1c0 .2-.1.3-.5.3-.2 0-.3-.1-.3-.1l-.5.1c-.6.1-1.1.2-1.7.4-.6.2-1 .4-1.4.5-.4.2-.8.4-1.2.5-.4.1-.7.2-1 .4-.2 0-.4-.1-.5-.1-.2 0-.3 0-.5.1-.7.2-1.1.5-1.3.9l.9.2c.2.1.5 0 .9-.1v-.5l-.1 1c.3.7.2 1.2-.5 1.6-.8.4-1.3.7-1.6.9-.1.1-.1.1-.2.1-.5-.2-1-.1-1.4.2-.4.3-.9.5-1.4.7-.2.2-.4.3-.6.3-.6 0-1.1.1-1.7.4s-1.1.5-1.5.8c-.5.2-1 .4-1.3.4-.8 0-1.5.1-2.1.5-.7.3-1.4.6-2.1.8-.2.3-.5.4-.8.5-.3 0-.5.1-.7.2v.2c-.1.1-.1.2 0 .3l1.2-.3 1.2-.3c.3-.1.6-.2 1-.2-.3.3-.5.5-.7.6-.1.1-.6.3-1.2.7l.4.2.4.2c-.2.4-.5.6-.9.7-.4 0-.6.2-.8.5-.1.1 0 .1.4.1h.7c.1.1.1.2.1.4s.1.2.4.1h1c0 .5 0 .7-.1.8l-.5.5c-.3.2-.6.3-.8.4-.3.1-.5.2-.8.3-.8.2-1.5.5-2.1.9-.7.4-1.4.7-2.1 1-.2.1-.4.2-.5.3-.1.1-.3.2-.5.3-.4.2-.6.3-.7.3-.3-.3-.8-.3-1.3.1-.3.1-.7.3-1.1.5-.5.3-.7.5-.7.7l.5.4c0 .1.1.2.3.2-.5.5-1 .8-1.4.9-.5.1-1.1.1-1.8.1 0-.3.2-.4.5-.4.2 0 .4-.1.6-.3.2-.1.3-.3.3-.5-.3-.2-.6-.2-.7 0-.7.2-1.5.5-2.2.8l-2.3.9c-.4.2-.7.3-1.1.4-.3.1-.7.2-1.2.4-.2.1-.4.2-.5.2l-.5.2c-.3.2-.6.2-.9 0-.5-.1-1 .2-1.6.9-.4 0-.9-.1-1.2-.2-.3-.2-.7 0-1.2.3l-.2-.1c-.1 0-.1-.1-.1-.2-.1-.1-.1-.2 0-.3.1-.1 0-.2-.1-.3-.2-.3-.4-.3-.6-.1-.2.4-.5.6-.9.5-.4 0-.8.2-1.1.7h-1c-1.1.9-1.6 1.7-1.6 2.4.1.4.1.7 0 1s-.2.5-.4.8l-.4-1c0-.2 0-.6.2-1.3.3-.6.2-1-.3-1.3-.3-.1-.4-.4-.4-.9l.3-3.5c.1-1.2.3-2.3.5-3.5.2-.4.4-.7.5-1.1.1-.3.3-.7.6-1.1.4-.7.6-1.5.6-2.3 0-.4.2-.8.5-1.3.4-.8.4-1.3 0-1.6v-.6c.2-.6.4-1.2.5-1.7.2-.6.5-1.1 1-1.6s.6-1 .4-1.5c-.1-.3.1-.9.5-1.7.5-.9.9-1.7 1.1-2.6.2-.9.5-1.7.8-2.6l1.6-3 .2-.4c-.7 0-1.4 0-2.1.1-.3 0-.7-.1-1-.3-.7-.4-1.4-.2-2.2.5-.3.2-.6.4-.8.5-.3.1-.4.4-.5.8-.1.2-.3.4-.5.7-.3.2-.5.5-.7.8 0 .1-.1.1-.2.1-.5.1-.7 0-.8-.4v-.1.1l-.4.5c-.1-.4-.1-.6-.1-.7l-.2.2c-.1.2-.2.5-.3.8 0 .3.1.4.1.4.5-.1.8.2 1 .8.3-.2.4-.4.5-.8.1-.3.4-.4.9-.3-.1.4-.4 1-1 1.8-.4.5-.7 1-.9 1.5-.3.5-.5 1-.7 1.4l-.3.3c-.1.2-.1.4-.1.6s-.1.5-.2.7c-.1.2-.2.4-.2.7-.1.3-.3.5-.7.5v.4c-.2.8-.6 1.5-1.1 2.1-.5.7-1 1.3-1.6 1.8-.1.1-.5.3-1.2.5.4.6.7.9.8 1l-.8 1.3c-.2.2-.4.4-.5.7-.2.2-.3.5-.3.8l-.1.1c0 .1-.1.2-.2.2-.4.1-.7.3-1 .6s-.4.5-.6.7c-.2.5-.5.9-.8 1.4-.4.4-.6.9-.8 1.3-.4.8-1 1.5-1.8 2.3-.2.2-.4.4-.7.5-.3.2-.4.5-.4.9-1 1.2-2.1 2.2-3.2 2.9-.4.2-.6.3-.6.4-.2.4-.4.6-.8.7-.3.1-.6.4-.8.7-.3.7-.6.9-1.1.6-.5-.3-.7-.3-.7.1-.3.4-.7.9-1.3 1.4-.9 1.1-1.9 1.7-3 1.9-.2.2-.5.3-.7.3l-.1-.1-.2.1-.4.2-.4.7c-.2.1-.5.3-.8.6h2c.1.3.1.8.1 1.4l.4.3.4.2c-.3.2-.5.3-.8.4l-.8.4H21c0-.2-.04-.3-.1-.4-.2-.6-.5-.8-1.1-.7-.3 0-.5 0-.6-.1-.2-.2-.3-.4-.3-.6-.1-.2-.3-.3-.8-.2-.3.1-.6.1-.8 0s-.5-.2-.8-.3c-.5-.4-1-.3-1.6.3-1.2-.1-2.1-.6-2.8-1.5v-.1H12c-.3 0-.43.1-.43.3 0 .1.05.2.15.3.38 0 .67.2.87.6.2.2.2.5 0 .8-.2.3-.4.5-.7.7h-.5c-.1 0-.3-.1-.5-.3-.3-.3-.6-.6-.8-.9-.3-.3-.5-.6-.7-1-.3-.3-.4-.6-.2-1h.4c0-.1 0-.2.1-.3l-.8-.5c-.2-.2-.6-.2-1.1 0-.1 0-.3-.1-.6-.4.2-.1.4-.2.5-.4 0-.4-.2-.6-.5-.7-.4-.1-.6-.3-.7-.6-.1-.3-.4-.8-.8-1.4-.3-.3-.5-.6-.5-.9-.2-.3-.4-.4-.7-.4-.6-.1-.9-.5-.9-1.2-.2-.8-.4-1.4-.7-1.7-.5-.4-.5-1.1 0-2.2.1.4.4.5.8.4l.1-.2c0-.3-.1-.4-.2-.4-.5-.2-.8-.5-.8-.8-.1-.2-.1-.6-.1-1 0-.2-.1-.3-.2-.4l-.4.4-.2.3c-.1.1-.2.3-.2.4v-.3c-.3-.3-.4-.5-.5-.7L1 136c.2-.2.4-.3.6-.4.2-.1.2-.3.1-.7-.3 0-.5-.1-.6-.2 0-.1 0-.2.1-.3 0-.2 0-.3.1-.4-.2.2-.3.3-.3.4v.3c-1-.5-1.1-1.3-.5-2.4.3-.6.4-1.1.4-1.7s0-1-.1-1.5c-.2-.7-.2-1.4-.1-1.9.1-.4.2-.9.2-1.5v-.9c-.2-.2-.4-.2-.6 0-.2.2-.4.3-.6.3-.2-.5-.2-.9 0-1.3s.4-.8.6-1.3c-.4-.4-.6-.9-.5-1.4 0-.5.1-1.1.2-1.7.4-.1.5 0 .4.2s-.1.4.1.5H1c.2-.6.4-1 .6-1.3.3-.9.3-1.6 0-2-.43-.6-.4-1.3.2-2.2.3-.4.45-.8.45-1.3l-.1-.1c-.3 0-.47.1-.47.3 0 .2-.04.3-.13.4 0 .2-.1.4-.3.6.2-.7.22-1.3.12-1.8-.1-.6.1-1.1.6-1.7.2-.2.3-.4.3-.6v-.6l-.17.13v-.5l.14-.2c.1-.6.2-1.1.44-1.6l1.2-2.6c.8-1.1 1.4-2.3 1.8-3.5l1.4-3.7.6-1.5c.2-.5.36-1.1.56-1.5l.3-1c.1-.4.25-.6.44-.8 1.1-.9 1.7-1.9 1.8-2.9l.4-.5c.4-.2.5-.4.3-.6-.2-.3-.1-.8.18-1.5.1-.2.1-.4.07-.5 0-.1 0-.3.1-.4 0-.2.05-.3.1-.4.04-.1.07-.3.07-.5.2-.3.4-.5.7-.5.2-.1.33-.2.33-.5.1-.3.2-.5.4-.7l.5-.6c.2-.2.3-.4.3-.7 0-.3.1-.5.3-.7.2-.4.4-.9.6-1.5 0-.7.4-1.6 1.3-2.4 0-.2.1-.3.3-.3.45-.2.7-.48.7-.78 0-.5.3-1.1.86-1.9.2-.2.2-.3.2-.4-.1-.1 0-.2 0-.4.2-.3.3-.6.5-.9.1-.3.3-.7.5-.94.3-.5.6-.9.8-1.4.2-.4.6-.8 1.2-1.2.3-.3.4-.5.4-.5.1-.6.3-1.2.7-1.6.4-.5.7-1 1-1.5.2-.5.4-.9.7-1.3.3-.4.5-.8.7-1.3l.9-1.1c.3-.3.6-.7 1-1.1.3-.3.5-.6.8-.9l.6-.9c.4-.6.8-1.2 1.1-1.8.4-.6.8-1.1 1.2-1.6.2-.2.4-.5.5-.8.1-.4.2-.7.4-1 .2-.3.4-.5.7-.7.3-.2.5-.4.7-.7 0-.2 0-.4.2-.5.1-.1.2-.3.2-.5-.1-.5 0-.9.3-1.2.3-.3.5-.6.7-.9l1.8-2 1.9-1.5c.2-.2.4-.4.5-.6l.5-.6c.4-.4.7-.6.8-.8.2-.6.5-1 .9-1.1.4-.2.8-.4 1.2-.7.5.1 1-.2 1.6-1 .2-.4.5-.7.9-1 .4-.3.6-.7.8-1.2 0-.3.2-.4.5-.4.5-.1.9-.3 1.3-.7.5-.4 1-.8 1.5-1.1.5-.3 1-.7 1.5-1.1.2-.2.4-.3.7-.4.3-.1.5-.3.7-.5.6-.2.9-.4 1-.6.4-.4.8-.7 1.1-.9.4-.2.7-.4 1.1-.6.3-.2.6-.4.8-.6.3-.2.5-.4.8-.6.2-.2.5-.3.7-.3.3 0 .6 0 .8-.1.4-.2.8-.4 1.1-.5.3-.2.6-.4.8-.8.4-.5.8-.9 1.3-1.1.5-.2 1-.5 1.4-.8.3-.2.8-.2 1.5 0l.4.2c.1.1.2.1.4.2.1 0 .2-.1.4-.3V28c0-.2-.1-.3-.2-.3-.1-.07-.2-.2-.2-.4l-.5-.44c.3-.2.4-.2.5 0 0 .2.1.3.2.4.2.2.3.4.3.6 0 .2.2.4.4.6.1.2.3.36.5.45.3.1.5.2.7.4.1.2.2.3.2.5.1.1.2.3.4.5 0 .1.2.1.6.1 0-.1 0-.2-.1-.2 0 0-.1-.1-.1-.2-.3-1.5-.9-2.5-1.9-3.2-.2-.2-.2-.4 0-.7.6-.6 1-.8 1.2-.6l.5.4c.5.8.9 1.5 1.2 2.2.4.7.6 1.5.7 2.3.2.5.3 1 .4 1.4.1.5.3.9.5 1.4-.2.2-.3.4-.3.6-.1.2-.2.4-.4.5.9 1 1.3 2.3 1.1 4.1v.9c0 .3-.1.6-.1.9.1.4.2 1 .2 1.5s-.1 1.1-.3 1.6c-.2.4-.3.9-.1 1.5.2.5.3 1 .2 1.6-.1.5-.2 1.1-.2 1.7-.1.4-.1.8-.1 1.1 0 .3 0 .7-.1 1.1v.9c0 .3-.1.6-.4 1-.1.1-.2.3-.2.6.3.7.2 1.3-.2 2-.2.3-.2.6-.1.8s.1.5-.2.8c-.2.2-.3.4-.2.6.1.2.1.4.1.6-.2.8-.3 1.5-.5 2.2-.1.6-.2 1.4-.2 2.1.1.6.1 1.2-.1 1.8-.2.6-.3 1.1-.3 1.7 0 .4-.1.8-.2 1.2l-.5 1.3c-.1.3-.2.6-.2.9-.1.3 0 .5.2.7v.5c-.4.7-.7 1.3-.9 2-.2.6-.6 1.2-1 1.8-.1.2-.3.6-.5 1.1-.5 1.9-1.3 3.6-2.1 5.1l-.4.9c-.3.2-.7.4-1 .5 0 .4.1.7.2.9l-1.4.9c-.4.3-.9.6-1.4.9-.2-.2-.3-.3-.5-.4-.1-.1-.3-.2-.5-.4-.4.6-.6.9-.7 1.1h-2c-.2.2-.4.4-.4.6 0 .3-.2.5-.4.7-.4.5-.7.6-1 .3-.4-.4-.7-.7-1-.9-.2.1-.4.2-.6.2l-.7.2c0-.3 0-.5.1-.8s.1-.5.1-.8l-.7.5c-.2.4-.4.7-.7 1s-.5.5-.7.8c-.3.4-.5.5-.7.4-.2-.4-.2-.7 0-.9.1-.1.2-.1.3-.2.1 0 .2-.1.3-.2v-.1c-.1-.2-.5-.3-1.2-.3-.5 0-.7-.2-.7-.7 0-.8.1-1.4.4-1.7.2-.2.3-.6.4-.9.1-.3.3-.6.6-.9.6-.4.6-.7.1-1 0-.1 0-.2-.1-.3 0-.1-.1-.2-.1-.3.2-.4.4-.5.6-.4.4 0 .6-.2.6-.5.3-.7.4-1.4.4-2.2l-.3-.4c-.2-.2-.4-.3-.4-.5 0-.1.2-.5.5-1.2 0 .1 0 .2.1.2.1.1.1.2.1.3 0 .2 0 .4-.1.5 0 .2 0 .2.2.2.3 0 .4-.2.4-.5.2-.3.4-.7.6-1.3V73c-.5-.78-.3-1.4.7-1.9.1-.1.2-.34.4-.7.2-.8.4-1.5.5-2.2.1-.68.3-1.4.4-2.18-.3.1-.5.2-.5.34-.1.15-.2.3-.4.5H52c.2-1.34.4-2.65.5-3.9l.3-3.93.3-1.5c.1-.52.2-1.1.4-1.66H53l-1.1.3c-.32.1-.54-.1-.63-.6 0-.1-.1-.15-.4-.15-.53.3-1.1.56-1.7.8-.55.25-1.1.56-1.6.95l-.1.07h-.1c-.4.28-.8.5-1.2.7-.46.24-1.04.55-1.7.94l-.73.8c-.3.38-.6.7-.9 1.1-.46.8-1 1.55-1.6 2.28-.55.7-1.1 1.44-1.56 2.22-.3.3-.55.6-.75.87l-.6.87c-.4.6-.8 1.18-1.1 1.76-.3.56-.77 1.14-1.2 1.72-.2.3-.4.54-.6.8-.2.22-.27.54-.2.92 0 .2-.1.43-.2.7l-.52.9c-.4.7-.9 1.35-1.2 1.98-.3.64-.6 1.34-.8 2.1-.2.4-.3.65-.4.74-.4.3-.7.64-.8 1.03-.1.4-.3.73-.5 1.12-.7.7-.9 1.6-.7 2.4.3.8 0 1.5-1 2.3-.3.3-.4.6-.5.9 0 .3-.2.7-.4 1.1 0 .1 0 .2.1.2.1.1.1.1.1.2.1.1 0 .5-.4 1.1-.2.2-.3.4-.3.7 0 .3-.2.5-.4.7-.4.5-.5 1.3-.3 2.1-.1.1-.1.2-.1.4s0 .4-.1.5c-.1.4-.1.9-.1 1.2 0 .3-.1.7-.3 1.2-.4.9-.6 1.7-.7 2.3-.2.5-.4 1-.5 1.6-.2.5-.2 1-.1 1.5-.5.7-.8 1.5-.8 2.2v2.2c.3.2.4.3.4.3l-.5.5c0-.3-.1-.3-.4 0 0 .2 0 .3-.1.4-.2 1-.4 1.7-.6 2.2 0 .4.1.6.2.7.2.1.3.3.3.6v-.1h.2v.1s.1 0 .1.1-.1.2-.3.2v.1c.1.5.2.7.3.8.1 0 .4-.1 1.1-.3-.2-.2-.3-.3-.5-.3.4-.4.6-.7.6-.9.1-.1.1-.3-.1-.5l.8-1.1c0-.3.1-.6.2-.9.2-.3.2-.6.1-.9-.1-.1 0-.3.1-.4.2-.2.2-.3.1-.5 0-.4 0-.8-.1-1.1l-.3-1.1c.2-.3.4-.6.5-.9.2-.4.5-.6 1.1-.7 0 .3-.1.5-.4.7-.3.1-.4.3-.3.6.3-.2.5-.4.8-.5l.8-.4c-.2-.5-.3-.8-.2-.9 0-.1.2-.2.6-.4.7-.3 1-.7 1-1.2-.2-.3-.1-.5.3-.7.1-.1.2-.1.3-.2.1 0 .2-.1.3-.2.3-.2.5-.4.5-.6V98c.6-.5 1.2-.8 1.9-.7.7.2 1.3.2 2 .1s1.4-.3 2.2-.5c1-.2 1.7-.3 2.2-.3.3 0 .6 0 .9.1.3 0 .6 0 1-.2.2-.2.5-.2.8 0 .5.3 1 .4 1.6.3.6 0 1.2-.1 1.8-.2 1 0 1.7.1 2.2.2.7.1 1.3.3 1.9.4.6.2 1.2.1 2-.1.4-.1.7 0 1 .2.2.2.5.4.8.5.3.1.7.1 1.1-.1.4-.14.7-.12 1 .08.1.1.2.2.3.2.1 0 .2 0 .4.1l1.4-1.3c.5-.5 1-.9 1.6-1.2 0 .5-.1.9-.4 1.2-.3.3-.5.55-.7.84.1.3.4.4 1 .4.5.1.9.14 1.3.14h.9c.1-.2.2-.3.3-.4.1-.1.2-.23.3-.43 1.2.4 2.2.6 2.8.6.5 0 1.2-.1 2.1-.3l.3-.6c-.2-.3-.1-.45.2-.5l.2-.5c.3-.64.4-1.3.3-1.97 0-.1.1-.3.4-.57.4-.4.5-.8.4-1.3-.3-.5-.2-1 .3-1.5.1-.1.1-.2.1-.3-.2-.4-.2-.7.1-1 .2-.3.4-.6.6-1 .4-.7.6-1.4.6-2.2-.3.2-.4.4-.4.7.1.3-.1.5-.5.5l-.3-.3.3-1.3c.1-.4.1-.9-.1-1.3-.1-.2-.1-.6.1-1 .6-.6 1-1.2 1-1.9.1-.4.1-.8.1-1.1 0-.3.1-.6.4-1 .1-.1.2-.3.2-.5-.1-.3-.2-.6-.2-.9l-.3-1.1c-.1.6-.3 1.1-.5 1.4 0 .3-.1.7-.4 1-.5.7-.7 1.5-.7 2.1h-1c.2-.6.4-1.2.5-1.8L69 78c.2-.5.36-1 .45-1.5l.3-1.55c.1-.9.3-1.74.5-2.6.26-.9.5-1.75.8-2.6l.3-.9c.1-.3.15-.6.15-.9 0-.7.2-1.4.7-2.2.4-.7.68-1.4.87-2.2.2-.7.4-1.3.5-1.9.2-.63.4-1.3.7-1.96.4-1 .7-2 .87-3.1v-1c0-.3.27-.6.76-.9.2-.2.27-.4.27-.6.1-1.6.7-3.3 1.9-5.2.15-.5.32-.9.5-1.3l.33-1.3c.1-.2.14-.5.2-.8.04-.3.2-.6.4-.8.4-.8.7-1.7.93-2.6.2-.9.5-1.7.9-2.6.73-2.4 1.8-4.5 3.14-6.4.5-.5.8-1 1-1.7.2-.4.4-.8.5-1.1.18-.3.3-.7.5-1.1l.47-.4c.5-.1.9-.3 1.18-.8.3-.8.8-1.3 1.6-1.7.4-.2.5-.6.3-1 0-.3-.1-.6-.3-.8.3-.4.5-.7.66-1 .1-.3.3-.6.5-.9.4-.5.7-.6 1-.3.1.4.4.5.8.3.5-.2.6-.1.3.4-.2.5-.4 1-.6 1.3.1.2.2.2.3.1.1-.1.17-.2.17-.3.2-.4.47-.7.8-.9l.95-.6c.2-.5.2-.8-.1-1-.3-.2-.37-.5-.17-1 .2-.1.44-.1.7-.2.3 0 .5-.1.7-.2-.2.7-.3 1.1-.3 1.3 0 .2.1.5.3 1 .7-.1 1.1-.1 1.3 0 .2.1.4.3.6.6.2.2.2.4 0 .6-.3.3-.4.6-.3.8 0 .3.04.5.04.7.2.1.4.1.6-.1.2-.1.23.1.13.5.2.5.5.6.88.3.2-.2.4-.3.6-.5.2-.1.4-.3.6-.5.4.5.38 1.1-.1 1.8-.2.4-.35.8-.5 1.1l-.5 1.1c-.2.4-.1.6.3.6l.6-.3c.1-.1.1-.1.1-.2 0 0 .05-.1.15-.2.55.4.5.8-.18 1.2-.4.3-.7.7-.9 1.3l-1 2.4c-.3.9-.6 1.7-1 2.6 0 .2-.1.5-.3.9-.1.5-.18.9-.2 1.3-.07.4-.3.8-.68 1.1l-.1.1-1.5 3.6v.2c-.1.1-.1.2-.1.4l-.05.1-.1-.1v.1l.1.1c-.1.1-.2.2-.2.3-.4.8-.7 1.7-1.1 2.5-.1.2-.2.5-.2.9.2.4.4.6.7.6.5-.6.8-1.2.9-1.9-.2-.3-.2-.5 0-.8-.1-.4.2-.6.9-.7.4-.7.4-1.3 0-1.6l.14-.3c.5-.5.85-1 1.1-1.6.2-.6.54-1.1.9-1.6h.2c.3.4.2.9-.3 1.5-.7 1-1 1.8-1 2.6.1.5 0 1-.3 1.6-.2.3-.4.7-.6 1.3-.2.5-.36 1-.5 1.5-.12.5-.3.9-.5 1.4-.5.6-.5 1.3-.12 2.1.3.3.37.5.3.7l-.3 1.1-.3 1.1c-.1.2-.2.3-.2.5l-.24.5c-.4.5-.7 1-.9 1.5L92 59c-.2.4-.04.6.44.6.2-.9.4-1.7.6-2.2l.4.3c.1 0 .16.1.16.3-.2.3-.4.6-.5.9-.2.3-.3.6-.4.9-.1.3-.1.5 0 .8s.1.5 0 .8c-.3.9-.6 1.9-.8 2.8-.26.9-.57 1.8-.96 2.8-.5 1.3-.95 2.9-1.44 4.6-.2.7-.1 1.2.3 1.6.2-.2.37-.4.4-.6.06-.2.1-.4.2-.6l1.3-4.3c0-.2.1-.5.3-.8l.4-.4c0 .8-.2 1.7-.7 2.6-.5.9-.8 1.8-.9 2.6v.9c-.16.4-.3.9-.38 1.4-.2.5-.3.9-.3 1.3s-.04.8-.14 1.3c-.2 1.17-.54 2.2-1.02 3.06-.2.5-.34 1-.43 1.4-.3-.3-.53-.7-.73-1.1.1-.5.3-.9.65-1.3.33-.4.26-.8-.2-1.2h-.17c-.3 1-.7 2.1-1.3 3.2-.2.3-.3.6-.3.9 0 .3-.1.7-.3 1.1-.2.8-.4 1.7-.7 2.6-.3.8-.6 1.7-1.1 2.6-.2.2-.3.5-.3.8 0 .4-.1.7-.2 1.1-.2.3-.3.7-.4 1.1-.2.8-.3 1.4-.4 1.9-.2.3-.5.6-.8.9-.4.3-.6.7-.8 1.1l-.6 1.1c-.2.3-.3.7-.3 1.1l-.3 1.7c-.1.6-.3 1.1-.5 1.7l-.3.1c-.2 0-.3-.1-.3-.3 0-.3.1-.7.3-1.3-.2 0-.4.1-.5.2-.1.1-.3.3-.5.4-.7.3-.9.7-.7 1.3 0 .2 0 .3-.1.3s-.3.1-.8.2c-.1-.3-.1-.6.1-1l.3-1.1V99c0-.33 0-.7.1-1.1-.2.2-.4.48-.5.8-.1.36-.3.57-.7.67l-.3.27c-.2.3-.3.6-.3.96 0 .14 0 .26-.07.38 0 .2-.1.4-.3.58 0 .3 0 .57-.1.86-.1.3-.1.58-.1.87.3.2.5.1.8-.2.2-.3.5-.4.9-.2-.4.6-.6 1-.7 1.3l-1.3 3c-.1.3-.2.4-.3.3-.1-.1-.2-.1-.4-.1-.2.2-.3.3-.3.4l-.8 3c-.1.1 0 .3.2.5.2 0 .3 0 .4-.1.1-.1.2-.1.4-.1.6 0 1-.1 1.2-.3.6-.6 1-1 1.2-1.3.2-.2.3-.4.2-.5 0-.1 0-.3.1-.4 0-.2 0-.4.1-.5.1-.1.1-.2.1-.3.5 0 .7.2.6.5.1.3 0 .7-.2 1.3-.2.4-.3.7-.3 1.1-.1.3-.2.7-.4 1.2 1-.2 1.9-.4 2.7-.7.8-.3 1.7-.6 2.6-1 .2 0 .3.1.3.2s.1.1.3-.1c.5-.3 1-.5 1.4-.6l1.4-.3c1-.2 1.9-.5 2.9-.9.6-.3 1.2-.6 1.8-.8.6-.3 1.3-.5 2-.7h.7c.2 0 .4-.1.5-.2.6-.4 1.2-.6 1.6-.7.3-.1.9-.2 1.5-.3-.1.2-.2.3-.3.4l-.5.2-.5.2c-.2 0-.3.1-.5.2.4.2 1 .1 2-.3.5-.3.9-.4 1.2-.3.3.1.8 0 1.4-.3l2.2-.8c.7-.2 1.4-.3 2.2-.2.2 0 .4-.2.7-.4.1-.2.4-.4.9-.6v.2s.1.1.1.2c-.1.7-.1 1.1.1 1.2.1.1.5.1 1.1 0h.2c.2-.5.3-1 .5-1.6.2-.4.3-.9.5-1.3l.5-1.3.5-1.3.5-1.3v-1c-.1-.1-.1-.3.1-.7.6-.8 1.1-1.3 1.5-1.7-.4-.3-.4-.6 0-1 .3-.4.5-.7.6-1.1.1-.3.2-.8.3-1.2.1-.5.4-1.2.7-2.2.4-.8.7-1.5.7-2.2-.2-.3-.1-.7.3-1.1.5-1 1-1.9 1.3-2.8.4-.9.7-1.8 1-2.8.2-.5.4-.9.5-1.3.1-.4.4-.8.8-1.2.4-.6.5-1 .3-1.3-.1-.4.1-.8.6-1.2.2-.3.5-.6.6-.9.1-.4.3-.7.5-1.1l.9-2.2c.3-.7.6-1.4 1.1-2.2L122 67c.5-.9.9-1.8 1.1-2.8.1-.4.2-.77.4-1.1.2-.35.4-.7.6-1.1l1.3-3.05c.1-.2.1-.4.1-.5 0-.1.05-.24.1-.43-.5.4-.8.75-1.1 1.13-.2.4-.4.8-.6 1.3-.2.4-.3.8-.4 1.2-.1.4-.36.7-.74 1.1-.1-.43.07-1.1.4-1.9.7-1.1 1.2-2.3 1.7-3.42.4-.6.68-1 .7-1.3.1-.5.3-.9.5-1.2.2-.4.4-.7.6-1.1.3-.5.6-.9 1-1.2.46-.3.9-.56 1.4-.76.2-.1.37-.1.5-.1.16 0 .3 0 .5-.1s.36-.2.4-.4c.1-.2.2-.38.4-.4.3-.2.6-.3.9-.4.3-.08.6-.2 1-.4.2-.1.6-.4 1.15-1l-.4-.4c0-.5.2-.7.6-.7.3-.1.7-.1 1.3-.1.3-.2.5-.4.5-.7.1-.2.2-.4.5-.5h.5c.2 0 .3.1.3.3-.2.2-.3.34-.4.43 0 .1-.2.2-.3.4-.4.7-.4 1.3.2 1.6.2.1.4.1.5.1.1 0 .3.1.4.2.3-.3.3-.6.1-1 0-.4 0-.7-.1-.9 0-.2 0-.3-.1-.4-.1-.1-.1-.2-.1-.4l.5-.5c.2-.1.3-.23.5-.43.1-.2.2-.36.2-.5.1-.15.2-.3.4-.5.1-.4.1-.74 0-1-.4-.6-.3-1 .4-1.2.5-.3.9-.7 1-1.2.1-.6.4-1.06.7-1.45.3-.4.7-.76 1.2-1.15.7-.55 1.1-.5 1.3.17.2.4.3.77.3 1.1 0 .3 0 .7.1 1.1v.6c-.1.28-.1.5-.1.7.1.4.1.8.1 1.2 0 .4 0 .75.2 1.04.3.8.3 1.5 0 2.2-.4.6-.7 1.1-.9 1.6-.2.5-.1 1 .3 1.48.2.2.1.5-.1 1-.2.65-.3 1.3-.3 1.94l-.2 1.96c-.2.4-.2.7 0 .9.4.4.4.74.3 1.13-.2.4-.4.8-.6 1.3 0 .1-.1.3-.3.4-.1.3-.1.5 0 .8s0 .5-.3.9c-.2.2-.3.5-.4.8 0 .3-.2.7-.4.9l-.2 2c0 .1 0 .2-.1.2v.2c.1.2.2.5.2.8-1 1.4-1.6 2.7-1.6 4.1-.7.6-1.2.9-1.5 1-.2.1-.8.1-1.6.1 0 .2 0 .3.1.4.1.1.1.3.1.5-.3.2-.6.2-1 0-.2-.2-.3-.4-.4-.6-.1-.2-.3-.2-.6-.1l-.4.4c.2.3.2.5-.1.8-.2.2-.3.5-.2.8 0 .5-.2 1-.5 1.3-.1.5-.2.9-.3 1.3-.1.4-.1.7.1 1.1v.5c-.1.1-.4.1-.9.1-.4.7-.9 1.5-1.3 2.3-.4.8-.8 1.5-1.3 2.3-.2.3-.2.5 0 .7 0 .1.1.1.2.2.1 0 .2.1.2.2l-.3.9-.5.8c0 .2-.1.3-.2.4-.1.1-.1.3 0 .5 0 .7-.3 1.4-.8 2.2-.3.8-.4 1.6-.3 2.3 0 .2 0 .4.1.6s0 .4-.1.6l-.3.6c-.2.2-.2.4-.1.6.2.2.2.4 0 .5-.2.4-.3.7-.3 1v.9c-.2 0-.3.1-.3.3.2.4.2.6.2.7-.1.1-.3.3-.8.6-.4.3-.7.6-.8 1-.2.4-.1.7.2.9.4.3.4.6 0 .9-.3.2-.4.4-.3.5.1.2 0 .3-.2.5s-.3.4-.3.5c0 .1-.1.2-.3.4v.3c0 .1.1.1.2.1.4-.2.6-.2.6-.1l.2.5c-.1.4-.2.7-.2.9-.2.1-.4.2-.5.2l-.5.2c-.1.2-.1.3 0 .2s.2 0 .2.1c.4.2.4.4 0 .6l-.9.4c-.1.1-.1.3-.1.6.1.2.1.2.2.1 0-.1.1-.2.2-.2.3-.1.5 0 .5.3l-.3.8-.3.9c-.2.7-.3 1.3-.5 2-.1.6-.3 1.3-.5 1.9l-.3 1.9-.3 2-.5 3.5-.6 3.5c-.1.2-.1.4-.1.4 0 .1 0 .3-.1.5.2.1.5 0 .7-.3.4-.4.8-.9 1.2-1.5.4-.5.7-1 1-1.5.6-.9 1.2-1.9 1.8-2.7.6-.9 1.3-1.7 2-2.6l1.7-2c.6-.6 1.1-1.3 1.6-2 .2-.3.5-.6.8-.9.3-.3.6-.6.7-.9.3-.5.6-1 1-1.4l1.2-1.4c.3-.5.7-.9.9-1.4.2-.4.5-.9.9-1.4.4-.5.9-1 1.2-1.6.3-.6.8-1.1 1.4-1.6.3-.2.5-.5.7-.8l.6-1c0-.5.2-.8.5-1.1.3-.3.6-.7.8-1.2 0-.1.2-.3.6-.4l.4-.5.3-.9.3-.9c.2-.7.5-1.4 1-1.8.5-.4 1.1-.8 1.7-1.2 0-.1 0-.2.1-.3 0-.5.1-.7.3-.7.4-.2.6-.4.7-.6.1-.3.3-.5.5-.7s.3-.4.4-.5c0-.1.2-.3.4-.5.3-.3.5-.6.6-.9l.3-.9c.2-.4.3-.7.4-1.1.1-.3.3-.6.6-.9.4-.4.6-.8.6-1.2-.1-.4 0-.7.6-.9.3 0 .6-.1.7-.4l1.6-2.4c.6-.8 1.2-1.6 1.6-2.4.2-.4.3-.7.3-1 0-.4.3-.8.7-1.3.3-.2.6-.4.8-.7l.6-.9 1.6-2c.5-.6.8-1.3 1-2.1 0-.3.2-.7.6-1 .4-.5.7-1 .9-1.5.3-.5.5-1 .8-1.5.2-.3.4-.6.5-1 .1-.3.4-.6.7-.7.2-.7.5-1.3.9-1.9.4-.6.7-1.2 1-1.9.3-.8.6-1.5 1-2.1l1.1-2c.7-1.5 1.1-3.1 1.4-4.8.1-.3.1-.7.1-1.3l.7-1.1 1.3-1h.4c.4-.3.7-.7.9-1.2.7-.9 1.3-1.4 2-1.5.5 0 .9-.3 1.2-.7.4-.7 1.1-1.3 2.1-1.9.2-.1.3-.2.4-.3 0-.1.2-.2.4-.3h.8l.3-.3c.3-.6.7-1.1 1.4-1.5.2-.1.4-.3.5-.5.2-.3.3-.3.5-.1.2.1.3.4.3 1 0 .4-.2 1-.6 1.7-.4.6-.3 1 .3 1.3l.5-.4.6-1.2c.2-.4.5-.8 1-1.2v-1l1.1-1.1c.1.1.2.1.4.1.3.3.6.4.8.3.3-.2.4-.6.2-1.1 0-.1-.1-.2-.1-.2s-.1-.1-.1-.2 0-.2.1-.2.1-.2.3-.2l.9.4c.3-.5.6-.9.9-1.3.3-.4.6-.8.8-1.3.2-.5.4-.8.7-.9.3-.1.6-.3.9-.5.3.9 0 1.6-.9 2.2.2 1.3.5 2.4.9 3.4l.3.9c0 .3 0 .6-.2 1v.4zm-46.9 103.5l-.14.15.3-.1h-.16zm1.74-4.2c0 .1 0 .17-.06.2-.05.06-.07.14-.07.23h.14c0-.1.1-.2.1-.3.1-.1.1-.1.1-.2h-.1zM5.07 106.46c.13.13.2.23.25.3h.06c.2-.2.1-.3-.3-.3zm4.2-9.15h-.14l.14.2v-.1zm4.2 54c-.1.1-.18.1-.22.2h.15c.04 0 .1-.1.2-.1h-.14zm4.63 1.2h-.15v.2h.14v-.1zM68.47 34h-.15c0 .2-.05.34-.14.44.18-.2.28-.34.28-.44zm-.87 4.06h.16c.28-.28.38-.82.28-1.6l-.5.95c-.15.3-.13.5.07.7zm-.28-1.88c.1-.1.2-.17.3-.22.08-.05.18-.12.28-.22h-.15c-.2-.2-.28-.34-.28-.43-.1.1-.15.3-.15.5v.5zm-.3 2.9c.1-.1.16-.24.16-.43h-.15c0 .2-.05.34-.14.43h.1zm-.13-4.5l-.3-.14.1.14c0 .2-.1.34-.2.44h.1c.1-.1.1-.24.1-.44zm-2.2-1.3v.8c0 .24.1.45.3.65.1.1.1.17.1.2 0 .06 0 .14.1.23l.4 1.1c.1.23.4.55.8.93l-.2-.2c0-.3-.1-.6-.3-.8-.2-.2-.2-.4-.2-.6v-.7c0-.3 0-.5-.1-.7.1-.1 0-.3-.2-.5-.3-.4-.7-.8-1-1.1h-.2v.3zm-2 2.9l.1-.15-.1-.06-.1.04v.2zm-.9-.44c.1.23.4.27.8.15-.1-.1-.3-.2-.5-.3h-.3v.1zm-11 16.55l-.2-.2c0-.1-.1-.2-.2-.2 0 .1-.1.1-.2.1s-.2 0-.2.1.1.2.3.4l.2-.2v-.2zm0 .4c-.2 0-.3.2-.3.3.3-.3.6-.4.9-.5-.2-.1-.4-.1-.7.1zm-.6 1c.2 0 .3 0 .5.1.1 0 .3-.1.5-.4.5 0 .7 0 .8-.1 0-.1.1-.3.2-.8h-.4c-.1.1-.2.1-.3.2-.2.1-.4.2-.6.4-.4.2-.7.3-1 .4h.3zm-.7-.4c.2-.1.4-.1.6-.1l.1-.1c-.2-.1-.4-.2-.6-.1-.3 0-.5.1-.7.1l-.2.1c.1.1.3.1.5.1zm-1.1.7c.1-.1.2-.1.3-.2.2-.1.3-.3.2-.5l-.2.2c-.3.1-.4.3-.5.6l.1-.1zm-7-9.7h.1v-.2h-.2v.1zM26 93h.45v-.6c0 .1-.1.2-.2.2H26v.43zm-1 1.48c-.1.1-.14.27-.14.46.2-.1.27-.2.23-.3-.1-.07-.1-.1 0-.2H25zm.15 2.5c0-.2 0-.35.1-.44h-.47c-.1 0-.15.2-.15.4h.43zm-1.1 29.9c-.1.4.1.7.6.9h.13c0-.9-.06-1.48-.15-1.77-.2-.4-.5-.4-.87-.1.2.3.24.7.2 1.1zm-2.3-18v.43c.3 0 .42-.1.42-.4h-.45zm.7 3.63c.1-.1.2-.1.3-.2l.27-.2c-.3.1-.46.2-.54.5zm10 4.2c-.2 0-.34.1-.43.1-.1.1-.2.1-.4.1-.1 0-.2 0-.3-.1 0-.2.1-.3.3-.4.2-.2.4-.3.55-.3.2 0 .33-.1.43-.4-1.17-.3-2.4-.1-3.8.4-.2.1-.33.2-.5.3-.12.1-.3.2-.5.3-.6-.4-1.04-.5-1.43-.5-.5 0-.84-.1-1.03-.3l-.57-.6c.2-.3.25-.5.16-.8-.1-.2-.14-.5-.14-.8h-.2l-.9.5c-.4 0-.7-.1-.8-.3-.2-.2-.5-.2-1 .1-.2 1.2-.3 2.3-.2 3.3.1 1 .2 2.1.4 3.1s.4 1.7.6 2.2l.1-.7c-.2.5-.2.9 0 1.3l.6 1.2c.7-.3 1.2-.2 1.5.3.2.5.6.9 1.1 1.2.2-.2.4-.3.6-.4.4-.7 1-1.3 1.6-1.9.5-.6 1.1-1.3 1.6-2.1.1-.4.4-.7.6-1.1.2-.3.6-.6 1.1-.9.7-.8 1.2-1.4 1.3-1.9-.2-.2-.5-.3-.8-.3zm1.16.3c.1-.1.2-.2.2-.4l-.1.5zm5.2 18.6c0 .1-.1.3-.1.5h.2c0-.2.1-.3.2-.4H39zm10.8-20h-.1c-.2.2-.3.4-.4.7l.5-.5v-.1zm8.7 22.7H58l-.43.5-.1.1h.42c.3 0 .4-.1.4-.3v-.3zm.2 3.9l.2-.4c-.1.1-.1.3-.1.5zm3.3-.6c-.3.1-.6.2-1 .4l-.1.3.2.1c.2-.1.4-.2.7-.2.3-.1.5-.1.7-.2l.6-.3c.2-.1.3-.3.3-.6l-1.1.4zm2.7-27v.1h.2l.1-.2h-.3zm3.9-22v.2c.1 0 .1.1.1.2v-.5c.1-.1.2-.2.2-.4 0 .1-.1.3-.3.5zm.3 2.4h-.3l-.2.3h.5c-.1-.1-.1-.2 0-.3zM99 29.8l.15.16-.3-.6c-.57.02-1.05.07-1.44.16l-.4.44c0 .2.1.3.3.3.4 0 .9-.16 1.7-.45zm-2.16 2.62c.1-.1.14-.24.14-.43h.3c.05-.1.1-.3.1-.5v-.3c-.3 0-.43.1-.43.3 0 .2-.1.5-.3.8h.15zm-1.3-3.77c0-.1.04-.17.14-.22.1-.05.1-.12.1-.22v-.4c-.2.2-.3.4-.3.5v.5zm-4.64 21.2l.17.14h-.3c0 .1 0 .1-.06.2v.2l.2.1c.5-.3.6-.6.2-.8zm-.3 2.9l-.1.43c.1-.1.14-.24.14-.43zM74.9 134.9h.43l-.43-.13v.14zm-.15-1.73v-.44c0 .2-.04.34-.13.44h.13zm-2.96 4.8c.5-.3 1-.7 1.5-1.17 0-.3-.3-.3-.8 0-.8.74-1.4.85-2 .35-.5.45-.7.74-.8.88l-.2.5c-.2.5-.1.6.4.3l1.6-.87zm-.2-2.78c-.9-.2-1.5 0-1.7.7 0 .1-.1.2-.2.3.3 0 .5-.1.7-.2l.5-.5.5-.4zm-2.5 4.8c0 .1 0 .1.1.1.6-.2 1-.4 1.4-.5v-.3l.1-.2.1-.2c-.2-.2-.6-.2-1 0s-.8.4-.9.6v.3zm1.8-51.9v.1h.1l-.2-.2zm.1 24.2c-.4.4-.9.6-1.4.6 0 0 0 .1-.1.1-.1.3-.2.6-.2.8 0 .3-.1.7-.2 1.1.1-.5.2-1 .4-1.6.3.1.4.2.5.4 0 .2.2.2.6 0 .1-.1.1-.2.1-.4 0-.1 0-.2.1-.3.1-.1.1-.1.1-.2.1.1.1.2.1.4s-.1.4-.2.6 0 .5.3.7c0-.3.1-.6.2-1 .2-.5.3-1 .4-1.5 0-.5.2-.9.3-1.4-.3.2-.5.4-.8.6-.2.2-.5.5-.9.8zm1-16.1c.1-.1.1-.3.1-.5h-.5c0 .2-.1.3-.2.4h.5zm-.5-11.7c0 .2-.1.3-.2.4v.3l.3-.3c0-.1.1-.3.1-.5h-.3zM72 91c0 .2-.05.3-.14.4H72c.2-.1.4-.3.6-.5H72zm1.23-.9v-.3H73c-.3 0-.4.1-.4.3-.2.3-.1.5.3.7l.13-.2c.1 0 .2-.07.3-.17.1-.2.1-.3.05-.4zm1.1-4.2h-.1c0 .2 0 .3-.05.4-.06.1-.1.2-.1.4h.3c0-.2 0-.3.07-.4.02-.1.04-.3.04-.48h-.1zm0 12.2c-.1.1-.2.3-.4.5l.17.3c.2 0 .3-.1.3-.2 0-.2 0-.38.1-.5l.1-.44-.2.3zm1.1-3.4h.2c0-.2.07-.4.17-.5h-.1c-.1.1-.14.23-.14.42zm.6-4H76l-.12.17h.18l.13-.13zm-2.8 17.38c.2-.7.4-1.4.8-2.1 0-.1 0-.2-.04-.2-.1-.08-.1-.16-.1-.2v-.9c.1-.5.2-.9.4-1.3.1-.4.2-.86.2-1.3 0-.4.3-.7 1-.9l.3-.45c-.1-.1-.1-.2-.1-.3.1-.1 0-.2-.1-.3-.2-.1-.4-.2-.5-.2-.2 0-.3-.04-.5-.13-.6.6-1 1-1.3 1.2-.2.78-.4 1.48-.6 2.1-.2.6-.4 1.3-.6 1.97l-.3 1.1.5-.2c.1.2.1.4.1.67s0 .5.1.67c.1.2.2.4.3.5 0 .1.1.2.2.4zm1.8 5.12c-.2 0-.3.06-.4.16-.7.5-1.2.6-1.6.4l-.4.4c.4.2.62.32.72.4.2.1.35.26.54.45.7-.8 1-1.2 1.1-1.4.1-.1.1-.3.1-.6l-.1.1zm1.6 22.37v.16c-.2.2-.1.3.2.3.1 0 .2-.1.3-.2.36-.55.65-1.13.85-1.72-.1 0-.16 0-.16-.1l-.14-.3-.5 1c-.13.3-.3.6-.5.9zm.9-2.74c.5 0 .87-.1 1.16-.2.1 0 .1 0 .2-.1 0-.1.2-.2.4-.3-.1 0-.2 0-.2-.06-.1 0-.2-.03-.2-.03-.5 0-1 .24-1.4.7zm15-11.4c-.2-.1-.4-.17-.57-.17-.15 0-.34.05-.58.15.2.1.34.2.5.3.12.1.34.1.63-.1v-.1zm1.3.12v-.3c0-.3-.13-.3-.4 0v.3c0 .3.12.3.4.1v-.2zm7.47-4.48c-.4.07-.8.04-1.1-.05-.63-.1-1.3.12-1.84.7l-.3.3h-.9c-.2.2-.3.33-.4.43-.03.1-.15.2-.34.4h-.9c0 .1 0 .17-.06.2v.24c0 .4.22.7.7.7s.96-.1 1.45-.1c.5-.1 1-.1 1.4-.2.8-.2 1.5-.4 2.2-.5.4-.4.6-.8.7-1.1.1-.4.3-.8.4-1.2h-1.1zm2.27-4c0 .2.1.3.3.3h.2c.07-.14.15-.3.16-.42 0-.17.06-.3.1-.4l-.3.1-.44.4zm1.03-4.76h-.6l-.15.2c0 .2 0 .3.1.3.4 0 .6-.1.7-.3l-.17-.1zm.5 1.3c-.35.2-.67.3-.96.5.1.2.4.3.77.3h.2l.3-.9v-.1l-.2.1zm.64-2.1v.3c.1-.1.1-.3.2-.4l-.2.1zm5.4 44.6c-.77 0-1.35.1-1.74.3 0 .9.2 1.4.7 1.6.3.2.5.1.7-.4.1-.2.1-.4.1-.7 0-.2.06-.4.16-.6v-.2zm7.53-4.2h-.43v.2h.43v-.1zm13.5-92c.2-.1.4-.2.6-.6V55c-.2.1-.4.24-.6.44 0 .1.1.14.2.14l.16.16-.2.3zm-2.9 27.1c0-.1.06-.2.1-.2.07-.1.1-.1.1-.2l.1-.3h-.1c-.1.1-.1.1-.1.2v.5zm-.4 1.2c-.1.2-.13.3-.13.5 0 .1-.05.3-.15.5.4-.2.5-.6.3-1zm-2.74 7.7l.16-.2c0-.2 0-.3.1-.4h-.3c-.1.1-.2.3-.2.5l.1.1zm-3.6 17.7c0-.2.1-.4.2-.5v-.4c0 .1 0 .2-.06.2 0 .1-.05.1-.05.2v.4zm15.5 16.9c-.1-.1-.1-.1-.1-.2 0 0-.04-.1-.14-.2h-.2c-.2.1-.3.2-.3.4.2.2.3.4.3.5.1 0 .1 0 .1-.1s0-.1.1-.1l.2-.1v-.1zm19 16c-.1-.1-.4-.1-.9 0l.2.4c.1.3.23.5.42.7h.1c.1 0 .2 0 .3-.1-.1-.2-.2-.4-.2-.8zm1.2-.8h-.16v.2h.1v-.1zm2.3-73.7c0 .2 0 .3.06.4v.5l.1-.2V68c.2-.4.4-.7.5-1-.6.3-.9.6-.9 1zm3.07-4.9c.18.5.3.9.4 1.1-.3.3-.52.5-.7.6-.2.2-.2.4-.2.6 0 .2.04.3.14.2.1-.1.2-.1.3-.1h.8c.2-.2.4-.5.53-.9.3-.8.36-1.2.16-1.4-.2-.2-.66-.2-1.4.1zm1.86-2.1l-.3.3c-.2.4-.2.7-.1.9l.2-.2.2-.4V61zM174 97.8l.2.14c.2 0 .3-.2.3-.5l.1-.1c-.2.1-.4.2-.6.4zm11-57.2c-.3.4-.5.8-.8 1.16-.2.4-.5.9-.9 1.3v.2c.6-.5 1-.7 1.2-.8.1-.1.3-.3.5-.7 0-.2 0-.32.1-.5.1-.1.1-.3-.1-.5zm3.4 13.2c-.1.1-.1.26-.1.45l.2-.5zm-.1-12.18l-.2.24c-.1.04-.2.1-.3.2h-.12c.2.2.4.34.5.43.2.1.3.2.5.4.3-.3.5-.5.5-.6.1-.1.17-.3.17-.4 0-.6-.3-.7-.86-.3zm1.8-2c-.2-.1-.4-.04-.53.15-.2 0-.3.2-.3.5 0 .2.03.37.1.46.1.1.15.3.15.5v.1c.56-.2.75-.5.56-.9.2-.3.2-.55 0-.7zm-91.5 98.3l.08-.04v.2c0-.05-.05-.1-.05-.15zM95 123.4l.06-.3c0 .13 0 .23-.04.3zM48.4 118l.18-.16v.03l-.14.1zM2.3 135.5v-.15h.03l-.02.14zm66.9-52v.03c-.06.03-.1.08-.14.12l.14-.15zm25.63-38.9l-.07-.07.03-.03v.1zm-18.4 56.47c-.1.04-.17.05-.22 0h.3zm-32.4-59.5c-.58.57-1.16.86-1.74.86l.3-.3c.2-.38.6-.76 1.4-1.15h.4c-.1.1-.2.18-.2.28 0 .1-.1.2-.3.3zm-13.6 14.8h.3c-.2.2-.3.2-.3 0zm-26.5 87.1h-.15v-.15h.15v.14zm12.9 11.32h-.16v-.2h.14v.1zm197.3-18.9v-.2h.16l-.2.1zm77.6-2.5c-.1.1-.2.1-.3.2-.1 0-.17.1-.27.2 0-.1.1-.3.3-.5h.28zm2.47 1.3l-.14.1c0-.1.05-.3.14-.5v.3zm-.14.1c0 .1-.05.2-.15.4l-.3-.2c.2-.1.3-.2.5-.3zm.87-.5c-.2.2-.3.3-.35.4-.05.1-.17.2-.37.4v-.4c0-.1.2-.2.5-.3l.3-.2zm62.26 1.4v-.2h.1l-.2.1zm56.3 15.4c0-.1 0-.1.1-.1h.3c-.2.4-.3.7-.3.8l-.2.1c-.1-.2-.2-.4-.2-.5 0-.1-.1-.3-.2-.5h.1c.1 0 .1-.1.1-.1zm35-8.8c0-.1 0-.3.1-.5l.1-.2c.6 0 .7.3.6 1 0 .1-.2.3-.5.5-.1.1-.3.1-.5-.1s-.3-.3-.2-.5.1-.4.1-.5zm7.4-9.6v.6h-.2c0-.1-.1-.2-.1-.2-.1-.1-.1-.2-.1-.3.1 0 .2-.1.3-.2zm17.4-57.1l-.2.3h-.4c-.1-.1-.2-.2-.2-.3l.1-.2h.4zm.1 3.6c0 .2-.1.3-.2.4v-.5c.2-.2.3-.4.3-.4 0 .2-.1.3-.2.4zm2.3-10.2l.1-.5c0 .2-.1.3-.2.4zm.3 2.6c0 .2-.1.3-.2.4-.2.2-.4.3-.6.4V72h.3l.4-.42z"/></svg>